# Blender v2.90.0 OBJ File: 'Nature Kit.blend'
# www.blender.org
mtllib Branch_1.mtl
o Cube.080_Cube.230
v 0.982800 -0.002061 0.022368
v 0.983646 -0.002072 -0.022389
v 0.984976 0.042673 -0.022375
v 0.984130 0.042685 0.022382
v -0.647249 0.024533 0.214611
v -0.999896 0.015644 0.072157
v -1.003277 0.015824 0.061596
v -1.003199 0.026914 0.061759
v -0.999818 0.026734 0.072321
v -0.644820 0.005757 -0.029879
v -0.645948 0.006023 -0.057742
v -0.644890 0.034209 -0.057441
v -0.643762 0.033944 -0.029578
v 0.393678 0.017351 0.009557
v 0.391769 0.017317 -0.029780
v 0.390639 0.056691 -0.029709
v 0.392549 0.056725 0.009628
v -0.246008 -0.012732 0.100339
v -0.260482 -0.017998 0.063820
v -0.258288 0.028198 0.060138
v -0.235118 -0.015262 0.019784
v -0.235944 0.023486 0.018784
v -0.142773 -0.017964 0.072218
v -0.135878 -0.015536 0.025539
v -0.148144 0.027210 0.028394
v -0.136261 0.024940 0.072886
v -0.135365 -0.023412 0.045961
v 0.984650 0.051183 0.000003
v -0.199215 -0.023691 0.066424
v -0.242032 -0.022677 0.038388
v -0.196639 -0.014728 0.089447
v -0.253301 -0.020557 0.086587
v -0.245858 0.031563 0.081301
v 0.984316 0.020303 -0.030887
v -0.139747 0.032819 0.052898
v -0.200769 0.032364 0.045622
v -0.194019 0.023775 0.021259
v -0.244946 0.031479 0.034958
v -0.138276 0.004802 0.018328
v 0.982814 -0.010561 -0.000016
v -0.134872 0.004703 0.080242
v 0.983148 0.020319 0.030874
v -0.232699 0.004019 0.013100
v -0.999106 0.021157 0.074087
v -1.001350 0.028812 0.067023
v -1.003700 0.021401 0.059737
v -1.001457 0.013745 0.066801
v -0.282166 -0.010330 0.108907
v -0.291959 -0.011127 0.077281
v -0.289287 0.025315 0.076418
v -0.277012 0.005628 0.063742
v -0.279413 0.024895 0.108045
v -0.624864 0.021396 0.216377
v -0.629847 0.018551 0.202718
v -0.628925 0.031071 0.202457
v -0.624831 0.031016 0.214327
v -0.666579 0.006521 -0.025963
v -0.671100 0.006884 -0.052762
v -0.645582 0.000605 -0.043867
v -0.670463 0.034333 -0.052432
v -0.645630 0.020166 -0.062816
v -0.665942 0.033970 -0.025633
v -0.644127 0.039361 -0.043453
v -0.644079 0.019801 -0.024505
v -0.991640 0.013139 0.072043
v -0.996513 0.013397 0.056818
v -0.996399 0.029384 0.057053
v -0.991526 0.029125 0.072279
v -0.283807 -0.013503 0.051381
v -0.268670 0.024373 0.015297
v -0.281423 0.025098 0.051234
v -0.625393 0.004536 -0.028885
v -0.622960 0.004652 -0.057329
v -0.621466 0.033447 -0.057017
v -0.623900 0.033332 -0.028572
v 0.392935 0.009951 -0.010125
v 0.390846 0.036998 -0.037120
v 0.391382 0.064090 -0.010027
v 0.393471 0.037044 0.016968
v -0.093817 -0.013946 0.065411
v 0.976055 -0.004825 0.025278
v 0.977020 -0.004838 -0.025806
v 0.978538 0.046232 -0.025790
v 0.977573 0.046245 0.025294
v -0.279097 0.007312 0.114278
v -0.214931 -0.022094 0.082341
v -0.283374 0.031628 0.092168
v -0.293548 0.007108 0.071453
v -0.211947 0.031365 0.032404
v -0.287403 -0.017238 0.093489
v -0.192976 0.032169 0.066682
v -0.189325 -0.024015 0.043080
v -0.628086 0.016185 0.208740
v -0.630266 0.024830 0.200400
v -0.626818 0.033400 0.208382
v -0.624638 0.027619 0.216722
v -0.671630 0.020676 -0.057622
v -0.665413 0.020177 -0.020773
v -0.994228 0.010267 0.064428
v -0.997501 0.021439 0.054119
v -0.994071 0.032256 0.064752
v -0.990798 0.021083 0.075061
v -0.277089 -0.020650 0.033005
v -0.267576 0.005241 0.008586
v -0.274340 0.031730 0.033002
v -0.286044 0.005925 0.057722
v -0.624456 -0.000805 -0.043165
v -0.621757 0.019071 -0.062506
v -0.622403 0.038789 -0.042736
v -0.625103 0.018912 -0.023395
v -0.094944 -0.021397 0.044572
v 0.976475 -0.014434 -0.000262
v 0.978184 0.020688 -0.035392
v 0.978564 0.055828 -0.000241
v 0.976856 0.020706 0.034889
vt 0.773438 0.707031
vt 0.484375 0.535156
vt 0.414062 0.519531
vt 0.468750 0.515625
vt 0.800781 0.710938
vt 0.070312 0.445312
vt 0.097656 0.281250
vt 0.125000 0.281250
vt 0.125000 0.445312
vt 0.097656 0.472656
vt 0.070312 0.503906
vt 0.015625 0.507812
vt 0.015625 0.492188
vt 0.031250 0.523438
vt -0.011719 0.523438
vt 0.250000 0.609375
vt 0.222656 0.632812
vt 0.207031 0.625000
vt 0.195312 0.609375
vt 0.125000 0.078125
vt 0.167969 0.078125
vt 0.167969 0.281250
vt 0.675781 0.746094
vt 0.660156 0.730469
vt 0.703125 0.726562
vt 0.894531 0.937500
vt 0.882812 0.937500
vt 0.359375 0.472656
vt 0.414062 0.464844
vt 0.152344 0.574219
vt 0.125000 0.566406
vt 0.179688 0.535156
vt 0.265625 0.550781
vt 0.179688 0.582031
vt 0.265625 0.582031
vt 0.179688 0.597656
vt 0.320312 0.476562
vt 0.347656 0.503906
vt 0.332031 0.515625
vt 0.277344 0.507812
vt 0.386719 0.523438
vt 0.332031 0.535156
vt -0.492188 0.839844
vt -0.039062 0.539062
vt 0.003906 0.546875
vt -0.394531 0.851562
vt 0.152344 0.605469
vt 0.441406 0.546875
vt 0.265625 0.476562
vt 0.222656 0.503906
vt -0.011719 0.488281
vt 0.058594 0.460938
vt 0.265625 0.621094
vt 0.250000 0.636719
vt 0.222656 0.281250
vt 0.207031 0.078125
vt 0.277344 0.078125
vt 0.265625 0.281250
vt 0.207031 0.472656
vt -0.421875 0.863281
vt 0.003906 0.859375
vt 0.003906 0.843750
vt 0.058594 0.839844
vt -0.121094 0.839844
vt -0.203125 0.828125
vt -0.039062 0.851562
vt -0.050781 0.835938
vt -0.105469 0.855469
vt -0.203125 0.867188
vt -0.285156 0.855469
vt -0.285156 0.832031
vt -0.367188 0.859375
vt -0.367188 0.843750
vt 0.085938 0.558594
vt 0.718750 0.707031
vt 0.785156 0.734375
vt 0.757812 0.742188
vt 0.746094 0.722656
vt 0.757812 0.722656
vt 0.828125 0.734375
vt 0.812500 0.718750
vt 0.648438 0.746094
vt 0.578125 0.746094
vt 0.578125 0.734375
vt 0.605469 0.730469
vt 0.855469 0.949219
vt 0.828125 0.953125
vt 0.812500 0.945312
vt 0.828125 0.941406
vt 0.976562 0.937500
vt 0.949219 0.941406
vt 0.964844 0.937500
vt 0.992188 0.937500
vt 0.031250 0.550781
vt 0.152344 0.472656
vt 0.855469 0.937500
vt 0.949219 0.941406
vt 0.949219 0.937500
vt 0.937500 0.945312
vt 0.921875 0.937500
vt 0.855469 0.714844
vt 0.894531 0.941406
vt 0.882812 0.945312
vt 0.855469 0.949219
vt 0.605469 0.718750
vt 0.320312 0.582031
vt 0.332031 0.566406
vt 0.632812 0.714844
vt 0.320312 0.597656
vt 0.292969 0.609375
vt 0.320312 0.281250
vt 0.386719 0.558594
vt 0.539062 0.734375
vt 0.523438 0.722656
vt 0.550781 0.726562
vt 0.320312 0.078125
vt 0.687500 0.714844
vt 0.359375 0.281250
vt 0.414062 0.281250
vt 0.457031 0.078125
vt 0.429688 0.078125
vt 0.386719 0.074219
vt 0.457031 0.074219
vt 0.097656 0.078125
vt 0.097656 0.074219
vt 0.125000 0.074219
vt 0.347656 0.078125
vt 0.320312 0.074219
vt 0.347656 0.074219
vt 0.207031 0.074219
vt 0.277344 0.074219
vt 0.167969 0.074219
vt 0.457031 0.464844
vt 0.468750 0.488281
vt 0.511719 0.507812
vt 0.578125 0.519531
vt 0.839844 0.703125
vt 0.441406 0.281250
vt 0.457031 0.445312
vt 0.515625 0.597656
vt 0.582031 0.570312
vt 0.609375 0.503906
vt 0.582031 0.437500
vt 0.515625 0.410156
vt 0.449219 0.437500
vt 0.421875 0.503906
vt 0.449219 0.570312
vt 0.453125 0.371094
vt 0.558594 0.371094
vt 0.628906 0.453125
vt 0.628906 0.558594
vt 0.546875 0.628906
vt 0.441406 0.628906
vt 0.371094 0.546875
vt 0.371094 0.441406
vn 0.1045 0.0178 -0.9944
vn 0.1632 0.0305 -0.9861
vn 0.1019 0.0044 -0.9948
vn 0.0642 -0.6897 -0.7212
vn 0.0486 -0.6818 -0.7299
vn 0.0507 -0.9986 -0.0144
vn 0.0140 -0.9999 0.0032
vn 0.0400 -0.7186 0.6942
vn 0.1243 -0.7352 0.6664
vn 0.1493 -0.7665 0.6247
vn 0.1872 -0.6566 0.7306
vn 0.0159 -0.9588 0.2836
vn 0.0163 -0.9856 0.1684
vn 0.1561 -0.6201 0.7688
vn -0.0505 -0.9793 0.1961
vn -0.2517 -0.9677 0.0118
vn 0.2266 -0.6896 0.6878
vn 0.2595 -0.0059 0.9657
vn 0.0418 -0.0195 0.9989
vn 0.1728 0.6789 0.7136
vn 0.0474 0.7139 0.6986
vn -0.0123 0.9999 -0.0092
vn -0.1862 0.9778 0.0964
vn 0.0172 0.6732 0.7392
vn -0.0264 0.0001 -0.9996
vn -0.0084 -0.7007 -0.7134
vn -0.2821 0.7142 -0.6406
vn -0.0062 0.9991 0.0411
vn 0.0012 0.9928 0.1194
vn -0.1925 0.9813 -0.0037
vn -0.4055 -0.0021 -0.9141
vn -0.9937 0.0228 -0.1097
vn -0.3346 -0.7090 -0.6207
vn -0.0136 0.7768 -0.6296
vn 0.0622 0.6947 -0.7166
vn -0.0034 0.9631 -0.2690
vn -0.0064 0.9910 -0.1336
vn 0.0530 0.6609 -0.7485
vn -0.0128 0.9872 -0.1592
vn -0.1992 -0.9691 0.1456
vn -0.0870 -0.9908 0.1037
vn 0.1552 -0.6490 0.7448
vn 0.0333 -0.5509 0.8339
vn 0.1153 0.6969 -0.7078
vn -0.0027 0.9977 0.0670
vn 0.0317 0.9908 0.1310
vn 0.0008 -0.9925 -0.1223
vn 0.0381 -0.9973 -0.0622
vn -0.0518 -0.9910 -0.1231
vn 0.0156 0.7053 0.7087
vn 0.2902 0.6709 0.6824
vn 0.3038 0.9527 0.0049
vn -0.0190 0.9998 0.0105
vn 0.0916 0.7093 0.6989
vn -0.9552 -0.0090 0.2956
vn -0.4360 -0.6750 -0.5951
vn -0.3947 0.7023 -0.5923
vn -0.1711 0.9827 0.0706
vn -0.5017 0.0225 -0.8647
vn 0.0214 0.7352 0.6775
vn 0.0794 0.1718 0.9819
vn 0.1943 0.7058 0.6812
vn 0.1001 0.6925 -0.7144
vn -0.2597 0.0188 -0.9655
vn -0.1925 0.7244 -0.6620
vn -0.0596 0.7116 -0.7000
vn -0.0909 0.0160 -0.9957
vn -0.2103 -0.6915 -0.6910
vn -0.0895 -0.6883 -0.7198
vn 0.2277 -0.0151 0.9736
vn 0.1635 -0.6909 0.7042
vn 0.0269 -0.7174 0.6961
vn 0.0573 -0.0091 0.9983
vn -0.6080 -0.4501 0.6540
vn -0.7488 -0.6219 0.2291
vn -0.2018 -0.9769 0.0698
vn 0.0093 -0.6896 0.7241
vn -0.8791 -0.4357 -0.1930
vn -0.4145 -0.6825 -0.6020
vn 0.2633 0.0436 0.9637
vn 0.1651 -0.0072 0.9862
vn 0.0981 -0.0158 0.9950
vn -0.9345 0.0119 -0.3557
vn -0.4966 0.0170 -0.8678
vn -0.8728 0.4536 -0.1799
vn -0.4029 0.7105 -0.5769
vn -0.0372 -0.9991 -0.0219
vn -0.7400 0.6254 0.2475
vn -0.6017 0.4392 0.6671
vn -0.5543 -0.0083 0.8323
vn -0.1470 0.0003 0.9891
vn -0.3644 0.0289 0.9308
vn -0.2165 0.7521 0.6224
vn -0.0965 0.7031 0.7045
vn -0.2892 -0.7358 0.6123
vn -0.0782 -0.9956 -0.0508
vn -0.0480 0.7204 -0.6918
vn -0.0023 0.9988 -0.0493
vn -0.0537 -0.9985 -0.0054
vn -0.1378 -0.7177 0.6825
vn 0.3108 0.6708 -0.6733
vn 0.0115 0.9996 -0.0267
vn -0.0509 0.0130 -0.9986
vn -0.0241 -0.6925 -0.7210
vn 0.2409 -0.9705 0.0042
vn 0.2689 -0.6860 -0.6761
vn 0.8283 -0.4195 -0.3714
vn 0.8133 -0.5816 0.0181
vn 0.8075 -0.4223 0.4117
vn 0.2923 -0.0058 -0.9563
vn 0.8602 0.3551 -0.3659
vn 0.8506 -0.0290 -0.5249
vn 0.8400 0.3587 0.4071
vn 0.8588 0.5120 0.0186
vn 0.8217 -0.0287 0.5691
vn -0.9524 0.0023 0.3049
vn 0.9994 -0.0297 0.0189
usemtl Bark_Branch
s 1
f 108/1/1 104/2/2 43/3/3 21/4/4 73/5/5
f 111/6/6 76/7/7 14/8/8 80/9/9
f 23/10/10 31/11/11 86/12/12 29/13/13
f 18/14/14 32/15/15 86/12/12 31/11/11
f 19/16/16 29/17/13 86/18/12 32/19/15
f 81/20/17 115/21/18 79/22/19 14/8/8
f 62/23/20 13/24/21 63/25/22 101/26/23 68/27/24
f 43/3/3 39/28/25 24/29/26 21/4/4
f 50/30/27 87/31/28 33/32/29 20/33/30
f 88/34/31 50/30/27 20/33/30 51/35/32
f 49/36/33 88/34/31 51/35/32 19/16/16
f 25/37/34 37/38/35 89/39/36 36/40/37
f 22/41/38 38/42/39 89/39/36 37/38/35
f 20/33/30 36/40/37 89/39/36 38/42/39
f 93/43/40 90/44/41 48/45/42 53/46/43
f 90/47/41 49/36/33 19/16/16 32/19/15
f 48/45/42 90/44/41 32/15/15 18/14/14
f 104/2/2 70/48/44 22/41/38 37/38/35 25/37/34 39/28/25 43/3/3
f 35/49/45 25/37/34 36/40/37 91/50/46
f 91/50/46 36/40/37 20/33/30 33/32/29
f 23/10/10 29/13/13 92/51/47 27/52/48
f 29/17/13 19/16/16 30/53/49 92/54/47
f 17/55/50 84/56/51 114/57/52 78/58/53 35/49/45 26/59/54
f 5/60/55 93/43/40 53/46/43
f 5/61/55 54/62/56 93/63/40
f 87/31/28 50/30/27 55/64/57 95/65/58
f 5/66/55 94/67/59 54/62/56
f 5/68/55 55/64/57 94/67/59
f 5/69/55 95/65/58 55/64/57
f 5/70/55 56/71/60 95/65/58
f 5/72/55 96/73/61 56/71/60
f 5/72/55 53/46/43 96/73/61
f 91/50/46 33/32/29 87/31/28 52/74/62 26/59/54 35/49/45
f 74/75/63 70/48/44 104/2/2 108/1/1
f 97/76/64 60/77/65 12/78/66 61/79/67
f 58/80/68 97/76/64 61/79/67 11/81/69
f 56/71/60 52/74/62 87/31/28 95/65/58
f 98/82/70 57/83/71 10/84/72 64/85/73
f 62/23/20 98/82/70 64/85/73 13/24/21
f 6/86/74 47/87/75 99/88/76 65/89/77
f 47/90/75 7/91/78 66/92/79 99/93/76
f 85/94/80 41/95/81 26/59/54 52/74/62
f 57/83/71 98/82/70 102/96/82 65/89/77
f 7/91/78 46/97/83 100/98/84 66/92/79
f 46/97/83 8/99/85 67/100/86 100/98/84
f 58/80/68 11/81/69 59/101/87 99/93/76 66/92/79
f 8/99/85 45/102/88 101/26/23 67/100/86
f 45/102/88 9/103/89 68/27/24 101/26/23
f 49/36/33 90/47/41 93/63/40 54/62/56
f 97/76/64 58/80/68 66/92/79 100/98/84
f 9/103/89 44/104/90 102/96/82 68/27/24
f 44/104/90 6/86/74 65/89/77 102/96/82
f 110/105/91 106/106/92 71/107/93 75/108/94
f 69/109/95 103/110/96 30/53/49 19/16/16
f 78/58/53 16/111/97 25/37/34 35/49/45
f 105/112/98 71/107/93 20/33/30 38/42/39
f 70/48/44 105/112/98 38/42/39 22/41/38
f 106/106/92 69/109/95 19/16/16 51/35/32
f 71/107/93 106/106/92 51/35/32 20/33/30
f 10/84/72 59/113/87 107/114/99 72/115/100
f 78/58/53 114/57/52 83/116/101 16/111/97
f 11/81/69 61/79/67 108/1/1 73/5/5
f 61/79/67 12/78/66 74/75/63 108/1/1
f 18/14/14 31/11/11 23/10/10 41/95/81 85/94/80 96/73/61 53/46/43 48/45/42
f 96/73/61 85/94/80 52/74/62 56/71/60
f 12/78/66 63/25/22 109/117/102 74/75/63
f 13/24/21 64/85/73 110/105/91 75/108/94
f 64/85/73 10/84/72 72/115/100 110/105/91
f 109/117/102 105/112/98 70/48/44 74/75/63
f 71/107/93 105/112/98 109/117/102 63/25/22 13/24/21 75/108/94
f 77/118/103 15/119/104 24/29/26 39/28/25
f 99/88/76 59/113/87 10/84/72 57/83/71 65/89/77
f 23/10/10 27/52/48 111/6/6 80/9/9
f 94/67/59 88/34/31 49/36/33 54/62/56
f 79/22/19 115/21/18 84/56/51 17/55/50 26/59/54 41/95/81
f 63/25/22 12/78/66 60/77/65 67/100/86 101/26/23
f 107/114/99 103/110/96 69/109/95 72/115/100
f 98/82/70 62/23/20 68/27/24 102/96/82
f 50/30/27 88/34/31 94/67/59 55/64/57
f 112/120/105 82/121/106 2/122/107 40/123/108
f 81/20/17 112/124/105 40/125/108 1/126/109
f 113/127/110 83/116/101 3/128/111 34/129/112
f 82/121/106 113/127/110 34/129/112 2/122/107
f 16/111/97 83/116/101 113/127/110 77/118/103
f 113/127/110 82/121/106 15/119/104 77/118/103
f 114/57/52 84/56/51 4/130/113 28/131/114
f 83/116/101 114/57/52 28/131/114 3/128/111
f 76/7/7 112/124/105 81/20/17 14/8/8
f 115/21/18 81/20/17 1/126/109 42/132/115
f 84/56/51 115/21/18 42/132/115 4/130/113
f 14/8/8 79/22/19 41/95/81 23/10/10 80/9/9
f 27/133/48 92/134/47 30/135/49 103/136/96 107/137/99 59/101/87 11/81/69 73/5/5 21/4/4 24/29/26 15/119/104 82/121/106 112/120/105 76/138/7 111/139/6
f 69/109/95 106/106/92 110/105/91 72/115/100
f 60/77/65 97/76/64 100/98/84 67/100/86
f 39/28/25 25/37/34 16/111/97 77/118/103
usemtl Wood_End
s off
f 45/140/116 8/141/116 46/142/116 7/143/116 47/144/116 6/145/116 44/146/116 9/147/116
f 40/148/117 2/149/117 34/150/117 3/151/117 28/152/117 4/153/117 42/154/117 1/155/117
