# Blender v2.90.0 OBJ File: 'Nature Kit.blend'
# www.blender.org
mtllib Branch_2.mtl
o Cube.081_Cube.231
v -0.030036 0.036786 -0.252344
v -0.048144 0.027300 -0.229894
v -0.037413 -0.006243 -0.235025
v -0.019305 0.003243 -0.257475
v -0.235752 0.010974 -0.635000
v -0.225637 0.008240 -0.632943
v -0.233139 0.004784 -0.626673
v -0.229403 0.020167 -0.631043
v -0.236906 0.016710 -0.624772
v -0.041102 0.038332 -0.240157
v -0.046174 0.008750 -0.228250
v -0.026347 -0.007789 -0.247212
v -0.021275 0.021793 -0.259119
v -0.226544 0.022721 -0.627331
v -0.236517 0.018126 -0.618996
v -0.231511 0.002272 -0.621522
v -0.221537 0.006867 -0.629857
v -0.232531 0.023399 -0.622807
v -0.235946 0.009335 -0.618812
v -0.225644 0.001592 -0.626282
v -0.222228 0.015656 -0.630277
v 1.001360 0.291456 -0.021850
v 1.016708 0.249697 -0.003402
v 1.019976 0.231303 -0.047789
v 1.004629 0.273062 -0.066237
v -0.749407 0.486031 -0.358018
v -0.757868 0.476311 -0.347298
v -0.751167 0.459952 -0.355212
v -0.742705 0.469671 -0.365932
v -1.411696 0.296946 -0.192993
v -1.416849 0.283421 -0.187836
v -1.415939 0.276913 -0.203773
v -1.410785 0.290438 -0.208930
v -0.817916 0.052672 -0.039733
v -0.817457 0.013767 -0.023704
v -0.814150 -0.002987 -0.064070
v -0.814609 0.035917 -0.080099
v 0.250635 0.079553 0.006894
v 0.250866 0.024913 0.030072
v 0.252308 0.001335 -0.026401
v 0.252078 0.055975 -0.049579
v -0.338869 0.201973 -0.035439
v -0.354103 0.151608 -0.018103
v -0.347846 0.118268 -0.081732
v -0.319896 0.085460 0.006973
v -0.318057 0.060728 -0.047936
v -0.210199 0.149165 -0.009884
v -0.198506 0.081732 0.015121
v -0.210670 0.061336 -0.049080
v -0.199164 0.123365 -0.070900
v -0.199781 0.114931 0.014322
v 1.012802 0.248645 -0.065437
v -0.279679 0.152854 -0.000997
v -0.330134 0.116735 0.005758
v -0.277381 0.179248 -0.027186
v -0.347309 0.186938 -0.020350
v -0.754990 0.484275 -0.351272
v -0.756203 0.466306 -0.349339
v -0.333735 0.144270 -0.097703
v 1.021136 0.232524 -0.022085
v -0.201566 0.091128 -0.070699
v -0.276009 0.088581 -0.072599
v -0.266748 0.058970 -0.045098
v -0.329588 0.079544 -0.069978
v -0.199513 0.059658 -0.009952
v 1.008292 0.274027 -0.004188
v -0.745755 0.461731 -0.362178
v -0.199397 0.145702 -0.046171
v 0.999958 0.290149 -0.047540
v -0.744542 0.479700 -0.364112
v -0.315103 0.064181 -0.016360
v -1.410144 0.296010 -0.201832
v -1.413027 0.282402 -0.209154
v -1.417146 0.277635 -0.194825
v -1.414263 0.291243 -0.187502
v -0.397266 0.226557 -0.074158
v -0.415987 0.189186 -0.057947
v -0.410318 0.164835 -0.108929
v -0.372684 0.139197 -0.053703
v -0.391587 0.202909 -0.123380
v -0.736474 0.475160 -0.355995
v -0.752390 0.476230 -0.334510
v -0.743670 0.454944 -0.344807
v -0.732660 0.467591 -0.358755
v -1.013528 0.067214 -0.060378
v -1.021642 0.031723 -0.046389
v -1.017511 0.052972 -0.044561
v -1.018855 0.015380 -0.085709
v -0.815717 -0.001904 -0.040882
v -1.010740 0.050871 -0.099698
v -1.012900 0.029657 -0.099943
v -0.816349 0.051589 -0.062921
v -1.401771 0.295801 -0.187776
v -1.409201 0.276305 -0.180341
v -1.407888 0.266923 -0.203315
v -1.400459 0.286420 -0.210750
v -0.381590 0.134336 -0.019774
v -0.357926 0.059258 -0.050819
v -0.375877 0.110498 -0.074619
v -0.794229 0.052465 -0.036390
v -0.789372 0.012411 -0.019400
v -0.785487 -0.004749 -0.060595
v -0.790345 0.035305 -0.077585
v 0.250480 0.056654 0.029072
v 0.251630 0.002879 0.006181
v 0.252464 0.024234 -0.048579
v 0.251313 0.078009 -0.025688
v -0.149386 0.131353 -0.006080
v 0.994688 0.294297 -0.019974
v 1.012312 0.246344 0.001209
v 1.016065 0.225222 -0.049761
v 0.998442 0.273175 -0.070944
v -0.391126 0.221705 -0.101601
v -0.299884 0.175913 -0.014668
v -0.399315 0.179418 -0.125209
v -0.417853 0.171087 -0.081193
v -0.407422 0.212482 -0.057045
v -0.267838 0.117150 -0.083942
v -0.265855 0.117758 0.010820
v -0.748656 0.486564 -0.339728
v -0.750230 0.463235 -0.337217
v -0.736666 0.457295 -0.353887
v -0.730185 0.466907 -0.363934
v -1.021770 0.016897 -0.063426
v -1.010613 0.065698 -0.082661
v -1.405888 0.287911 -0.179794
v -1.410094 0.268050 -0.190481
v -1.404082 0.275007 -0.211395
v -1.399876 0.294867 -0.200708
v -0.372657 0.112209 0.002107
v -0.357520 0.061333 -0.019354
v -0.365514 0.080195 -0.072485
v -0.383353 0.131702 -0.051572
v -0.792529 0.035655 -0.020171
v -0.786518 -0.003679 -0.036812
v -0.787188 0.012061 -0.076814
v -0.793198 0.051395 -0.060173
v -0.149940 0.106917 0.016816
v 1.002969 0.274351 0.000185
v 1.017675 0.226834 -0.020305
v 1.008133 0.245291 -0.069939
v 0.993428 0.292808 -0.049449
v 0.480175 0.099097 0.004797
v 0.605437 0.143515 -0.002140
v 0.757780 0.205447 -0.008181
v 0.478595 0.097505 -0.024238
v 0.604190 0.142035 -0.031439
v 0.756597 0.203966 -0.038290
v 0.762210 0.184109 -0.060274
v 0.609569 0.122689 -0.052833
v 0.483177 0.078072 -0.045410
v 0.492053 0.050380 -0.044353
v 0.619398 0.095066 -0.051823
v 0.772499 0.155791 -0.059254
v 0.780901 0.135399 -0.038663
v 0.627553 0.075212 -0.031783
v 0.499749 0.030558 -0.024459
v 0.501383 0.032168 0.004573
v 0.628924 0.076739 -0.002490
v 0.782306 0.136965 -0.008564
v 0.776471 0.156737 0.013430
v 0.623422 0.096038 0.018910
v 0.496746 0.051584 0.025748
v 0.487925 0.079292 0.024688
v 0.613716 0.123708 0.017894
v 0.766404 0.185141 0.012400
v 0.204016 0.008541 -0.029083
v 0.141540 0.039104 -0.055937
v 0.208385 0.072974 -0.040211
v 0.150871 0.072493 -0.053015
v -0.303678 0.160008 -0.091642
v -0.303565 0.180575 -0.068388
vt 0.566406 0.976562
vt 0.601562 0.976562
vt 0.601562 0.980469
vt 0.566406 0.980469
vt 0.312500 0.750000
vt 0.417969 0.976562
vt 0.386719 0.980469
vt 0.257812 0.753906
vt 0.146484 0.515625
vt 0.091797 0.511719
vt 0.152344 0.472656
vt 0.207031 0.472656
vt 0.484375 0.535156
vt 0.773438 0.707031
vt 0.718750 0.707031
vt 0.441406 0.546875
vt 0.428727 0.534875
vt 0.462316 0.529408
vt 0.484375 0.750000
vt 0.429688 0.750000
vt 0.222656 0.503906
vt 0.265625 0.476562
vt 0.320312 0.476562
vt 0.277344 0.507812
vt 0.414062 0.281250
vt 0.359375 0.281250
vt 0.356445 0.230469
vt 0.417969 0.230469
vt 0.003906 0.843750
vt -0.050781 0.835938
vt 0.179688 0.582031
vt 0.179688 0.597656
vt 0.949219 0.937500
vt 0.785156 0.734375
vt 0.828125 0.734375
vt 0.964844 0.937500
vt 0.894531 0.937500
vt 0.703125 0.726562
vt 0.757812 0.742188
vt 0.921875 0.937500
vt 0.515625 0.976562
vt 0.515625 0.980469
vt 0.484375 0.980469
vt 0.484375 0.976562
vt 0.429688 0.980469
vt 0.398438 0.980469
vt 0.632812 0.976562
vt 0.621094 0.980469
vt 0.449219 0.976562
vt 0.449219 0.980469
vt 0.268555 0.230469
vt 0.265625 0.281250
vt 0.222656 0.281250
vt 0.218750 0.230469
vt 0.535156 0.976562
vt 0.535156 0.980469
vt 0.468750 0.515625
vt 0.800781 0.710938
vt 0.070312 0.503906
vt 0.015625 0.492188
vt 0.097656 0.472656
vt 0.031250 0.523438
vt 0.015625 0.507812
vt 0.250000 0.609375
vt 0.207031 0.625000
vt 0.195312 0.609375
vt 0.386719 0.523438
vt 0.414062 0.519531
vt 0.152344 0.574219
vt 0.265625 0.582031
vt 0.265625 0.621094
vt 0.222656 0.632812
vt 0.347656 0.503906
vt 0.332031 0.535156
vt 0.265625 0.550781
vt 0.320312 0.582031
vt 0.320312 0.597656
vt -0.367188 0.859375
vt -0.492188 0.839844
vt -0.394531 0.851562
vt -0.285156 0.855469
vt -0.367188 0.843750
vt -0.285156 0.832031
vt -0.367188 0.859375
vt 0.179688 0.535156
vt 0.125000 0.566406
vt 0.085938 0.558594
vt 0.707031 0.750000
vt 0.652344 0.750000
vt 0.539062 0.734375
vt 0.578125 0.734375
vt 0.578125 0.746094
vt 0.535156 0.750000
vt 0.601562 0.750000
vt 0.125000 0.445312
vt 0.468750 0.488281
vt 0.414062 0.464844
vt 0.320312 0.281250
vt 0.320312 0.230469
vt -0.011719 0.523438
vt 0.003906 0.546875
vt -0.039062 0.539062
vt 0.757812 0.722656
vt 0.812500 0.718750
vt 0.675781 0.746094
vt 0.660156 0.730469
vt 0.882812 0.937500
vt 0.511719 0.507812
vt 0.250000 0.636719
vt 0.152344 0.605469
vt 0.359375 0.472656
vt 0.320312 0.378906
vt 0.550781 0.726562
vt 0.523438 0.722656
vt 0.292969 0.609375
vt 0.167969 0.074219
vt 0.167969 0.078125
vt 0.125000 0.078125
vt 0.125000 0.074219
vt 0.722939 0.559103
vt 0.265625 0.322827
vt 0.449219 0.179688
vt 0.421875 0.179688
vt 0.425781 0.128906
vt 0.453125 0.128906
vt 0.125000 0.179688
vt 0.125000 0.128906
vt 0.167969 0.128906
vt 0.167969 0.179688
vt 0.386719 0.558594
vt 0.332031 0.566406
vt 0.605469 0.718750
vt 0.839844 0.703125
vt 0.855469 0.714844
vt -0.421875 0.863281
vt 0.058594 0.839844
vt 0.097656 0.871094
vt 0.003906 0.859375
vt 0.214844 0.179688
vt 0.167969 0.230469
vt -0.203125 0.828125
vt -0.203125 0.867188
vt -0.039062 0.851562
vt 0.687500 0.714844
vt 0.031250 0.550781
vt 0.992188 0.937500
vt 0.367188 0.750000
vt 0.746094 0.722656
vt 0.855469 0.937500
vt 0.648438 0.746094
vt 0.812500 0.945312
vt 0.828125 0.941406
vt 0.855469 0.949219
vt 0.828125 0.953125
vt 0.855469 0.949219
vt 0.632812 0.714844
vt 0.605469 0.730469
vt 0.894531 0.941406
vt 0.882812 0.945312
vt 0.937500 0.945312
vt 0.976562 0.937500
vt 0.949219 0.941406
vt -0.121094 0.839844
vt -0.105469 0.855469
vt 0.334742 0.540906
vt 0.400132 0.532026
vt 0.125000 0.281250
vt 0.097656 0.281250
vt 0.097656 0.230469
vt 0.125000 0.230469
vt 0.167969 0.281250
vt 0.058594 0.460938
vt 0.070312 0.445312
vt -0.011719 0.488281
vt 0.320312 0.179688
vt 0.353516 0.179688
vt 0.949219 0.941406
vt 0.445312 0.230469
vt 0.441406 0.281250
vt 0.210938 0.128906
vt 0.097656 0.078125
vt 0.097656 0.074219
vt 0.386719 0.074219
vt 0.429688 0.078125
vt 0.347656 0.078125
vt 0.347656 0.074219
vt 0.219391 0.321249
vt 0.320312 0.074219
vt 0.320312 0.078125
vt 0.457031 0.074219
vt 0.457031 0.078125
vt 0.207031 0.074219
vt 0.277344 0.074219
vt 0.277344 0.078125
vt 0.207031 0.078125
vt 0.457031 0.445312
vt 0.457031 0.464844
vt 0.578125 0.519531
vt 0.097656 0.179688
vt 0.097656 0.128906
vt 0.350586 0.128906
vt 0.320312 0.128906
vt 0.274414 0.128906
vt 0.271484 0.179688
vt 0.592545 0.575667
vt 0.528248 0.549664
vt 0.216451 0.563009
vt 0.273520 0.544468
vt 0.221414 0.296470
vt 0.195089 0.299639
vt 0.515625 0.410156
vt 0.421875 0.503906
vt 0.515625 0.597656
vt 0.609375 0.503906
vt 0.449219 0.570312
vt 0.582031 0.570312
vt 0.582031 0.437500
vt 0.449219 0.437500
vt 0.453125 0.570312
vt 0.515625 0.597656
vt 0.425781 0.507812
vt 0.578125 0.570312
vt 0.605469 0.507812
vt 0.515625 0.417969
vt 0.578125 0.445312
vt 0.453125 0.445312
vt 0.371094 0.441406
vt 0.453125 0.371094
vt 0.371094 0.546875
vt 0.558594 0.371094
vt 0.628906 0.453125
vt 0.546875 0.628906
vt 0.628906 0.558594
vt 0.441406 0.628906
vn -0.9196 -0.3266 0.2181
vn -0.9296 0.3321 0.1598
vn -0.9551 0.2507 -0.1577
vn -0.5636 -0.1020 -0.8197
vn 0.2647 0.9195 -0.2906
vn 0.1690 0.8236 -0.5413
vn -0.4821 0.8654 -0.1369
vn -0.3581 0.9207 0.1549
vn 0.3651 0.3415 -0.8661
vn 0.4600 0.7747 -0.4339
vn 0.3019 0.8957 -0.3265
vn 0.2036 0.3822 -0.9014
vn 0.0867 -0.9286 0.3609
vn 0.0094 -0.9219 0.3873
vn 0.0663 -0.9354 -0.3472
vn 0.0999 -0.9296 -0.3547
vn 0.3501 -0.4132 -0.8406
vn 0.0976 -0.9624 -0.2535
vn 0.2033 -0.9638 -0.1723
vn 0.7033 -0.3919 -0.5931
vn 0.0992 -0.2497 -0.9632
vn 0.0507 -0.2982 -0.9531
vn -0.0224 -0.8654 -0.5006
vn 0.0146 -0.5519 -0.8338
vn -0.0115 -0.4103 0.9118
vn -0.0129 -0.9264 0.3763
vn 0.2206 -0.8971 0.3828
vn 0.1187 -0.3872 0.9143
vn -0.7782 0.0813 0.6227
vn -0.7921 -0.5197 0.3200
vn -0.7024 -0.6540 0.2810
vn -0.6500 -0.1646 0.7418
vn -0.7049 -0.6703 0.2319
vn -0.3582 -0.8713 0.3352
vn -0.3250 -0.4256 0.8445
vn -0.6201 -0.2455 0.7451
vn -0.1567 -0.2841 -0.9459
vn 0.0185 -0.4244 -0.9053
vn -0.2413 -0.9038 -0.3533
vn -0.5436 -0.7190 -0.4330
vn 0.1067 -0.9106 -0.3993
vn 0.2420 -0.3126 -0.9185
vn 0.5838 -0.3803 -0.7173
vn -0.1190 0.6065 -0.7861
vn 0.6225 0.3116 -0.7178
vn 0.0717 -0.4079 -0.9102
vn 0.2247 0.4450 -0.8668
vn -0.0932 0.3421 -0.9350
vn -0.5528 -0.8333 -0.0012
vn -0.6543 -0.7123 -0.2540
vn -0.0519 -0.3574 0.9325
vn -0.0695 -0.4114 0.9088
vn 0.3313 0.9031 0.2730
vn 0.0072 0.4868 0.8734
vn 0.2351 0.8340 0.4991
vn 0.1816 0.8987 0.3990
vn 0.0632 0.6026 0.7956
vn -0.4154 0.3351 0.8456
vn -0.1794 0.4252 0.8871
vn 0.0331 -0.9421 -0.3337
vn -0.0195 -0.9124 0.4089
vn -0.4360 -0.8177 -0.3757
vn -0.9989 -0.0004 -0.0465
vn -0.1423 0.2497 0.9578
vn -0.0128 -0.9416 -0.3363
vn 0.0221 -0.5238 -0.8515
vn -0.2015 -0.3856 -0.9004
vn -0.3421 0.8465 -0.4079
vn -0.3215 0.8438 0.4295
vn -0.1791 0.8058 -0.5644
vn -0.2400 0.8440 0.4796
vn 0.5899 0.8072 -0.0177
vn -0.1874 -0.1817 -0.9653
vn 0.5393 -0.2759 -0.7956
vn -0.0011 -0.8441 -0.5362
vn -0.0619 0.5569 -0.8282
vn 0.1177 -0.3263 -0.9379
vn 0.1082 -0.4751 -0.8733
vn 0.5551 0.2189 -0.8025
vn -0.7652 0.3659 0.5296
vn -0.1104 0.3276 0.9383
vn 0.0070 0.9396 0.3421
vn 0.1954 0.8950 0.4008
vn -0.4209 -0.8336 0.3578
vn -0.7480 -0.3053 0.5893
vn 0.1336 0.8667 0.4806
vn -0.0307 0.2001 0.9793
vn -0.0764 -0.3879 0.9185
vn 0.2014 -0.9116 -0.3584
vn 0.3555 0.9055 0.2317
vn -0.2322 0.5573 0.7971
vn -0.1153 -0.9224 0.3687
vn -0.1408 -0.4223 0.8954
vn 0.2770 0.3390 -0.8990
vn 0.1124 0.3907 -0.9136
vn 0.2321 0.4049 -0.8844
vn -0.0877 -0.9291 0.3592
vn -0.1620 -0.9824 0.0931
vn -0.1219 0.9124 0.3908
vn -0.1121 0.3477 0.9309
vn -0.1417 0.3393 0.9299
vn 0.6912 0.6860 -0.2274
vn 0.0198 0.9246 -0.3805
vn 0.0421 0.9404 0.3373
vn 0.7025 0.6986 0.1354
vn -0.0398 0.8455 -0.5325
vn -0.6658 -0.7375 -0.1130
vn -0.0974 0.3684 0.9245
vn 0.1724 -0.3503 0.9206
vn 0.1731 -0.3419 0.9236
vn -0.1041 0.3711 0.9227
vn -0.3124 0.8690 0.3836
vn -0.3211 0.8659 0.3835
vn -0.3517 0.8558 -0.3792
vn -0.3453 0.8564 -0.3837
vn 0.0353 -0.4331 -0.9006
vn -0.1602 0.2829 -0.9456
vn -0.0564 0.9188 -0.3907
vn -0.8060 0.5527 -0.2116
vn -0.9953 0.0938 -0.0219
vn -0.1769 0.3374 -0.9246
vn -0.2006 0.8976 -0.3925
vn 0.1481 -0.6600 -0.7364
vn -0.2779 -0.5509 -0.7869
vn -0.9356 -0.3289 -0.1280
vn 0.0714 -0.4120 -0.9084
vn 0.5936 0.7500 -0.2918
vn -0.2705 0.4508 0.8506
vn 0.6970 0.3976 -0.5967
vn -0.0290 -0.9237 -0.3820
vn 0.3589 0.8715 -0.3342
vn 0.3438 0.8753 -0.3400
vn 0.1577 0.9189 0.3617
vn -0.5443 0.8345 0.0857
vn -0.7671 0.4947 0.4084
vn -0.4353 0.8242 -0.3621
vn 0.0243 0.3638 -0.9312
vn 0.0808 0.9213 -0.3804
vn -0.6984 0.0405 -0.7145
vn -0.4971 0.5163 -0.6974
vn -0.9004 -0.2271 -0.3712
vn -0.9421 0.0590 0.3300
vn -0.4962 -0.8451 -0.1989
vn -0.6693 -0.6391 -0.3789
vn 0.0160 0.9228 0.3848
vn -0.0009 0.3658 0.9307
vn -0.0490 0.3605 0.9315
vn -0.1812 0.9019 0.3919
vn 0.0354 0.9210 -0.3879
vn 0.0216 0.3217 0.9466
vn 0.0245 0.3526 0.9354
vn 0.3038 -0.8726 -0.3824
vn 0.3377 -0.8618 0.3783
vn -0.9781 -0.2062 0.0278
vn -0.1779 0.3452 -0.9215
vn 0.2275 0.4682 0.8538
vn 0.7915 0.4610 0.4012
vn 0.9081 0.1064 0.4050
vn 0.4675 -0.2180 0.8567
vn 0.6190 -0.7081 0.3398
vn 0.9794 -0.1462 0.1393
vn 0.9631 -0.1433 -0.2277
vn 0.5916 -0.7100 -0.3818
vn 0.7609 0.4408 -0.4761
vn 0.8718 0.1023 -0.4790
vn 0.4057 -0.2340 -0.8835
vn 0.1681 0.4395 -0.8824
vn 0.3485 -0.8559 0.3819
vn 0.3181 -0.8669 -0.3837
vn 0.1000 -0.3694 -0.9239
vn 0.0917 -0.3778 -0.9213
vn 0.1976 0.7780 -0.5963
vn -0.9405 0.2924 -0.1731
vn -0.9547 0.2698 -0.1255
vn -0.9271 0.3423 -0.1527
vn -0.9231 0.3146 -0.2212
vn -0.9508 0.2427 -0.1926
vn -0.7554 -0.0195 -0.6550
vn -0.7829 -0.0472 -0.6203
vn -0.7996 -0.0106 -0.6004
vn -0.7725 0.0175 -0.6348
vn 0.9487 0.3089 -0.0675
vn 0.9432 0.3239 -0.0741
vn 0.9420 0.3304 -0.0582
vn 0.9475 0.3155 -0.0516
vn -0.7782 -0.0151 -0.6279
vn 0.9454 0.3197 -0.0629
usemtl Bark_Branch
s 1
f 19/1/1 15/2/2 9/3/3 5/4/4
f 1/5/5 14/6/6 18/7/7 10/8/8
f 171/9/9 172/10/10 68/11/11 50/12/12
f 131/13/13 135/14/14 102/15/15 98/16/16
f 106/17/17 40/18/18 12/19/19 4/20/20
f 118/21/21 61/22/22 49/23/23 62/24/24
f 39/25/25 105/26/26 158/27/27 163/28/28
f 82/29/29 121/30/30 116/31/31 77/32/32
f 127/33/33 124/34/34 86/35/35 94/36/36
f 128/37/37 91/38/38 88/39/39 95/40/40
f 20/41/41 5/42/4 6/43/42 17/44/43
f 18/7/7 14/6/6 8/45/44 5/46/4
f 18/47/7 5/48/4 9/3/3 15/2/2
f 21/49/45 5/50/4 8/45/44 14/6/6
f 152/51/46 106/52/17 41/53/47 151/54/48
f 20/41/41 16/55/49 7/56/50 5/42/4
f 21/49/45 17/44/43 6/43/42 5/50/4
f 131/13/13 45/57/51 101/58/52
f 55/59/53 53/60/54 47/61/55
f 42/62/56 114/63/57 55/59/53
f 43/64/58 114/65/57 56/66/59
f 131/13/13 98/16/16 46/67/60 71/68/61
f 78/69/62 79/70/63 116/31/31
f 54/71/64 53/72/54 114/65/57 43/64/58
f 63/73/65 62/24/24 49/23/23
f 62/24/24 64/74/66 44/75/67
f 71/68/61 46/67/60 63/73/65
f 79/70/63 133/76/68 97/77/69 43/64/58
f 26/78/70 120/79/71 81/80/72
f 29/81/73 123/82/74 84/83/75
f 70/84/76 81/80/72 123/82/74
f 59/85/77 115/86/78 80/87/79 171/9/9
f 10/88/8 18/47/7 15/2/2 2/89/80
f 123/82/74 80/87/79 84/83/75
f 87/90/81 34/91/82 85/92/83
f 3/93/84 11/94/85 19/1/1 16/55/49
f 68/11/11 47/61/55 108/95/86
f 119/96/87 45/57/51 48/97/88
f 101/58/52 135/14/14 131/13/13
f 131/13/13 71/68/61 45/57/51
f 40/98/18 157/99/89 158/27/27 105/26/26
f 55/59/53 114/63/57 53/60/54
f 42/62/56 56/100/59 114/63/57
f 76/101/90 81/80/72 120/79/71 117/102/91
f 86/35/35 124/34/34 89/103/92 35/104/93
f 90/105/94 37/106/95 91/38/38
f 91/38/38 128/37/37 96/107/96 90/105/94
f 59/85/77 118/21/21 62/24/24 44/75/67
f 78/69/62 44/75/67 79/70/63
f 46/67/60 64/74/66 62/24/24 63/73/65
f 54/108/64 45/57/51 119/109/87 53/72/54
f 56/66/59 117/110/91 77/32/32 43/64/58
f 65/111/97 49/23/23 167/112/98
f 97/77/69 100/113/99 134/114/100 130/115/101
f 49/23/23 65/111/97 63/73/65
f 65/111/97 71/68/61 63/73/65
f 69/116/102 142/117/103 109/118/104 22/119/105
f 50/12/12 170/120/106 168/121/107 61/22/22
f 165/122/108 162/123/109 161/124/110 166/125/111
f 144/126/112 145/127/113 148/128/114 147/129/115
f 44/75/67 64/74/66 132/130/116 99/131/117
f 100/113/99 97/77/69 133/76/68 137/132/118
f 35/104/93 134/133/100 87/134/81
f 26/78/70 57/135/119 120/79/71
f 120/136/71 57/137/119 27/138/120 82/29/29
f 150/139/121 151/54/48 146/140/122 147/129/115
f 45/57/51 71/68/61 65/111/97 48/97/88
f 122/141/123 67/142/124 29/81/73 84/83/75
f 121/30/30 82/29/29 27/138/120 58/143/125
f 98/16/16 102/15/15 136/144/126 132/130/116
f 29/81/73 70/84/76 123/82/74
f 70/84/76 26/78/70 81/80/72
f 61/22/22 118/21/21 50/12/12
f 113/145/127 55/59/53 172/10/10
f 80/87/79 113/145/127 172/10/10 171/9/9
f 19/1/1 11/94/85 2/89/80 15/2/2
f 94/36/36 86/35/35 87/134/81 126/146/128
f 13/147/129 4/20/20 17/44/43 21/49/45
f 36/148/130 136/144/126 102/15/15
f 157/99/89 40/98/18 106/52/17 152/51/46
f 96/107/96 129/149/131 125/150/132 90/105/94
f 126/151/128 93/152/133 30/153/134 75/154/135
f 129/149/131 72/155/136 30/153/134 93/152/133
f 12/19/19 20/41/41 17/44/43 4/20/20
f 103/156/137 37/106/95 92/157/138 137/132/118
f 128/37/37 73/158/139 33/159/140 96/107/96
f 128/37/37 95/40/40 32/160/141 73/158/139
f 86/35/35 35/104/93 87/134/81
f 129/149/131 96/107/96 33/159/140 72/155/136
f 126/146/128 75/161/135 31/162/142 94/36/36
f 37/106/95 90/105/94 125/150/132 92/157/138
f 122/141/123 83/163/143 28/164/144 67/142/124
f 13/147/129 41/165/47 106/166/17 4/20/20
f 38/167/145 104/168/146 164/169/147 143/170/148
f 151/54/48 41/53/47 107/171/149 146/140/122
f 108/95/86 47/61/55 51/172/150 138/173/151
f 43/64/58 97/77/69 130/115/101 54/71/64
f 119/174/87 51/172/150 47/61/55 53/60/54
f 11/94/85 168/121/107 170/120/106 2/89/80
f 79/70/63 44/75/67 99/131/117 133/76/68
f 93/152/133 85/92/83 125/150/132 129/149/131
f 81/80/72 76/101/90 113/145/127 123/82/74
f 100/113/99 137/132/118 92/157/138 34/91/82
f 55/59/53 47/61/55 68/11/11
f 13/147/129 21/49/45 14/6/6 1/5/5
f 55/59/53 68/11/11 172/10/10
f 123/82/74 113/145/127 80/87/79
f 134/114/100 34/91/82 87/90/81
f 82/29/29 77/32/32 117/110/91 120/136/71
f 158/27/27 157/99/89 156/175/152 159/176/153
f 126/151/128 87/90/81 85/92/83 93/152/133
f 127/33/33 94/36/36 31/162/142 74/177/154
f 103/156/137 137/132/118 133/76/68 99/131/117
f 105/26/26 39/25/25 48/97/88 65/111/97
f 99/131/117 132/130/116 136/144/126 103/156/137
f 77/32/32 116/31/31 79/70/63 43/64/58
f 83/163/143 78/69/62 116/31/31 121/30/30
f 108/95/86 138/173/151 104/168/146 38/167/145
f 163/28/28 164/178/147 104/179/146 39/25/25
f 91/38/38 36/148/130 88/39/39
f 127/33/33 74/177/154 32/160/141 95/40/40
f 149/180/155 150/139/121 147/129/115 148/128/114
f 121/30/30 58/143/125 28/164/144 83/163/143
f 22/119/105 109/118/104 139/181/156 66/182/157
f 23/183/158 110/184/159 140/185/160 60/186/161
f 44/75/67 78/69/62 115/86/78 59/85/77
f 168/121/107 49/23/23 61/22/22
f 16/55/49 20/41/41 12/19/19 3/93/84
f 170/187/106 68/11/11 107/171/149
f 24/188/162 60/186/161 140/185/160 111/189/163
f 66/190/157 139/191/156 110/184/159 23/183/158
f 19/1/1 5/4/4 7/56/50 16/55/49
f 25/192/164 52/193/165 141/194/166 112/195/167
f 56/100/59 42/62/56 76/101/90 117/102/91
f 108/95/86 38/167/145 107/171/149
f 107/171/149 68/11/11 108/95/86
f 138/196/151 51/197/150 48/97/88
f 51/197/150 119/96/87 48/97/88
f 54/108/64 130/198/101 45/57/51
f 136/144/126 37/106/95 103/156/137
f 130/198/101 134/133/100 101/58/52
f 45/57/51 130/198/101 101/58/52
f 104/179/146 138/196/151 39/25/25
f 143/170/148 146/140/122 107/171/149 38/167/145
f 48/97/88 39/25/25 138/196/151
f 89/103/92 124/34/34 88/39/39 36/148/130
f 135/14/14 101/58/52 35/104/93 89/103/92
f 111/189/163 141/194/166 52/193/165 24/188/162
f 144/126/112 165/199/108 166/200/111 145/127/113
f 160/201/168 140/185/160 110/184/159 161/124/110
f 122/141/123 84/83/75 80/87/79 115/86/78
f 162/123/109 165/122/108 164/178/147 163/28/28
f 135/14/14 89/103/92 36/148/130 102/15/15
f 166/125/111 161/124/110 110/184/159 139/191/156
f 127/33/33 95/40/40 88/39/39 124/34/34
f 159/176/153 156/175/152 155/202/169 160/201/168
f 111/189/163 155/202/169 154/203/170 141/194/166
f 155/202/169 156/175/152 153/204/171 154/203/170
f 164/169/147 165/199/108 144/126/112 143/170/148
f 156/175/152 157/99/89 152/51/46 153/204/171
f 162/123/109 159/176/153 160/201/168 161/124/110
f 144/126/112 147/129/115 146/140/122 143/170/148
f 154/203/170 149/180/155 112/195/167 141/194/166
f 153/204/171 152/51/46 151/54/48 150/139/121
f 154/203/170 153/204/171 150/139/121 149/180/155
f 160/201/168 155/202/169 111/189/163 140/185/160
f 112/195/167 149/180/155 148/128/114 142/117/103
f 166/200/111 139/181/156 109/118/104 145/127/113
f 148/128/114 145/127/113 109/118/104 142/117/103
f 122/141/123 115/86/78 78/69/62 83/163/143
f 163/28/28 158/27/27 159/176/153 162/123/109
f 25/192/164 112/195/167 142/117/103 69/116/102
f 168/205/107 3/93/84 167/206/98
f 12/19/19 40/18/18 167/206/98 3/93/84
f 42/62/56 55/59/53 113/145/127 76/101/90
f 2/89/80 170/120/106 10/88/8
f 10/8/8 170/207/106 1/5/5
f 170/207/106 169/208/172 1/5/5
f 64/74/66 46/67/60 98/16/16 132/130/116
f 167/112/98 40/98/18 105/26/26
f 105/26/26 65/111/97 167/112/98
f 35/104/93 101/58/52 134/133/100
f 36/148/130 91/38/38 136/144/126
f 134/114/100 100/113/99 34/91/82
f 168/121/107 167/112/98 49/23/23
f 170/187/106 50/12/12 68/11/11
f 107/171/149 41/209/47 169/210/172
f 169/210/172 170/187/106 107/171/149
f 136/144/126 91/38/38 37/106/95
f 168/205/107 11/94/85 3/93/84
f 125/150/132 85/92/83 34/91/82 92/157/138
f 169/208/172 41/165/47 13/147/129 1/5/5
f 118/21/21 59/85/77 171/9/9 50/12/12
usemtl Wood_End
s off
f 75/211/173 72/212/173 73/213/173 74/214/173
f 33/215/174 73/213/174 72/212/174
f 73/213/175 32/216/175 74/214/175
f 75/211/176 74/214/176 31/217/176
f 75/211/177 30/218/177 72/212/177
f 29/219/178 67/220/178 70/221/178
f 67/220/179 28/222/179 58/223/179
f 57/224/180 58/223/180 27/225/180
f 57/224/181 26/226/181 70/221/181
f 22/227/182 66/228/182 69/229/182
f 66/228/183 23/230/183 60/231/183
f 52/232/184 60/231/184 24/233/184
f 52/232/185 25/234/185 69/229/185
f 57/224/186 70/221/186 67/220/186 58/223/186
f 52/232/187 69/229/187 66/228/187 60/231/187
