# Blender v2.90.0 OBJ File: 'Nature Kit.blend'
# www.blender.org
mtllib Bush_3.mtl
o Icosphere.039_Icosphere.134
v 0.019584 -0.093846 -0.024153
v 0.217460 0.159381 0.490198
v -0.392346 0.187055 0.376333
v -0.494591 0.200558 -0.281570
v 0.145252 0.165515 -0.551540
v 0.559475 0.155187 -0.074643
v -0.112556 0.623959 0.518366
v -0.472494 0.605178 0.041022
v -0.235771 0.653194 -0.471638
v 0.440330 0.624186 -0.428508
v 0.467047 0.654096 0.302880
v 0.013391 0.874909 -0.009160
v -0.255623 -0.025768 0.249488
v 0.158478 -0.040012 0.333852
v -0.106471 0.132650 0.525726
v 0.455219 0.151756 0.239487
v 0.377311 -0.027611 -0.063029
v -0.300522 0.017105 -0.178916
v -0.514916 0.154682 0.049464
v 0.105870 0.012006 -0.363153
v -0.203078 0.171641 -0.448302
v 0.403728 0.111924 -0.404747
v 0.332597 0.393129 0.335948
v 0.621516 0.400400 0.178497
v -0.280514 0.405398 0.511529
v 0.047417 0.394927 0.563449
v -0.583884 0.397096 -0.147104
v -0.471679 0.395303 0.222433
v -0.074304 0.393101 -0.617236
v -0.451610 0.404847 -0.460586
v 0.571388 0.377166 -0.297542
v 0.303356 0.395207 -0.557503
v 0.162949 0.638197 0.402926
v -0.336188 0.646278 0.335525
v -0.417410 0.664967 -0.242177
v 0.121225 0.657731 -0.465483
v 0.498757 0.763767 -0.067742
v -0.053881 0.787297 0.289003
v 0.257006 0.876289 0.144589
v -0.276475 0.803322 0.028162
v -0.104334 0.801037 -0.253570
v 0.228766 0.866426 -0.209345
vt 0.818181 0.000000
vt 0.772726 0.078731
vt 0.863635 0.078731
vt 0.727272 0.157461
vt 0.681818 0.078731
vt 0.636363 0.157461
vt 0.090909 0.000000
vt 0.045454 0.078731
vt 0.136363 0.078731
vt 0.272727 0.000000
vt 0.227273 0.078731
vt 0.318182 0.078731
vt 0.454545 0.000000
vt 0.409090 0.078731
vt 0.500000 0.078731
vt 0.681818 0.236191
vt 0.909090 0.157461
vt 0.818181 0.157461
vt 0.863635 0.236191
vt 0.181818 0.157461
vt 0.090909 0.157461
vt 0.136363 0.236191
vt 0.363636 0.157461
vt 0.272727 0.157461
vt 0.318182 0.236191
vt 0.545454 0.157461
vt 0.454545 0.157461
vt 0.500000 0.236191
vt 0.772726 0.236191
vt 0.954545 0.236191
vt 0.227273 0.236191
vt 0.409090 0.236191
vt 0.590909 0.236191
vt 0.818181 0.314921
vt 0.727272 0.314921
vt 0.772726 0.393651
vt 1.000000 0.314921
vt 0.909091 0.314921
vt 0.954545 0.393651
vt 0.272727 0.314921
vt 0.181818 0.314921
vt 0.227273 0.393651
vt 0.454545 0.314921
vt 0.363636 0.314921
vt 0.409090 0.393651
vt 0.636363 0.314921
vt 0.545454 0.314921
vt 0.590909 0.393651
vt 0.500000 0.393651
vt 0.545454 0.472382
vt 0.318182 0.393651
vt 0.363636 0.472382
vt 0.136363 0.393651
vt 0.181818 0.472382
vt 0.090909 0.314921
vt 0.863635 0.393651
vt 0.909090 0.472382
vt 0.681818 0.393651
vt 0.727272 0.472382
vt 0.045454 0.236191
vt 0.000000 0.157461
vt 0.590909 0.078731
vt 0.636363 0.000000
vn -0.0389 -0.9953 -0.0882
vn 0.2360 -0.8608 0.4508
vn -0.3998 -0.8670 0.2973
vn 0.4765 -0.2858 0.8314
vn 0.7094 -0.4613 0.5328
vn -0.4115 -0.8633 -0.2920
vn -0.0007 -0.8768 -0.4808
vn 0.4752 -0.8788 -0.0432
vn 0.5488 0.0334 0.8352
vn -0.7351 -0.3426 0.5849
vn -0.1762 -0.4823 0.8581
vn -0.5387 0.0776 0.8389
vn -0.7381 -0.5303 -0.4170
vn -0.8612 -0.4909 0.1316
vn -0.9917 0.0978 -0.0829
vn 0.0854 -0.5196 -0.8501
vn -0.3278 -0.6266 -0.7070
vn -0.1377 0.0078 -0.9904
vn 0.8668 -0.4967 -0.0437
vn 0.5608 -0.5908 -0.5800
vn 0.9135 -0.0305 -0.4056
vn 0.2370 0.1068 0.9656
vn -0.9091 0.1152 0.4004
vn -0.6924 0.0150 -0.7213
vn 0.3949 0.0524 -0.9172
vn 0.9119 -0.0332 0.4090
vn -0.1181 0.5414 0.8324
vn 0.3270 0.4875 0.8096
vn -0.1154 0.8722 0.4752
vn -0.8451 0.5067 0.1704
vn -0.6501 0.5779 0.4933
vn -0.4638 0.8830 0.0728
vn -0.3123 0.6428 -0.6994
vn -0.6786 0.6799 -0.2779
vn -0.2101 0.9021 -0.3768
vn 0.5846 0.4625 -0.6665
vn 0.0699 0.6286 -0.7746
vn 0.1623 0.9222 -0.3510
vn 0.5995 0.4021 0.6920
vn 0.7462 0.6614 -0.0753
vn 0.2261 0.9190 0.3230
vn -0.1544 0.9879 0.0116
usemtl Leaves_Bush
s 1
f 1/1/1 14/2/2 13/3/3
f 2/4/4 14/5/2 16/6/5
f 1/7/1 13/8/3 18/9/6
f 1/10/1 18/11/6 20/12/7
f 1/13/1 20/14/7 17/15/8
f 2/4/4 16/6/5 23/16/9
f 3/17/10 15/18/11 25/19/12
f 4/20/13 19/21/14 27/22/15
f 5/23/16 21/24/17 29/25/18
f 6/26/19 22/27/20 31/28/21
f 2/4/4 23/16/9 26/29/22
f 3/17/10 25/19/12 28/30/23
f 4/20/13 27/22/15 30/31/24
f 5/23/16 29/25/18 32/32/25
f 6/26/19 31/28/21 24/33/26
f 7/34/27 33/35/28 38/36/29
f 8/37/30 34/38/31 40/39/32
f 9/40/33 35/41/34 41/42/35
f 10/43/36 36/44/37 42/45/38
f 11/46/39 37/47/40 39/48/41
f 39/48/41 42/49/38 12/50/42
f 39/48/41 37/47/40 42/49/38
f 37/47/40 10/43/36 42/49/38
f 42/45/38 41/51/35 12/52/42
f 42/45/38 36/44/37 41/51/35
f 36/44/37 9/40/33 41/51/35
f 41/42/35 40/53/32 12/54/42
f 41/42/35 35/41/34 40/53/32
f 35/41/34 8/55/30 40/53/32
f 40/39/32 38/56/29 12/57/42
f 40/39/32 34/38/31 38/56/29
f 34/38/31 7/34/27 38/56/29
f 38/36/29 39/58/41 12/59/42
f 38/36/29 33/35/28 39/58/41
f 33/35/28 11/46/39 39/58/41
f 24/33/26 37/47/40 11/46/39
f 24/33/26 31/28/21 37/47/40
f 31/28/21 10/43/36 37/47/40
f 32/32/25 36/44/37 10/43/36
f 32/32/25 29/25/18 36/44/37
f 29/25/18 9/40/33 36/44/37
f 30/31/24 35/41/34 9/40/33
f 30/31/24 27/22/15 35/41/34
f 27/22/15 8/55/30 35/41/34
f 28/30/23 34/38/31 8/37/30
f 28/30/23 25/19/12 34/38/31
f 25/19/12 7/34/27 34/38/31
f 26/29/22 33/35/28 7/34/27
f 26/29/22 23/16/9 33/35/28
f 23/16/9 11/46/39 33/35/28
f 31/28/21 32/32/25 10/43/36
f 31/28/21 22/27/20 32/32/25
f 22/27/20 5/23/16 32/32/25
f 29/25/18 30/31/24 9/40/33
f 29/25/18 21/24/17 30/31/24
f 21/24/17 4/20/13 30/31/24
f 27/22/15 28/60/23 8/55/30
f 27/22/15 19/21/14 28/60/23
f 19/21/14 3/61/10 28/60/23
f 25/19/12 26/29/22 7/34/27
f 25/19/12 15/18/11 26/29/22
f 15/18/11 2/4/4 26/29/22
f 23/16/9 24/33/26 11/46/39
f 23/16/9 16/6/5 24/33/26
f 16/6/5 6/26/19 24/33/26
f 17/15/8 22/27/20 6/26/19
f 17/15/8 20/14/7 22/27/20
f 20/14/7 5/23/16 22/27/20
f 20/12/7 21/24/17 5/23/16
f 20/12/7 18/11/6 21/24/17
f 18/11/6 4/20/13 21/24/17
f 18/9/6 19/21/14 4/20/13
f 18/9/6 13/8/3 19/21/14
f 13/8/3 3/61/10 19/21/14
f 16/6/5 17/62/8 6/26/19
f 16/6/5 14/5/2 17/62/8
f 14/5/2 1/63/1 17/62/8
f 13/3/3 15/18/11 3/17/10
f 13/3/3 14/2/2 15/18/11
f 14/2/2 2/4/4 15/18/11
