# Blender v2.90.0 OBJ File: 'Nature Kit.blend'
# www.blender.org
mtllib Bush_1.mtl
o Icosphere.038_Icosphere.133
v 0.065382 -0.095883 -0.029909
v 0.475364 0.131869 0.303022
v -0.127768 0.147296 0.483186
v -0.496905 0.168600 -0.057320
v -0.146616 0.153453 -0.567003
v 0.457271 0.132305 -0.301153
v 0.229891 0.721409 0.592793
v -0.402859 0.710671 0.263021
v -0.450460 0.699926 -0.412317
v 0.120252 0.644681 -0.526493
v 0.554119 0.658531 0.018949
v 0.024068 0.951378 -0.019709
v -0.042185 -0.034653 0.241679
v 0.288240 -0.033769 0.140886
v 0.197287 0.093295 0.478750
v 0.541032 0.085364 -0.013985
v 0.293250 -0.026224 -0.185692
v -0.233399 -0.015917 -0.045251
v -0.377830 0.111256 0.252198
v -0.031614 -0.030314 -0.313858
v -0.352840 0.140847 -0.361175
v 0.169837 0.137758 -0.465261
v 0.590202 0.397637 0.177639
v 0.581038 0.371638 -0.171418
v 0.047493 0.416509 0.664715
v 0.419677 0.405428 0.546504
v -0.572944 0.421157 0.138869
v -0.302249 0.436074 0.430512
v -0.347082 0.418723 -0.573215
v -0.546872 0.432834 -0.270406
v 0.337555 0.374704 -0.470267
v -0.032898 0.391278 -0.666818
v 0.451233 0.731999 0.310576
v -0.114175 0.767561 0.499056
v -0.538424 0.766484 -0.056720
v -0.188375 0.711061 -0.541055
v 0.389331 0.673106 -0.261115
v 0.143397 0.919501 0.300002
v 0.342915 0.899255 0.021760
v -0.239595 0.935520 0.160959
v -0.268951 0.923467 -0.244627
v 0.077358 0.867995 -0.299294
vt 0.818181 0.000000
vt 0.772726 0.078731
vt 0.863635 0.078731
vt 0.727272 0.157461
vt 0.681818 0.078731
vt 0.636363 0.157461
vt 0.090909 0.000000
vt 0.045454 0.078731
vt 0.136363 0.078731
vt 0.272727 0.000000
vt 0.227273 0.078731
vt 0.318182 0.078731
vt 0.454545 0.000000
vt 0.409090 0.078731
vt 0.500000 0.078731
vt 0.681818 0.236191
vt 0.909090 0.157461
vt 0.818181 0.157461
vt 0.863635 0.236191
vt 0.181818 0.157461
vt 0.090909 0.157461
vt 0.136363 0.236191
vt 0.363636 0.157461
vt 0.272727 0.157461
vt 0.318182 0.236191
vt 0.545454 0.157461
vt 0.454545 0.157461
vt 0.500000 0.236191
vt 0.772726 0.236191
vt 0.954545 0.236191
vt 0.227273 0.236191
vt 0.409090 0.236191
vt 0.590909 0.236191
vt 0.818181 0.314921
vt 0.727272 0.314921
vt 0.772726 0.393651
vt 1.000000 0.314921
vt 0.909091 0.314921
vt 0.954545 0.393651
vt 0.272727 0.314921
vt 0.181818 0.314921
vt 0.227273 0.393651
vt 0.454545 0.314921
vt 0.363636 0.314921
vt 0.409090 0.393651
vt 0.636363 0.314921
vt 0.545454 0.314921
vt 0.590909 0.393651
vt 0.500000 0.393651
vt 0.545454 0.472382
vt 0.318182 0.393651
vt 0.363636 0.472382
vt 0.136363 0.393651
vt 0.181818 0.472382
vt 0.090909 0.314921
vt 0.863635 0.393651
vt 0.909090 0.472382
vt 0.681818 0.393651
vt 0.727272 0.472382
vt 0.045454 0.236191
vt 0.000000 0.157461
vt 0.590909 0.078731
vt 0.636363 0.000000
vn -0.0033 -0.9999 -0.0099
vn 0.3140 -0.9249 0.2144
vn -0.1589 -0.9243 0.3469
vn 0.7039 -0.5637 0.4320
vn 0.8017 -0.5971 -0.0272
vn -0.4216 -0.9060 -0.0371
vn -0.0869 -0.9074 -0.4110
vn 0.3386 -0.8912 -0.3017
vn 0.9753 -0.0017 0.2207
vn -0.3731 -0.5521 0.7456
vn 0.1925 -0.7008 0.6869
vn -0.1343 -0.1028 0.9856
vn -0.8133 -0.5788 -0.0588
vn -0.6455 -0.6190 0.4472
vn -0.9377 -0.0684 0.3405
vn -0.1964 -0.6105 -0.7673
vn -0.6290 -0.6517 -0.4238
vn -0.5829 -0.0808 -0.8085
vn 0.6652 -0.4878 -0.5652
vn 0.3268 -0.5830 -0.7438
vn 0.6159 0.0144 -0.7877
vn 0.6580 -0.0872 0.7479
vn -0.6512 -0.0194 0.7587
vn -0.9384 -0.1273 -0.3211
vn 0.1060 -0.0369 -0.9937
vn 0.9325 0.0432 -0.3584
vn 0.2842 0.5262 0.8014
vn 0.7484 0.5542 0.3644
vn 0.1673 0.9253 0.3404
vn -0.7120 0.4186 0.5637
vn -0.3729 0.5585 0.7409
vn -0.3503 0.8966 0.2708
vn -0.6982 0.4378 -0.5664
vn -0.8497 0.5262 0.0315
vn -0.2671 0.9102 -0.3163
vn 0.3867 0.4942 -0.7786
vn -0.1312 0.5723 -0.8094
vn 0.2626 0.8354 -0.4828
vn 0.8933 0.4379 -0.1014
vn 0.6622 0.5184 -0.5410
vn 0.5078 0.8548 -0.1066
vn 0.0783 0.9934 -0.0840
usemtl Leaves_Bush
s 1
f 1/1/1 14/2/2 13/3/3
f 2/4/4 14/5/2 16/6/5
f 1/7/1 13/8/3 18/9/6
f 1/10/1 18/11/6 20/12/7
f 1/13/1 20/14/7 17/15/8
f 2/4/4 16/6/5 23/16/9
f 3/17/10 15/18/11 25/19/12
f 4/20/13 19/21/14 27/22/15
f 5/23/16 21/24/17 29/25/18
f 6/26/19 22/27/20 31/28/21
f 2/4/4 23/16/9 26/29/22
f 3/17/10 25/19/12 28/30/23
f 4/20/13 27/22/15 30/31/24
f 5/23/16 29/25/18 32/32/25
f 6/26/19 31/28/21 24/33/26
f 7/34/27 33/35/28 38/36/29
f 8/37/30 34/38/31 40/39/32
f 9/40/33 35/41/34 41/42/35
f 10/43/36 36/44/37 42/45/38
f 11/46/39 37/47/40 39/48/41
f 39/48/41 42/49/38 12/50/42
f 39/48/41 37/47/40 42/49/38
f 37/47/40 10/43/36 42/49/38
f 42/45/38 41/51/35 12/52/42
f 42/45/38 36/44/37 41/51/35
f 36/44/37 9/40/33 41/51/35
f 41/42/35 40/53/32 12/54/42
f 41/42/35 35/41/34 40/53/32
f 35/41/34 8/55/30 40/53/32
f 40/39/32 38/56/29 12/57/42
f 40/39/32 34/38/31 38/56/29
f 34/38/31 7/34/27 38/56/29
f 38/36/29 39/58/41 12/59/42
f 38/36/29 33/35/28 39/58/41
f 33/35/28 11/46/39 39/58/41
f 24/33/26 37/47/40 11/46/39
f 24/33/26 31/28/21 37/47/40
f 31/28/21 10/43/36 37/47/40
f 32/32/25 36/44/37 10/43/36
f 32/32/25 29/25/18 36/44/37
f 29/25/18 9/40/33 36/44/37
f 30/31/24 35/41/34 9/40/33
f 30/31/24 27/22/15 35/41/34
f 27/22/15 8/55/30 35/41/34
f 28/30/23 34/38/31 8/37/30
f 28/30/23 25/19/12 34/38/31
f 25/19/12 7/34/27 34/38/31
f 26/29/22 33/35/28 7/34/27
f 26/29/22 23/16/9 33/35/28
f 23/16/9 11/46/39 33/35/28
f 31/28/21 32/32/25 10/43/36
f 31/28/21 22/27/20 32/32/25
f 22/27/20 5/23/16 32/32/25
f 29/25/18 30/31/24 9/40/33
f 29/25/18 21/24/17 30/31/24
f 21/24/17 4/20/13 30/31/24
f 27/22/15 28/60/23 8/55/30
f 27/22/15 19/21/14 28/60/23
f 19/21/14 3/61/10 28/60/23
f 25/19/12 26/29/22 7/34/27
f 25/19/12 15/18/11 26/29/22
f 15/18/11 2/4/4 26/29/22
f 23/16/9 24/33/26 11/46/39
f 23/16/9 16/6/5 24/33/26
f 16/6/5 6/26/19 24/33/26
f 17/15/8 22/27/20 6/26/19
f 17/15/8 20/14/7 22/27/20
f 20/14/7 5/23/16 22/27/20
f 20/12/7 21/24/17 5/23/16
f 20/12/7 18/11/6 21/24/17
f 18/11/6 4/20/13 21/24/17
f 18/9/6 19/21/14 4/20/13
f 18/9/6 13/8/3 19/21/14
f 13/8/3 3/61/10 19/21/14
f 16/6/5 17/62/8 6/26/19
f 16/6/5 14/5/2 17/62/8
f 14/5/2 1/63/1 17/62/8
f 13/3/3 15/18/11 3/17/10
f 13/3/3 14/2/2 15/18/11
f 14/2/2 2/4/4 15/18/11
