# Blender v2.90.0 OBJ File: 'Nature Kit.blend'
# www.blender.org
mtllib Bush_4.mtl
o Icosphere.036_Icosphere.131
v -0.032136 -0.050488 0.009361
v 0.347091 0.140129 0.315065
v -0.237531 0.048865 0.619328
v -0.669898 0.111693 -0.009283
v -0.200047 0.174801 -0.521696
v 0.283955 0.227128 -0.246457
v 0.169362 0.740876 0.610330
v -0.536595 0.710207 0.374135
v -0.495976 0.766199 -0.336970
v 0.092475 0.687449 -0.421646
v 0.232761 0.659204 0.102166
v -0.052648 0.967200 0.085493
v -0.118060 -0.060143 0.287234
v 0.180050 -0.007158 0.164447
v 0.183360 0.006370 0.533531
v 0.255899 0.175545 0.070377
v 0.103876 0.036635 -0.033709
v -0.335242 -0.064276 0.005292
v -0.545810 0.027205 0.360431
v -0.120557 -0.015543 -0.259571
v -0.484057 0.093333 -0.331281
v 0.111356 0.163772 -0.438471
v 0.396187 0.418074 0.288373
v 0.267101 0.430387 -0.008511
v -0.078557 0.405737 0.753930
v 0.335598 0.416576 0.579159
v -0.770923 0.436482 0.228369
v -0.469542 0.402393 0.591349
v -0.414135 0.467420 -0.532333
v -0.716322 0.462165 -0.229012
v 0.217206 0.449114 -0.379272
v -0.033685 0.465541 -0.574038
v 0.293388 0.765198 0.364103
v -0.221736 0.772002 0.589776
v -0.575799 0.778662 0.013284
v -0.182035 0.775015 -0.456335
v 0.215358 0.683305 -0.203141
v 0.028866 0.938081 0.338077
v 0.099448 0.874126 0.088589
v -0.293205 0.904927 0.214996
v -0.272342 0.930070 -0.154498
v 0.032279 0.885820 -0.234759
vt 0.818181 0.000000
vt 0.772726 0.078731
vt 0.863635 0.078731
vt 0.727272 0.157461
vt 0.681818 0.078731
vt 0.636363 0.157461
vt 0.090909 0.000000
vt 0.045454 0.078731
vt 0.136363 0.078731
vt 0.272727 0.000000
vt 0.227273 0.078731
vt 0.318182 0.078731
vt 0.454545 0.000000
vt 0.409090 0.078731
vt 0.500000 0.078731
vt 0.681818 0.236191
vt 0.909090 0.157461
vt 0.818181 0.157461
vt 0.863635 0.236191
vt 0.181818 0.157461
vt 0.090909 0.157461
vt 0.136363 0.236191
vt 0.363636 0.157461
vt 0.272727 0.157461
vt 0.318182 0.236191
vt 0.545454 0.157461
vt 0.454545 0.157461
vt 0.500000 0.236191
vt 0.772726 0.236191
vt 0.954545 0.236191
vt 0.227273 0.236191
vt 0.409090 0.236191
vt 0.590909 0.236191
vt 0.818181 0.314921
vt 0.727272 0.314921
vt 0.772726 0.393651
vt 1.000000 0.314921
vt 0.909091 0.314921
vt 0.954545 0.393651
vt 0.272727 0.314921
vt 0.181818 0.314921
vt 0.227273 0.393651
vt 0.454545 0.314921
vt 0.363636 0.314921
vt 0.409090 0.393651
vt 0.636363 0.314921
vt 0.545454 0.314921
vt 0.590909 0.393651
vt 0.500000 0.393651
vt 0.545454 0.472382
vt 0.318182 0.393651
vt 0.363636 0.472382
vt 0.136363 0.393651
vt 0.181818 0.472382
vt 0.090909 0.314921
vt 0.863635 0.393651
vt 0.909090 0.472382
vt 0.681818 0.393651
vt 0.727272 0.472382
vt 0.045454 0.236191
vt 0.000000 0.157461
vt 0.590909 0.078731
vt 0.636363 0.000000
vn 0.2387 -0.9596 -0.1490
vn 0.5403 -0.8219 -0.1804
vn 0.0032 -0.9908 0.1349
vn 0.8968 -0.4423 -0.0102
vn 0.8843 -0.3913 -0.2545
vn -0.2160 -0.9712 -0.1004
vn 0.1188 -0.9167 -0.3814
vn 0.5633 -0.7806 -0.2708
vn 0.9917 0.0578 -0.1149
vn -0.2208 -0.6489 0.7281
vn 0.4412 -0.7276 0.5253
vn -0.0029 -0.0061 1.0000
vn -0.7900 -0.5986 -0.1325
vn -0.5994 -0.7025 0.3834
vn -0.9600 0.0843 0.2671
vn -0.0826 -0.5164 -0.8523
vn -0.5141 -0.6511 -0.5583
vn -0.4405 0.0525 -0.8962
vn 0.9081 -0.3289 -0.2590
vn 0.5095 -0.5445 -0.6662
vn 0.8388 0.1067 -0.5338
vn 0.7787 -0.0108 0.6273
vn -0.6023 0.0269 0.7978
vn -0.9083 0.0782 -0.4109
vn 0.2521 0.0822 -0.9642
vn 0.9788 0.0972 -0.1802
vn 0.4153 0.5528 0.7224
vn 0.8121 0.5797 0.0665
vn 0.2019 0.9475 0.2478
vn -0.6514 0.6020 0.4618
vn -0.2782 0.6399 0.7163
vn -0.3446 0.9154 0.2080
vn -0.5682 0.6375 -0.5202
vn -0.6976 0.7165 0.0000
vn -0.2210 0.9491 -0.2243
vn 0.5618 0.4804 -0.6735
vn -0.0253 0.6484 -0.7608
vn 0.4209 0.8330 -0.3590
vn 0.8961 0.3811 -0.2275
vn 0.8881 0.4064 -0.2148
vn 0.6648 0.7378 -0.1163
vn 0.1495 0.9886 -0.0192
usemtl Leaves_Bush
s 1
f 1/1/1 14/2/2 13/3/3
f 2/4/4 14/5/2 16/6/5
f 1/7/1 13/8/3 18/9/6
f 1/10/1 18/11/6 20/12/7
f 1/13/1 20/14/7 17/15/8
f 2/4/4 16/6/5 23/16/9
f 3/17/10 15/18/11 25/19/12
f 4/20/13 19/21/14 27/22/15
f 5/23/16 21/24/17 29/25/18
f 6/26/19 22/27/20 31/28/21
f 2/4/4 23/16/9 26/29/22
f 3/17/10 25/19/12 28/30/23
f 4/20/13 27/22/15 30/31/24
f 5/23/16 29/25/18 32/32/25
f 6/26/19 31/28/21 24/33/26
f 7/34/27 33/35/28 38/36/29
f 8/37/30 34/38/31 40/39/32
f 9/40/33 35/41/34 41/42/35
f 10/43/36 36/44/37 42/45/38
f 11/46/39 37/47/40 39/48/41
f 39/48/41 42/49/38 12/50/42
f 39/48/41 37/47/40 42/49/38
f 37/47/40 10/43/36 42/49/38
f 42/45/38 41/51/35 12/52/42
f 42/45/38 36/44/37 41/51/35
f 36/44/37 9/40/33 41/51/35
f 41/42/35 40/53/32 12/54/42
f 41/42/35 35/41/34 40/53/32
f 35/41/34 8/55/30 40/53/32
f 40/39/32 38/56/29 12/57/42
f 40/39/32 34/38/31 38/56/29
f 34/38/31 7/34/27 38/56/29
f 38/36/29 39/58/41 12/59/42
f 38/36/29 33/35/28 39/58/41
f 33/35/28 11/46/39 39/58/41
f 24/33/26 37/47/40 11/46/39
f 24/33/26 31/28/21 37/47/40
f 31/28/21 10/43/36 37/47/40
f 32/32/25 36/44/37 10/43/36
f 32/32/25 29/25/18 36/44/37
f 29/25/18 9/40/33 36/44/37
f 30/31/24 35/41/34 9/40/33
f 30/31/24 27/22/15 35/41/34
f 27/22/15 8/55/30 35/41/34
f 28/30/23 34/38/31 8/37/30
f 28/30/23 25/19/12 34/38/31
f 25/19/12 7/34/27 34/38/31
f 26/29/22 33/35/28 7/34/27
f 26/29/22 23/16/9 33/35/28
f 23/16/9 11/46/39 33/35/28
f 31/28/21 32/32/25 10/43/36
f 31/28/21 22/27/20 32/32/25
f 22/27/20 5/23/16 32/32/25
f 29/25/18 30/31/24 9/40/33
f 29/25/18 21/24/17 30/31/24
f 21/24/17 4/20/13 30/31/24
f 27/22/15 28/60/23 8/55/30
f 27/22/15 19/21/14 28/60/23
f 19/21/14 3/61/10 28/60/23
f 25/19/12 26/29/22 7/34/27
f 25/19/12 15/18/11 26/29/22
f 15/18/11 2/4/4 26/29/22
f 23/16/9 24/33/26 11/46/39
f 23/16/9 16/6/5 24/33/26
f 16/6/5 6/26/19 24/33/26
f 17/15/8 22/27/20 6/26/19
f 17/15/8 20/14/7 22/27/20
f 20/14/7 5/23/16 22/27/20
f 20/12/7 21/24/17 5/23/16
f 20/12/7 18/11/6 21/24/17
f 18/11/6 4/20/13 21/24/17
f 18/9/6 19/21/14 4/20/13
f 18/9/6 13/8/3 19/21/14
f 13/8/3 3/61/10 19/21/14
f 16/6/5 17/62/8 6/26/19
f 16/6/5 14/5/2 17/62/8
f 14/5/2 1/63/1 17/62/8
f 13/3/3 15/18/11 3/17/10
f 13/3/3 14/2/2 15/18/11
f 14/2/2 2/4/4 15/18/11
