# Blender v2.90.0 OBJ File: 'Nature Kit.blend'
# www.blender.org
mtllib Bush_2.mtl
o Icosphere.035_Icosphere.130
v 0.007801 -0.059109 0.006078
v 0.571694 0.179172 0.322531
v -0.046322 0.186488 0.586313
v -0.514096 0.192617 0.006239
v -0.151366 0.197373 -0.483487
v 0.589647 0.165817 -0.327653
v 0.302007 0.666830 0.645139
v -0.422617 0.630191 0.316382
v -0.416247 0.627511 -0.302363
v 0.168842 0.626951 -0.491668
v 0.680149 0.641733 0.004193
v 0.007888 0.884593 0.005314
v -0.095758 0.013903 0.325248
v 0.285885 -0.001726 0.207756
v 0.277947 0.138483 0.572399
v 0.660721 0.130732 0.006111
v 0.294006 -0.022441 -0.202622
v -0.330358 0.009344 0.006082
v -0.385938 0.161775 0.291876
v -0.097075 0.008548 -0.316282
v -0.392924 0.155710 -0.285309
v 0.162956 0.148519 -0.475552
v 0.730523 0.408567 0.197493
v 0.749964 0.410311 -0.195248
v 0.115509 0.404294 0.744774
v 0.504809 0.405797 0.608688
v -0.556813 0.408987 0.189047
v -0.240364 0.408178 0.573474
v -0.341051 0.409487 -0.474608
v -0.566624 0.409278 -0.180550
v 0.374601 0.410199 -0.501981
v 0.007549 0.409605 -0.581464
v 0.559556 0.684162 0.312118
v -0.053017 0.694586 0.595462
v -0.491422 0.665236 0.005536
v -0.142936 0.657714 -0.458016
v 0.550655 0.680283 -0.299212
v 0.119572 0.855545 0.348882
v 0.479630 0.825340 0.004569
v -0.275183 0.827947 0.209389
v -0.267324 0.812915 -0.194317
v 0.112551 0.811355 -0.316885
vt 0.818181 0.000000
vt 0.772726 0.078731
vt 0.863635 0.078731
vt 0.727272 0.157461
vt 0.681818 0.078731
vt 0.636363 0.157461
vt 0.090909 0.000000
vt 0.045454 0.078731
vt 0.136363 0.078731
vt 0.272727 0.000000
vt 0.227273 0.078731
vt 0.318182 0.078731
vt 0.454545 0.000000
vt 0.409090 0.078731
vt 0.500000 0.078731
vt 0.681818 0.236191
vt 0.909090 0.157461
vt 0.818181 0.157461
vt 0.863635 0.236191
vt 0.181818 0.157461
vt 0.090909 0.157461
vt 0.136363 0.236191
vt 0.363636 0.157461
vt 0.272727 0.157461
vt 0.318182 0.236191
vt 0.545454 0.157461
vt 0.454545 0.157461
vt 0.500000 0.236191
vt 0.772726 0.236191
vt 0.954545 0.236191
vt 0.227273 0.236191
vt 0.409090 0.236191
vt 0.590909 0.236191
vt 0.818181 0.314921
vt 0.727272 0.314921
vt 0.772726 0.393651
vt 1.000000 0.314921
vt 0.909091 0.314921
vt 0.954545 0.393651
vt 0.272727 0.314921
vt 0.181818 0.314921
vt 0.227273 0.393651
vt 0.454545 0.314921
vt 0.363636 0.314921
vt 0.409090 0.393651
vt 0.636363 0.314921
vt 0.545454 0.314921
vt 0.590909 0.393651
vt 0.500000 0.393651
vt 0.545454 0.472382
vt 0.318182 0.393651
vt 0.363636 0.472382
vt 0.136363 0.393651
vt 0.181818 0.472382
vt 0.090909 0.314921
vt 0.863635 0.393651
vt 0.909090 0.472382
vt 0.681818 0.393651
vt 0.727272 0.472382
vt 0.045454 0.236191
vt 0.000000 0.157461
vt 0.590909 0.078731
vt 0.636363 0.000000
vn -0.0434 -0.9988 0.0211
vn 0.2446 -0.9431 0.2249
vn -0.2134 -0.8928 0.3967
vn 0.6630 -0.6322 0.4010
vn 0.7360 -0.6757 0.0420
vn -0.4871 -0.8732 0.0132
vn -0.1869 -0.8639 -0.4677
vn 0.2322 -0.9341 -0.2710
vn 0.9570 -0.0041 0.2899
vn -0.3023 -0.6042 0.7372
vn 0.2417 -0.7177 0.6530
vn -0.0604 -0.0886 0.9942
vn -0.8548 -0.5186 0.0194
vn -0.6595 -0.5748 0.4843
vn -0.9418 -0.0243 0.3353
vn -0.2776 -0.4931 -0.8244
vn -0.6455 -0.5907 -0.4841
vn -0.5678 -0.0018 -0.8231
vn 0.6139 -0.5218 -0.5923
vn 0.1363 -0.5734 -0.8078
vn 0.3984 0.0256 -0.9168
vn 0.6652 -0.0646 0.7438
vn -0.6079 -0.0602 0.7917
vn -0.9509 -0.0067 -0.3093
vn -0.0429 0.0115 -0.9990
vn 0.9310 0.0315 -0.3636
vn 0.3059 0.5905 0.7468
vn 0.6662 0.6449 0.3745
vn 0.0660 0.9483 0.3105
vn -0.7450 0.4440 0.4976
vn -0.3113 0.6036 0.7340
vn -0.4366 0.8691 0.2324
vn -0.6818 0.5113 -0.5231
vn -0.8199 0.5723 -0.0097
vn -0.3894 0.8664 -0.3124
vn 0.1564 0.5083 -0.8468
vn -0.2477 0.5757 -0.7792
vn 0.0661 0.8718 -0.4854
vn 0.8398 0.5428 0.0035
vn 0.5668 0.5958 -0.5690
vn 0.4265 0.9039 -0.0332
vn -0.0327 0.9976 -0.0609
usemtl Leaves_Bush
s 1
f 1/1/1 14/2/2 13/3/3
f 2/4/4 14/5/2 16/6/5
f 1/7/1 13/8/3 18/9/6
f 1/10/1 18/11/6 20/12/7
f 1/13/1 20/14/7 17/15/8
f 2/4/4 16/6/5 23/16/9
f 3/17/10 15/18/11 25/19/12
f 4/20/13 19/21/14 27/22/15
f 5/23/16 21/24/17 29/25/18
f 6/26/19 22/27/20 31/28/21
f 2/4/4 23/16/9 26/29/22
f 3/17/10 25/19/12 28/30/23
f 4/20/13 27/22/15 30/31/24
f 5/23/16 29/25/18 32/32/25
f 6/26/19 31/28/21 24/33/26
f 7/34/27 33/35/28 38/36/29
f 8/37/30 34/38/31 40/39/32
f 9/40/33 35/41/34 41/42/35
f 10/43/36 36/44/37 42/45/38
f 11/46/39 37/47/40 39/48/41
f 39/48/41 42/49/38 12/50/42
f 39/48/41 37/47/40 42/49/38
f 37/47/40 10/43/36 42/49/38
f 42/45/38 41/51/35 12/52/42
f 42/45/38 36/44/37 41/51/35
f 36/44/37 9/40/33 41/51/35
f 41/42/35 40/53/32 12/54/42
f 41/42/35 35/41/34 40/53/32
f 35/41/34 8/55/30 40/53/32
f 40/39/32 38/56/29 12/57/42
f 40/39/32 34/38/31 38/56/29
f 34/38/31 7/34/27 38/56/29
f 38/36/29 39/58/41 12/59/42
f 38/36/29 33/35/28 39/58/41
f 33/35/28 11/46/39 39/58/41
f 24/33/26 37/47/40 11/46/39
f 24/33/26 31/28/21 37/47/40
f 31/28/21 10/43/36 37/47/40
f 32/32/25 36/44/37 10/43/36
f 32/32/25 29/25/18 36/44/37
f 29/25/18 9/40/33 36/44/37
f 30/31/24 35/41/34 9/40/33
f 30/31/24 27/22/15 35/41/34
f 27/22/15 8/55/30 35/41/34
f 28/30/23 34/38/31 8/37/30
f 28/30/23 25/19/12 34/38/31
f 25/19/12 7/34/27 34/38/31
f 26/29/22 33/35/28 7/34/27
f 26/29/22 23/16/9 33/35/28
f 23/16/9 11/46/39 33/35/28
f 31/28/21 32/32/25 10/43/36
f 31/28/21 22/27/20 32/32/25
f 22/27/20 5/23/16 32/32/25
f 29/25/18 30/31/24 9/40/33
f 29/25/18 21/24/17 30/31/24
f 21/24/17 4/20/13 30/31/24
f 27/22/15 28/60/23 8/55/30
f 27/22/15 19/21/14 28/60/23
f 19/21/14 3/61/10 28/60/23
f 25/19/12 26/29/22 7/34/27
f 25/19/12 15/18/11 26/29/22
f 15/18/11 2/4/4 26/29/22
f 23/16/9 24/33/26 11/46/39
f 23/16/9 16/6/5 24/33/26
f 16/6/5 6/26/19 24/33/26
f 17/15/8 22/27/20 6/26/19
f 17/15/8 20/14/7 22/27/20
f 20/14/7 5/23/16 22/27/20
f 20/12/7 21/24/17 5/23/16
f 20/12/7 18/11/6 21/24/17
f 18/11/6 4/20/13 21/24/17
f 18/9/6 19/21/14 4/20/13
f 18/9/6 13/8/3 19/21/14
f 13/8/3 3/61/10 19/21/14
f 16/6/5 17/62/8 6/26/19
f 16/6/5 14/5/2 17/62/8
f 14/5/2 1/63/1 17/62/8
f 13/3/3 15/18/11 3/17/10
f 13/3/3 14/2/2 15/18/11
f 14/2/2 2/4/4 15/18/11
