# Blender v2.90.0 OBJ File: 'Nature Kit.blend'
# www.blender.org
mtllib Cattail_2.mtl
o Sphere.021_Sphere.029
v -0.003890 0.596519 -0.021798
v -0.012504 0.335472 -0.026716
v -0.012740 0.322750 -0.017136
v 0.009108 0.594639 -0.014250
v 0.015131 0.580589 -0.018726
v 0.008745 0.335256 -0.014502
v 0.000392 0.322616 -0.009587
v 0.009175 0.594889 0.000896
v 0.015239 0.580995 0.005781
v 0.008799 0.335672 0.010004
v 0.000425 0.322873 0.005558
v -0.003756 0.597020 0.008493
v -0.005683 0.584442 0.018073
v -0.012396 0.336304 0.022297
v -0.012674 0.323264 0.013156
v -0.012805 0.318087 -0.001906
v -0.003071 0.601633 -0.006736
v -0.016754 0.598900 0.000945
v -0.026714 0.587484 0.005859
v -0.033645 0.336520 0.010083
v -0.025806 0.323398 0.005607
v -0.016821 0.598649 -0.014201
v -0.026823 0.587079 -0.018647
v -0.033699 0.336104 -0.014423
v -0.025840 0.323141 -0.009539
v -0.005900 0.583632 -0.030940
v 0.010094 0.458663 -0.016614
v 0.010163 0.459077 0.007893
v -0.010995 0.460491 0.020185
v -0.032221 0.461491 0.007971
v -0.032290 0.461077 -0.016535
v -0.011133 0.459663 -0.028828
vt 0.666667 0.117969
vt 0.666667 0.261328
vt 0.500000 0.261328
vt 0.500000 0.117969
vt 0.666667 0.781641
vt 0.666667 0.880078
vt 0.500000 0.880078
vt 0.500000 0.781641
vt 0.583333 0.000000
vt 0.666667 0.521484
vt 0.500000 0.521484
vt 0.583333 1.000000
vt 0.333333 0.781641
vt 0.333333 0.521484
vt 0.416667 1.000000
vt 0.333333 0.880078
vt 0.333333 0.261328
vt 0.333333 0.117969
vt 0.416667 0.000000
vt 0.166667 0.781641
vt 0.166667 0.521484
vt 0.250000 1.000000
vt 0.166667 0.880078
vt 0.166667 0.261328
vt 0.166667 0.117969
vt 0.250000 0.000000
vt 0.000000 0.781641
vt 0.000000 0.521484
vt 0.083333 1.000000
vt 0.000000 0.880078
vt 0.000000 0.261328
vt 0.000000 0.117969
vt 0.083333 0.000000
vt 1.000000 0.521484
vt 1.000000 0.781641
vt 0.833333 0.781641
vt 0.833333 0.521484
vt 1.000000 0.880078
vt 0.916667 1.000000
vt 0.833333 0.880078
vt 1.000000 0.117969
vt 1.000000 0.261328
vt 0.833333 0.261328
vt 0.833333 0.117969
vt 0.916667 0.000000
vt 0.750000 1.000000
vt 0.750000 0.000000
vn -0.0166 -0.7735 -0.6335
vn -0.0063 -0.2996 -0.9540
vn 0.8250 -0.3044 -0.4761
vn 0.5439 -0.7792 -0.3113
vn 0.0194 0.2652 -0.9640
vn 0.1137 0.7430 -0.6595
vn 0.6685 0.6628 -0.3373
vn 0.8510 0.1930 -0.4883
vn -0.0199 -0.9996 0.0170
vn -0.0080 -0.0168 -0.9998
vn 0.8632 -0.0312 -0.5040
vn 0.1528 0.9881 -0.0170
vn 0.8549 0.2091 0.4747
vn 0.8662 -0.0142 0.4995
vn 0.6714 0.6735 0.3092
vn 0.8272 -0.2881 0.4823
vn 0.5453 -0.7682 0.3352
vn 0.0271 0.2973 0.9544
vn -0.0019 0.0171 0.9998
vn 0.1194 0.7644 0.6335
vn -0.0018 -0.2670 0.9637
vn -0.0138 -0.7515 0.6595
vn -0.7974 0.3725 0.4747
vn -0.8656 0.0322 0.4996
vn -0.4354 0.8447 0.3113
vn -0.8337 -0.2621 0.4861
vn -0.5744 -0.7458 0.3373
vn -0.8012 0.3566 -0.4805
vn -0.8686 0.0154 -0.4952
vn -0.4383 0.8340 -0.3352
vn -0.8359 -0.2784 -0.4729
vn -0.5758 -0.7568 -0.3092
usemtl Cattail
s 1
f 3/1/1 2/2/2 6/3/3 7/4/4
f 26/5/5 1/6/6 4/7/7 5/8/8
f 16/9/9 3/1/1 7/4/4
f 32/10/10 26/5/5 5/8/8 27/11/11
f 1/6/6 17/12/12 4/7/7
f 27/11/11 5/8/8 9/13/13 28/14/14
f 4/7/7 17/15/12 8/16/15
f 7/4/4 6/3/3 10/17/16 11/18/17
f 5/8/8 4/7/7 8/16/15 9/13/13
f 16/19/9 7/4/4 11/18/17
f 28/14/14 9/13/13 13/20/18 29/21/19
f 8/16/15 17/22/12 12/23/20
f 11/18/17 10/17/16 14/24/21 15/25/22
f 9/13/13 8/16/15 12/23/20 13/20/18
f 16/26/9 11/18/17 15/25/22
f 29/21/19 13/20/18 19/27/23 30/28/24
f 12/23/20 17/29/12 18/30/25
f 15/25/22 14/24/21 20/31/26 21/32/27
f 13/20/18 12/23/20 18/30/25 19/27/23
f 16/33/9 15/25/22 21/32/27
f 30/34/24 19/35/23 23/36/28 31/37/29
f 18/38/25 17/39/12 22/40/30
f 21/41/27 20/42/26 24/43/31 25/44/32
f 19/35/23 18/38/25 22/40/30 23/36/28
f 16/45/9 21/41/27 25/44/32
f 31/37/29 23/36/28 26/5/5 32/10/10
f 22/40/30 17/46/12 1/6/6
f 25/44/32 24/43/31 2/2/2 3/1/1
f 23/36/28 22/40/30 1/6/6 26/5/5
f 16/47/9 25/44/32 3/1/1
f 24/43/31 31/37/29 32/10/10 2/2/2
f 20/42/26 30/34/24 31/37/29 24/43/31
f 14/24/21 29/21/19 30/28/24 20/31/26
f 10/17/16 28/14/14 29/21/19 14/24/21
f 6/3/3 27/11/11 28/14/14 10/17/16
f 2/2/2 32/10/10 27/11/11 6/3/3
o Cube.081_Cube.262
v 0.006846 -0.002743 0.004341
v 0.006084 0.690893 -0.007838
v -0.005058 -0.002077 0.007416
v 0.003893 -0.001605 -0.007416
v -0.008010 -0.000939 -0.004341
v -0.007528 0.263698 0.002001
v -0.001407 0.557434 -0.001683
v -0.011397 0.558761 0.000588
v -0.018282 0.261650 0.004832
v -0.013940 0.559506 -0.008573
v -0.021061 0.263153 -0.005587
v -0.003950 0.558179 -0.010844
v -0.010306 0.265201 -0.008418
vt 0.500000 0.664062
vt 0.250000 1.000000
vt 0.250000 0.664062
vt 0.000000 1.000000
vt 0.000000 0.664062
vt 1.000000 0.664062
vt 0.750000 1.000000
vt 0.750000 0.664062
vt 0.500000 1.000000
vt 0.750000 0.000000
vt 0.750000 0.335938
vt 0.500000 0.335938
vt 0.500000 0.000000
vt 1.000000 0.000000
vt 1.000000 0.335938
vt 0.250000 0.000000
vt 0.250000 0.335938
vt -0.000000 0.335938
vt 0.000000 0.000000
vn 0.8559 -0.0169 0.5169
vn 0.1032 0.9944 -0.0203
vn -0.5164 0.0710 0.8534
vn -0.8635 0.0765 -0.4984
vn 0.4968 -0.0196 -0.8676
vn 0.5668 0.0269 -0.8234
vn 0.4957 0.0002 -0.8685
vn 0.8557 0.0222 0.5169
vn 0.8569 0.0509 0.5129
vn -0.8607 -0.0447 -0.5070
vn -0.8665 -0.0126 -0.4991
vn -0.4486 -0.0139 0.8936
vn -0.5196 0.0011 0.8544
usemtl Cattail_Stem
s 1
f 39/48/33 34/49/34 40/50/35
f 40/50/35 34/51/34 42/52/36
f 42/53/36 34/54/34 44/55/37
f 44/55/37 34/56/34 39/48/33
f 36/57/38 45/58/39 38/59/40 33/60/41
f 45/58/39 44/55/37 39/48/33 38/59/40
f 37/61/42 43/62/43 45/58/39 36/57/38
f 43/62/43 42/53/36 44/55/37 45/58/39
f 35/63/44 41/64/45 43/65/43 37/66/42
f 41/64/45 40/50/35 42/52/36 43/65/43
f 33/60/41 38/59/40 41/64/45 35/63/44
f 38/59/40 39/48/33 40/50/35 41/64/45
