# Blender v2.90.0 OBJ File: 'Nature Kit.blend'
# www.blender.org
mtllib Flower_Bellflower_2.mtl
o object6.089_object6.033
v -0.284026 0.373284 0.006496
v -0.171132 0.332552 -0.019139
v -0.193356 0.353380 0.006461
v -0.172550 0.331254 0.028621
v -0.125486 0.312827 0.002697
v -0.094430 0.270358 0.032903
v -0.092431 0.270795 -0.030796
v -0.070571 0.245745 -0.000077
v -0.021699 0.162246 -0.001679
vt 0.442952 -0.000622
vt 0.462559 0.224940
vt 0.862566 0.312370
vt 0.077847 0.313461
vt 0.481831 0.446646
vt -0.003348 0.625466
vt 0.997976 0.624074
vt 0.505172 0.715177
vt 0.529946 1.000181
vn 0.2143 0.9761 0.0369
vn 0.2957 0.9536 0.0558
vn 0.4402 0.8299 -0.3429
vn 0.4474 0.7915 0.4163
vn 0.6143 0.7888 0.0209
vn 0.7530 0.6301 0.1896
vn 0.7572 0.6396 -0.1325
vn 0.8429 0.5375 0.0257
vn 0.8629 0.5045 0.0289
usemtl Leaf
s 1
f 1/1/1 3/2/2 2/3/3
f 3/2/2 1/1/1 4/4/4
f 5/5/5 3/2/2 4/4/4
f 4/4/4 6/6/6 5/5/5
f 7/7/7 2/3/3 5/5/5
f 5/5/5 8/8/8 7/7/7
f 9/9/9 7/7/7 8/8/8
f 6/6/6 9/9/9 8/8/8
f 8/8/8 5/5/5 6/6/6
f 3/2/2 5/5/5 2/3/3
o object6.090_object6.034
v 0.033120 0.627827 0.082282
v -0.018083 0.559667 0.072377
v -0.009511 0.578892 0.056000
v -0.001222 0.563424 0.030355
v -0.030100 0.537762 0.036242
v -0.029392 0.484476 -0.003427
v -0.052145 0.480704 0.052451
v -0.058309 0.453842 0.015894
v -0.054346 0.351648 0.011019
vt 0.442952 -0.000622
vt 0.462559 0.224940
vt 0.862566 0.312370
vt 0.077847 0.313461
vt 0.481831 0.446646
vt -0.003348 0.625466
vt 0.997976 0.624074
vt 0.505172 0.715177
vt 0.529946 1.000181
vn -0.6828 0.7025 -0.2005
vn -0.7368 0.6450 -0.2029
vn -0.8839 0.4565 0.1016
vn -0.5676 0.5839 -0.5804
vn -0.8199 0.4719 -0.3241
vn -0.7076 0.3249 -0.6274
vn -0.9630 0.2694 -0.0032
vn -0.9258 0.0919 -0.3667
vn -0.9259 -0.0179 -0.3774
usemtl Leaf
s 1
f 10/10/10 12/11/11 11/12/12
f 12/11/11 10/10/10 13/13/13
f 14/14/14 12/11/11 13/13/13
f 13/13/13 15/15/15 14/14/14
f 16/16/16 11/12/12 14/14/14
f 14/14/14 17/17/17 16/16/16
f 18/18/18 16/16/16 17/17/17
f 15/15/15 18/18/18 17/17/17
f 17/17/17 14/14/14 15/15/15
f 12/11/11 14/14/14 11/12/12
o Cube.132_Cube.257
v 0.011661 0.000000 0.005838
v -0.155157 0.620552 0.038629
v -0.005838 0.000000 0.011661
v -0.166283 0.617670 0.042187
v 0.005838 0.000000 -0.011661
v -0.158842 0.620638 0.027175
v -0.011661 0.000000 -0.005838
v -0.169968 0.617756 0.030733
v -0.017433 0.227621 -0.000343
v -0.075602 0.465369 0.020082
v -0.090273 0.463539 0.024678
v -0.032742 0.224959 0.004956
v -0.095265 0.462681 0.011120
v -0.038236 0.225445 -0.010528
v -0.080594 0.464511 0.006524
v -0.022927 0.228107 -0.015827
vt 0.500000 0.664062
vt 0.500000 1.000000
vt 0.250000 1.000000
vt 0.250000 0.664062
vt 0.000000 1.000000
vt 0.000000 0.664062
vt 1.000000 0.664062
vt 1.000000 1.000000
vt 0.750000 1.000000
vt 0.750000 0.664062
vt 0.750000 0.000000
vt 0.750000 0.335938
vt 0.500000 0.335938
vt 0.500000 0.000000
vt 1.000000 0.000000
vt 1.000000 0.335938
vt 0.250000 0.000000
vt 0.250000 0.335938
vt -0.000000 0.335938
vt 0.000000 0.000000
vn 0.8596 0.2745 0.4309
vn 0.7856 0.3389 0.5176
vn -0.4513 -0.3152 0.8348
vn -0.3641 -0.2188 0.9053
vn -0.8415 -0.3562 -0.4061
vn -0.8418 -0.2486 -0.4791
vn 0.3098 0.2775 -0.9094
vn 0.4308 0.2564 -0.8652
vn 0.4895 0.0454 -0.8708
vn 0.4390 0.1154 -0.8910
vn 0.8979 0.1537 0.4123
vn 0.8948 0.1264 0.4282
vn -0.8830 -0.1132 -0.4555
vn -0.8699 -0.1393 -0.4730
vn -0.3945 -0.0202 0.9186
vn -0.4196 -0.0982 0.9024
usemtl Flower_Stem
s 1
f 28/19/19 20/20/20 22/21/21 29/22/22
f 29/22/22 22/21/21 26/23/23 31/24/24
f 31/25/24 26/26/23 24/27/25 33/28/26
f 33/28/26 24/27/25 20/20/20 28/19/19
f 23/29/27 34/30/28 27/31/29 19/32/30
f 34/30/28 33/28/26 28/19/19 27/31/29
f 25/33/31 32/34/32 34/30/28 23/29/27
f 32/34/32 31/25/24 33/28/26 34/30/28
f 21/35/33 30/36/34 32/37/32 25/38/31
f 30/36/34 29/22/22 31/24/24 32/37/32
f 19/32/30 27/31/29 30/36/34 21/35/33
f 27/31/29 28/19/19 29/22/22 30/36/34
o object6.096_object6.040
v 0.011927 0.265566 -0.265550
v 0.027231 0.224835 -0.150798
v 0.003749 0.245663 -0.175250
v -0.020205 0.223536 -0.156536
v 0.001349 0.205109 -0.107318
v -0.031546 0.162640 -0.079125
v 0.031711 0.163077 -0.071364
v -0.000862 0.138027 -0.052377
v -0.003693 0.054529 -0.003561
vt 0.442952 -0.000622
vt 0.462559 0.224940
vt 0.862566 0.312370
vt 0.077847 0.313461
vt 0.481831 0.446646
vt -0.003348 0.625466
vt 0.997976 0.624074
vt 0.505172 0.715177
vt 0.529946 1.000181
vn -0.0562 0.9761 0.2101
vn -0.0824 0.9536 0.2895
vn 0.3016 0.8299 0.4694
vn -0.4551 0.7916 0.4078
vn -0.0764 0.7888 0.6099
vn -0.2570 0.6301 0.7328
vn 0.0634 0.6396 0.7661
vn -0.1019 0.5375 0.8371
vn -0.1070 0.5045 0.8568
usemtl Leaf
s 1
f 35/39/35 37/40/36 36/41/37
f 37/40/36 35/39/35 38/42/38
f 39/43/39 37/40/36 38/42/38
f 38/42/38 40/44/40 39/43/39
f 41/45/41 36/41/37 39/43/39
f 39/43/39 42/46/42 41/45/41
f 43/47/43 41/45/41 42/46/42
f 40/44/40 43/47/43 42/46/42
f 42/46/42 39/43/39 40/44/40
f 37/40/36 39/43/39 36/41/37
o Cone.086_Cone.110
v -0.188968 0.662436 0.009380
v -0.162385 0.675478 0.029539
v -0.169487 0.667506 0.063731
v -0.193645 0.672212 0.041047
v -0.200460 0.649537 0.064704
v -0.212499 0.646403 0.031113
vt 0.791667 0.270833
vt 0.791667 0.729167
vt 0.500000 0.500000
vt 0.375000 0.854167
vt 0.145833 0.500000
vt 0.375000 0.145833
vn -0.4826 0.8143 -0.3226
vn -0.8021 0.5965 -0.0275
vn -0.4971 0.8621 0.0978
vn -0.6386 0.6391 0.4286
vn -0.2180 0.8831 0.4154
vn -0.1216 0.9914 -0.0489
usemtl Flower_Stamen
s 1
f 44/48/44 49/49/45 47/50/46
f 48/51/47 46/52/48 47/50/46
f 47/50/46 46/52/48 45/53/49
f 47/50/46 45/53/49 44/48/44
f 49/49/45 48/51/47 47/50/46
o Cone.087_Cone.111
v -0.142546 0.781844 0.177247
v -0.307655 0.686052 0.182435
v -0.371837 0.669348 0.003366
v -0.168435 0.628492 0.036090
v -0.246394 0.754816 -0.112492
v -0.104685 0.824343 -0.005028
v -0.223446 0.719457 -0.035049
v -0.254077 0.685075 0.112415
v -0.171522 0.732971 0.109821
v -0.286168 0.676723 0.022881
v -0.152592 0.754221 0.018683
vt 0.638672 0.658203
vt 0.501953 0.466797
vt 0.732422 0.386719
vt 0.498047 0.234375
vt 0.279297 0.390625
vt 0.361328 0.652344
vt 0.224609 0.839844
vt 0.759766 0.843750
vt 0.062500 0.312500
vt 0.496094 0.011719
vt 0.939453 0.314453
vn -0.7223 0.6044 -0.3362
vn -0.4971 0.8621 0.0978
vn -0.1824 0.9176 -0.3531
vn 0.0275 0.9722 0.2324
vn -0.3827 0.6927 0.6112
vn -0.8461 0.4654 0.2598
vn -0.7693 0.5999 0.2198
vn -0.6785 0.7017 -0.2170
vn -0.4297 0.7665 0.4773
vn -0.1291 0.9713 0.1997
vn -0.2829 0.9313 -0.2294
usemtl Flower_5_Point_Pink
s 1
f 58/54/50 53/55/51 57/56/52
f 57/56/52 53/55/51 59/57/53
f 59/57/53 53/55/51 56/58/54
f 56/58/54 53/55/51 60/59/55
f 60/59/55 53/55/51 58/54/50
f 55/60/56 60/59/55 58/54/50 50/61/57
f 54/62/58 56/58/54 60/59/55 55/60/56
f 52/63/59 59/57/53 56/58/54 54/62/58
f 51/64/60 57/56/52 59/57/53 52/63/59
f 50/61/57 58/54/50 57/56/52 51/64/60
o Cone.088_Cone.112
v -0.207807 0.705652 0.207745
v -0.349516 0.636125 0.100281
v -0.311655 0.678624 -0.081994
v -0.159729 0.613393 0.034378
v -0.146546 0.774416 -0.087183
v -0.082365 0.791120 0.091886
v -0.170106 0.723332 -0.023066
v -0.271591 0.654187 0.070666
v -0.200736 0.688950 0.124398
v -0.252660 0.675436 -0.020471
v -0.138015 0.731684 0.066469
vt 0.638672 0.658203
vt 0.501953 0.466797
vt 0.732422 0.386719
vt 0.498047 0.234375
vt 0.279297 0.390625
vt 0.361328 0.652344
vt 0.224609 0.839844
vt 0.759766 0.843750
vt 0.062500 0.312500
vt 0.496094 0.011719
vt 0.939453 0.314453
vn -0.4730 0.7946 -0.3806
vn -0.4971 0.8621 0.0978
vn -0.0635 0.9955 -0.0701
vn -0.1729 0.8727 0.4566
vn -0.6500 0.5959 0.4715
vn -0.8354 0.5477 -0.0458
vn -0.7314 0.6818 0.0070
vn -0.4955 0.8426 -0.2109
vn -0.6107 0.7132 0.3439
vn -0.3001 0.8935 0.3341
vn -0.2289 0.9734 -0.0087
usemtl Flower_5_Point_Pink
s 1
f 69/65/61 64/66/62 68/67/63
f 68/67/63 64/66/62 70/68/64
f 70/68/64 64/66/62 67/69/65
f 67/69/65 64/66/62 71/70/66
f 71/70/66 64/66/62 69/65/61
f 66/71/67 71/70/66 69/65/61 61/72/68
f 65/73/69 67/69/65 71/70/66 66/71/67
f 63/74/70 70/68/64 67/69/65 65/73/69
f 62/75/71 68/67/63 70/68/64 63/74/70
f 61/72/68 69/65/61 68/67/63 62/75/71
o Cone.089_Cone.113
v -0.176769 0.644676 0.071927
v -0.150596 0.662509 0.047754
v -0.163987 0.659024 0.010392
v -0.155278 0.605553 0.033502
v -0.198436 0.639037 0.011475
v -0.206335 0.630170 0.049506
vt 0.828125 0.703125
vt 0.156250 0.703125
vt 0.500000 0.382812
vt 0.828125 0.703125
vt 0.156250 0.703125
vt 0.828125 0.703125
vt 0.156250 0.703125
vn 0.3453 -0.5542 0.7574
vn -0.3681 -0.9042 0.2163
vn 0.4971 -0.8621 -0.0978
vn -0.1775 -0.6902 -0.7014
vn 0.6538 -0.2080 -0.7275
vn 0.9769 -0.1238 0.1740
usemtl Flower_Stem
s 1
f 72/76/72 77/77/73 75/78/74
f 76/79/75 74/80/76 75/78/74
f 75/78/74 74/81/76 73/82/77
f 75/78/74 73/82/77 72/76/72
f 77/77/73 76/79/75 75/78/74
