# Blender v2.90.0 OBJ File: 'Nature Kit.blend'
# www.blender.org
mtllib Flower_Daisy_2.mtl
o object6.064_object6.011
v -0.114619 0.302918 0.153389
v -0.076866 0.279728 0.083303
v -0.074049 0.292743 0.106655
v -0.053165 0.278355 0.105197
v -0.045157 0.267854 0.069162
v -0.015291 0.240036 0.065397
v -0.046831 0.240997 0.036098
v -0.021076 0.224595 0.037810
v 0.001192 0.170034 0.009504
vt 0.442952 -0.000622
vt 0.462559 0.224940
vt 0.862566 0.312370
vt 0.077847 0.313461
vt 0.481831 0.446646
vt -0.003348 0.625466
vt 0.997976 0.624074
vt 0.505172 0.715177
vt 0.529946 1.000181
vn 0.1447 0.9855 -0.0889
vn 0.2130 0.9671 -0.1388
vn 0.0106 0.8567 -0.5157
vn 0.5882 0.8083 -0.0238
vn 0.4001 0.8200 -0.4094
vn 0.6223 0.6665 -0.4106
vn 0.3821 0.6807 -0.6250
vn 0.5601 0.5810 -0.5905
vn 0.5765 0.5492 -0.6050
usemtl Leaf
s 1
f 1/1/1 3/2/2 2/3/3
f 3/2/2 1/1/1 4/4/4
f 5/5/5 3/2/2 4/4/4
f 4/4/4 6/6/6 5/5/5
f 7/7/7 2/3/3 5/5/5
f 5/5/5 8/8/8 7/7/7
f 9/9/9 7/7/7 8/8/8
f 6/6/6 9/9/9 8/8/8
f 8/8/8 5/5/5 6/6/6
f 3/2/2 5/5/5 2/3/3
o object6.065_object6.012
v -0.112252 0.282935 -0.136958
v -0.069517 0.274372 -0.098714
v -0.086232 0.280992 -0.097498
v -0.093985 0.271626 -0.080381
v -0.070107 0.272110 -0.069124
v -0.066406 0.248993 -0.030828
v -0.034160 0.253393 -0.055506
v -0.035691 0.246045 -0.025499
v -0.002941 0.194996 0.007769
vt 0.442952 -0.000622
vt 0.462559 0.224940
vt 0.862566 0.312370
vt 0.077847 0.313461
vt 0.481831 0.446646
vt -0.003348 0.625466
vt 0.997976 0.624074
vt 0.505172 0.715177
vt 0.529946 1.000181
vn -0.0420 0.9962 0.0767
vn 0.0217 0.9921 0.1232
vn 0.3849 0.9229 0.0086
vn -0.2652 0.8754 0.4042
vn 0.0986 0.9388 0.3301
vn -0.0652 0.7909 0.6085
vn 0.4758 0.8548 0.2070
vn 0.3428 0.7434 0.5743
vn 0.3947 0.6658 0.6332
usemtl Leaf
s 1
f 10/10/10 12/11/11 11/12/12
f 12/11/11 10/10/10 13/13/13
f 14/14/14 12/11/11 13/13/13
f 13/13/13 15/15/15 14/14/14
f 16/16/16 11/12/12 14/14/14
f 14/14/14 17/17/17 16/16/16
f 18/18/18 16/16/16 17/17/17
f 15/15/15 18/18/18 17/17/17
f 17/17/17 14/14/14 15/15/15
f 12/11/11 14/14/14 11/12/12
o Cube.083_Cube.249
v 0.007295 -0.000085 0.004941
v -0.066793 0.358258 0.022957
v -0.004912 -0.001083 0.007234
v -0.077442 0.352486 0.025881
v 0.004912 0.001083 -0.007234
v -0.070585 0.359263 0.011130
v -0.007295 0.000085 -0.004941
v -0.081234 0.353492 0.014053
v 0.017850 0.117212 0.009876
v 0.000641 0.232219 0.015153
v -0.009996 0.230671 0.016628
v 0.005601 0.117875 0.012109
v -0.012525 0.232009 0.004481
v 0.003445 0.119687 -0.000053
v -0.001890 0.233557 0.003005
v 0.015694 0.119025 -0.002287
vt 0.500000 0.664062
vt 0.500000 1.000000
vt 0.250000 1.000000
vt 0.250000 0.664062
vt 0.000000 1.000000
vt 0.000000 0.664062
vt 1.000000 0.664062
vt 1.000000 1.000000
vt 0.750000 1.000000
vt 0.750000 0.664062
vt 0.750000 0.000000
vt 0.750000 0.335938
vt 0.500000 0.335938
vt 0.500000 0.000000
vt 1.000000 0.000000
vt 1.000000 0.335938
vt 0.250000 0.000000
vt 0.250000 0.335938
vt -0.000000 0.335938
vt 0.000000 0.000000
vn 0.8100 0.2317 0.5387
vn 0.7629 0.3760 0.5259
vn -0.5099 -0.3427 0.7890
vn -0.4793 -0.1948 0.8557
vn -0.7157 -0.3577 -0.5999
vn -0.7490 -0.2315 -0.6207
vn 0.4291 0.2901 -0.8554
vn 0.5731 0.2437 -0.7824
vn 0.5295 -0.0128 -0.8482
vn 0.6038 0.0598 -0.7948
vn 0.8380 -0.0056 0.5456
vn 0.7877 -0.0964 0.6084
vn -0.8579 0.0976 -0.5044
vn -0.8020 -0.0003 -0.5973
vn -0.5946 0.0197 0.8038
vn -0.5347 -0.0436 0.8439
usemtl Flower_Stem
s 1
f 28/19/19 20/20/20 22/21/21 29/22/22
f 29/22/22 22/21/21 26/23/23 31/24/24
f 31/25/24 26/26/23 24/27/25 33/28/26
f 33/28/26 24/27/25 20/20/20 28/19/19
f 23/29/27 34/30/28 27/31/29 19/32/30
f 34/30/28 33/28/26 28/19/19 27/31/29
f 25/33/31 32/34/32 34/30/28 23/29/27
f 32/34/32 31/25/24 33/28/26 34/30/28
f 21/35/33 30/36/34 32/37/32 25/38/31
f 30/36/34 29/22/22 31/24/24 32/37/32
f 19/32/30 27/31/29 30/36/34 21/35/33
f 27/31/29 28/19/19 29/22/22 30/36/34
o Cylinder.087_Cylinder.156
v -0.066531 0.348649 0.016866
v -0.099980 0.342368 0.021880
v -0.099597 0.345150 0.008044
v -0.094483 0.352623 -0.002788
v -0.086010 0.362785 -0.007713
v -0.076447 0.372913 -0.005411
v -0.068357 0.380293 0.003500
v -0.063908 0.382948 0.016633
v -0.064292 0.380166 0.030469
v -0.069405 0.372693 0.041300
v -0.077879 0.362531 0.046225
v -0.087441 0.352403 0.043924
v -0.095531 0.345023 0.035013
vt 1.000000 0.687500
vt 1.000000 0.171875
vt 0.921875 0.171875
vt 0.921875 0.687500
vt 0.828125 0.171875
vt 0.828125 0.687500
vt 0.750000 0.171875
vt 0.750000 0.687500
vt 0.671875 0.171875
vt 0.671875 0.687500
vt 0.578125 0.171875
vt 0.578125 0.687500
vt 0.500000 0.171875
vt 0.500000 0.687500
vt 0.421875 0.171875
vt 0.421875 0.687500
vt 0.328125 0.171875
vt 0.328125 0.687500
vt 0.250000 0.171875
vt 0.250000 0.687500
vt 0.171875 0.171875
vt 0.171875 0.687500
vt 0.078125 0.171875
vt 0.078125 0.687500
vt 0.000000 0.171875
vn 0.7352 -0.6682 -0.1140
vn 0.1798 -0.9832 -0.0317
vn 0.1884 -0.9210 -0.3409
vn 0.3027 -0.7540 -0.5829
vn 0.4920 -0.5270 -0.6930
vn 0.7057 -0.3006 -0.6415
vn 0.8864 -0.1357 -0.4424
vn 0.9859 -0.0764 -0.1490
vn 0.9773 -0.1386 0.1602
vn 0.8630 -0.3056 0.4022
vn 0.6737 -0.5326 0.5123
vn 0.4600 -0.7589 0.4608
vn 0.2792 -0.9239 0.2617
usemtl Flower_Stem
s 1
f 35/39/35 36/40/36 37/41/37
f 35/42/35 37/41/37 38/43/38
f 35/44/35 38/43/38 39/45/39
f 35/46/35 39/45/39 40/47/40
f 35/48/35 40/47/40 41/49/41
f 35/50/35 41/49/41 42/51/42
f 35/52/35 42/51/42 43/53/43
f 35/54/35 43/53/43 44/55/44
f 35/56/35 44/55/44 45/57/45
f 35/58/35 45/57/45 46/59/46
f 35/60/35 46/59/46 47/61/47
f 35/62/35 47/61/47 36/63/36
o Cone.082_Cone.106
v -0.087277 0.425156 -0.092840
v -0.035723 0.473023 -0.028171
v -0.025171 0.468390 0.066689
v -0.061803 0.413971 0.136171
v -0.124160 0.341645 0.139575
v -0.175714 0.293778 0.074906
v -0.186266 0.298411 -0.019953
v -0.149634 0.352830 -0.089436
v -0.072182 0.354244 0.018213
v -0.055453 0.417208 0.043492
v -0.060729 0.419525 -0.003937
v -0.086506 0.395592 -0.036272
v -0.136001 0.332219 0.000171
v -0.130725 0.329903 0.047601
v -0.104948 0.353836 0.079936
v -0.073769 0.389999 0.078234
v -0.117685 0.359428 -0.034570
vt 0.397652 0.253380
vt 0.500000 0.500000
vt 0.253242 0.397985
vt 0.253380 0.602348
vt 0.397985 0.746757
vt 0.602348 0.746620
vt 0.746757 0.602015
vt 0.746620 0.397652
vt 0.602015 0.253242
vt 0.707065 0.000100
vt 0.292935 0.000100
vt 0.999900 0.292935
vt 0.999900 0.707065
vt 0.707065 0.999900
vt 0.292935 0.999900
vt 0.000100 0.707065
vt 0.000100 0.292935
vn -0.7591 0.5198 0.3918
vn -0.7496 0.6517 0.1152
vn -0.8842 0.4036 0.2348
vn -0.9098 0.4149 0.0047
vn -0.8209 0.5469 -0.1639
vn -0.6696 0.7224 -0.1722
vn -0.5445 0.8386 -0.0152
vn -0.5189 0.8273 0.2149
vn -0.6078 0.6953 0.3835
vn -0.6597 0.6885 0.3013
vn -0.7639 0.5675 0.3070
vn -0.5984 0.7795 0.1851
vn -0.6160 0.7873 0.0265
vn -0.7023 0.7072 -0.0817
vn -0.8065 0.5862 -0.0760
vn -0.8678 0.4952 0.0402
vn -0.8502 0.4875 0.1989
usemtl Flower_Daisy_White
s 1
f 59/64/48 56/65/49 58/66/50
f 58/66/50 56/65/49 57/67/51
f 57/67/51 56/65/49 63/68/52
f 63/68/52 56/65/49 62/69/53
f 62/69/53 56/65/49 61/70/54
f 61/70/54 56/65/49 60/71/55
f 60/71/55 56/65/49 64/72/56
f 64/72/56 56/65/49 59/64/48
f 55/73/57 64/72/56 59/64/48 48/74/58
f 54/75/59 60/71/55 64/72/56 55/73/57
f 53/76/60 61/70/54 60/71/55 54/75/59
f 52/77/61 62/69/53 61/70/54 53/76/60
f 51/78/62 63/68/52 62/69/53 52/77/61
f 50/79/63 57/67/51 63/68/52 51/78/62
f 49/80/64 58/66/50 57/67/51 50/79/63
f 48/74/58 59/64/48 58/66/50 49/80/64
o Cone.083_Cone.107
v -0.099918 0.378357 0.022476
v -0.065269 0.394565 0.005355
v -0.080811 0.380247 -0.014776
v -0.099912 0.358186 -0.014259
v -0.108504 0.339491 0.035591
v -0.092962 0.353808 0.055722
v -0.073861 0.375870 0.055205
v -0.062390 0.392752 0.034342
v -0.111383 0.341304 0.006604
vt 0.375000 0.791667
vt 0.500000 0.500000
vt 0.625000 0.791667
vt 0.791667 0.625000
vt 0.791667 0.375000
vt 0.625000 0.208333
vt 0.375000 0.208333
vt 0.208333 0.375000
vt 0.208333 0.625000
vn -0.8238 0.4968 -0.2729
vn -0.7496 0.6517 0.1152
vn -0.6160 0.7368 -0.2786
vn -0.4470 0.8925 -0.0596
vn -0.4156 0.8728 0.2557
vn -0.5404 0.6892 0.4826
vn -0.7482 0.4492 0.4882
vn -0.9172 0.2935 0.2693
vn -0.9485 0.3132 -0.0460
usemtl Flower_Stamen
s 1
f 68/81/65 65/82/66 67/83/67
f 67/83/67 65/82/66 66/84/68
f 66/84/68 65/82/66 72/85/69
f 72/85/69 65/82/66 71/86/70
f 71/86/70 65/82/66 70/87/71
f 70/87/71 65/82/66 69/88/72
f 69/88/72 65/82/66 73/89/73
f 73/89/73 65/82/66 68/81/65
