# Blender v2.90.0 OBJ File: 'Nature Kit.blend'
# www.blender.org
mtllib Flower_Sunflower_1.mtl
o object6.059_object6.006
v 0.129115 0.526009 0.453850
v 0.044541 0.480783 0.272623
v 0.097104 0.507618 0.303217
v 0.122626 0.470802 0.259184
v 0.062251 0.451980 0.188424
v 0.093897 0.381854 0.122437
v -0.010523 0.393039 0.140021
v 0.028082 0.350190 0.091103
v -0.005363 0.220069 0.001186
vt 0.442952 -0.000622
vt 0.462559 0.224940
vt 0.862566 0.312370
vt 0.077847 0.313461
vt 0.481831 0.446646
vt -0.003348 0.625466
vt 0.997976 0.624074
vt 0.505172 0.715177
vt 0.529946 1.000181
vn 0.1054 0.9842 -0.1425
vn 0.1061 0.9680 -0.2276
vn -0.3238 0.8972 -0.3003
vn 0.4116 0.7876 -0.4586
vn -0.0058 0.8386 -0.5447
vn 0.1152 0.6786 -0.7254
vn -0.1989 0.7191 -0.6659
vn -0.0719 0.6110 -0.7883
vn -0.0761 0.5800 -0.8110
usemtl Leaf
s 1
f 1/1/1 3/2/2 2/3/3
f 3/2/2 1/1/1 4/4/4
f 5/5/5 3/2/2 4/4/4
f 4/4/4 6/6/6 5/5/5
f 7/7/7 2/3/3 5/5/5
f 5/5/5 8/8/8 7/7/7
f 9/9/9 7/7/7 8/8/8
f 6/6/6 9/9/9 8/8/8
f 8/8/8 5/5/5 6/6/6
f 3/2/2 5/5/5 2/3/3
o object6.060_object6.007
v -0.225993 0.462596 -0.291873
v -0.127017 0.403295 -0.206743
v -0.165370 0.424712 -0.199273
v -0.188842 0.395411 -0.163413
v -0.130961 0.380725 -0.137013
v -0.132901 0.301935 -0.058860
v -0.051095 0.314481 -0.116747
v -0.059310 0.279969 -0.048982
v -0.000726 0.126737 -0.000511
vt 0.442952 -0.000622
vt 0.462559 0.224940
vt 0.862566 0.312370
vt 0.077847 0.313461
vt 0.481831 0.446646
vt -0.003348 0.625466
vt 0.997976 0.624074
vt 0.505172 0.715177
vt 0.529946 1.000181
vn 0.1112 0.9432 0.3131
vn 0.1724 0.9183 0.3563
vn 0.5230 0.8227 0.2228
vn -0.1353 0.7841 0.6057
vn 0.2355 0.8059 0.5432
vn 0.0446 0.6233 0.7807
vn 0.5978 0.6960 0.3977
vn 0.4409 0.5224 0.7298
vn 0.4788 0.4259 0.7677
usemtl Leaf
s 1
f 10/10/10 12/11/11 11/12/12
f 12/11/11 10/10/10 13/13/13
f 14/14/14 12/11/11 13/13/13
f 13/13/13 15/15/15 14/14/14
f 16/16/16 11/12/12 14/14/14
f 14/14/14 17/17/17 16/16/16
f 18/18/18 16/16/16 17/17/17
f 15/15/15 18/18/18 17/17/17
f 17/17/17 14/14/14 15/15/15
f 12/11/11 14/14/14 11/12/12
o Cube.081_Cube.247
v 0.015645 -0.002909 0.014883
v -0.240946 0.844037 0.008394
v -0.014967 0.000477 0.015827
v -0.248082 0.825590 0.011983
v 0.014967 -0.000477 -0.015827
v -0.241279 0.840323 -0.011359
v -0.015645 0.002909 -0.014883
v -0.248415 0.821876 -0.007770
v 0.015079 0.380581 0.020039
v -0.098766 0.724553 0.011375
v -0.118952 0.708803 0.013824
v -0.012299 0.379122 0.020854
v -0.121053 0.705349 -0.010074
v -0.013349 0.382153 -0.006421
v -0.100869 0.721194 -0.012522
v 0.014029 0.383611 -0.007235
vt 0.500000 0.664062
vt 0.500000 1.000000
vt 0.250000 1.000000
vt 0.250000 0.664062
vt 0.000000 1.000000
vt 0.000000 0.664062
vt 1.000000 0.664062
vt 1.000000 1.000000
vt 0.750000 1.000000
vt 0.750000 0.664062
vt 0.750000 0.000000
vt 0.750000 0.335938
vt 0.500000 0.335938
vt 0.500000 0.000000
vt 1.000000 0.000000
vt 1.000000 0.335938
vt 0.250000 0.000000
vt 0.250000 0.335938
vt -0.000000 0.335938
vt 0.000000 0.000000
vn 0.6648 0.4781 0.5739
vn 0.5452 0.6560 0.5220
vn -0.3354 -0.3499 0.8747
vn -0.4671 -0.2840 0.8373
vn -0.5168 -0.5600 -0.6475
vn -0.6053 -0.3923 -0.6926
vn 0.4504 0.5438 -0.7080
vn 0.5802 0.3740 -0.7235
vn 0.7248 0.0168 -0.6887
vn 0.7032 0.1263 -0.6996
vn 0.7543 0.1177 0.6459
vn 0.7384 -0.0075 0.6742
vn -0.7178 0.0202 -0.6959
vn -0.6949 -0.1160 -0.7096
vn -0.6459 -0.0060 0.7634
vn -0.6232 -0.0827 0.7776
usemtl Flower_Stem
s 1
f 28/19/19 20/20/20 22/21/21 29/22/22
f 29/22/22 22/21/21 26/23/23 31/24/24
f 31/25/24 26/26/23 24/27/25 33/28/26
f 33/28/26 24/27/25 20/20/20 28/19/19
f 23/29/27 34/30/28 27/31/29 19/32/30
f 34/30/28 33/28/26 28/19/19 27/31/29
f 25/33/31 32/34/32 34/30/28 23/29/27
f 32/34/32 31/25/24 33/28/26 34/30/28
f 21/35/33 30/36/34 32/37/32 25/38/31
f 30/36/34 29/22/22 31/24/24 32/37/32
f 19/32/30 27/31/29 30/36/34 21/35/33
f 27/31/29 28/19/19 29/22/22 30/36/34
o object6.061_object6.008
v 0.386684 0.548914 -0.154598
v 0.231487 0.466425 -0.049003
v 0.248112 0.505244 -0.100341
v 0.203959 0.467320 -0.123963
v 0.148900 0.429599 -0.056494
v 0.085592 0.357091 -0.088245
v 0.122251 0.353728 0.011669
v 0.071371 0.311330 -0.024843
v 0.003855 0.166490 -0.000386
vt 0.442952 -0.000622
vt 0.462559 0.224940
vt 0.862566 0.312370
vt 0.077847 0.313461
vt 0.481831 0.446646
vt -0.003348 0.625466
vt 0.997976 0.624074
vt 0.505172 0.715177
vt 0.529946 1.000181
vn -0.2619 0.9595 0.1034
vn -0.3433 0.9322 0.1147
vn -0.3217 0.7843 0.5304
vn -0.6102 0.7732 -0.1728
vn -0.6168 0.7445 0.2554
vn -0.8003 0.5828 0.1411
vn -0.6842 0.5803 0.4417
vn -0.8175 0.4782 0.3208
vn -0.8356 0.4441 0.3233
usemtl Leaf
s 1
f 35/39/35 37/40/36 36/41/37
f 37/40/36 35/39/35 38/42/38
f 39/43/39 37/40/36 38/42/38
f 38/42/38 40/44/40 39/43/39
f 41/45/41 36/41/37 39/43/39
f 39/43/39 42/46/42 41/45/41
f 43/47/43 41/45/41 42/46/42
f 40/44/40 43/47/43 42/46/42
f 42/46/42 39/43/39 40/44/40
f 37/40/36 39/43/39 36/41/37
o Cylinder.084_Cylinder.153
v -0.298370 0.863238 0.001546
v -0.388991 0.656533 0.039706
v -0.383547 0.666112 -0.077710
v -0.350107 0.725609 -0.173886
v -0.297632 0.819081 -0.223052
v -0.240181 0.921482 -0.212034
v -0.193150 1.005374 -0.143784
v -0.169139 1.048279 -0.036590
v -0.174583 1.038699 0.080826
v -0.208023 0.979203 0.177003
v -0.260498 0.885731 0.226169
v -0.317948 0.783330 0.215151
v -0.364980 0.699437 0.146901
v -0.374631 0.712403 0.030229
v -0.370539 0.719604 -0.058043
v -0.345399 0.764333 -0.130348
v -0.305948 0.834605 -0.167310
v -0.262758 0.911589 -0.159027
v -0.209349 1.006913 -0.027129
v -0.213441 0.999712 0.061143
v -0.238581 0.954983 0.133447
v -0.278031 0.884711 0.170410
v -0.321222 0.807727 0.162127
v -0.356580 0.744658 0.110817
v -0.227400 0.974658 -0.107717
v -0.312082 0.789674 0.013595
v -0.310364 0.792696 -0.023450
v -0.299814 0.811467 -0.053793
v -0.283258 0.840958 -0.069305
v -0.265132 0.873265 -0.065829
v -0.242719 0.913270 -0.010476
v -0.244436 0.910247 0.026568
v -0.254986 0.891476 0.056912
v -0.271542 0.861986 0.072424
v -0.289668 0.829678 0.068948
v -0.304507 0.803210 0.047415
v -0.250294 0.899733 -0.044296
v -0.311421 0.829932 0.007567
v -0.305287 0.840829 -0.026127
v -0.287946 0.871728 -0.032145
v -0.276739 0.891730 -0.004469
v -0.282873 0.880833 0.029225
v -0.300214 0.849934 0.035243
vt 0.408203 0.875000
vt 0.375000 1.001953
vt 0.140625 0.873047
vt 0.230469 0.779297
vt 0.605469 0.871094
vt 0.642578 0.998047
vt 0.779297 0.769531
vt 0.873047 0.859375
vt 0.875000 0.591797
vt 1.001953 0.625000
vt 0.871094 0.394531
vt 0.998047 0.357422
vt 0.769531 0.220703
vt 0.859375 0.126953
vt 0.591797 0.125000
vt 0.625000 -0.001953
vt 0.394531 0.128906
vt 0.357422 0.001953
vt 0.220703 0.230469
vt 0.126953 0.140625
vt 0.125000 0.408203
vt -0.001953 0.375000
vt 0.128906 0.605469
vt 0.001953 0.642578
vt 0.386719 0.585938
vt 0.347656 0.517578
vt 0.345703 0.441406
vt 0.380859 0.373047
vt 0.449219 0.333984
vt 0.525391 0.332031
vt 0.593750 0.369141
vt 0.636719 0.511719
vt 0.597656 0.580078
vt 0.531250 0.621094
vt 0.455078 0.623047
vt 0.634766 0.435547
vt 0.563477 0.495117
vt 0.541992 0.423828
vt 0.438477 0.532227
vt 0.510742 0.549805
vt 0.469727 0.406250
vt 0.417969 0.459961
vt 0.490234 0.478516
vn -0.9058 0.4227 -0.0282
vn -0.9599 0.2660 -0.0887
vn -0.9659 0.2554 0.0419
vn -0.9077 0.4194 0.0128
vn -0.8941 0.4435 -0.0617
vn -0.9226 0.3322 -0.1957
vn -0.8758 0.4761 -0.0789
vn -0.8643 0.4362 -0.2504
vn -0.8557 0.5119 -0.0751
vn -0.8003 0.5502 -0.2382
vn -0.8393 0.5412 -0.0512
vn -0.7480 0.6435 -0.1622
vn -0.8309 0.5562 -0.0138
vn -0.7213 0.6913 -0.0429
vn -0.8329 0.5528 0.0272
vn -0.7273 0.6806 0.0877
vn -0.8445 0.5320 0.0607
vn -0.7645 0.6144 0.1947
vn -0.8628 0.4994 0.0779
vn -0.8229 0.5104 0.2494
vn -0.8829 0.4636 0.0740
vn -0.8869 0.3965 0.2372
vn -0.8993 0.4344 0.0502
vn -0.9392 0.3031 0.1612
vn -0.9189 0.3941 0.0175
vn -0.9059 0.4187 0.0642
vn -0.8854 0.4539 0.1002
vn -0.8593 0.5016 0.0995
vn -0.8336 0.5463 0.0822
vn -0.8210 0.5698 0.0348
vn -0.8152 0.5788 -0.0185
vn -0.8487 0.5191 -0.1012
vn -0.8759 0.4719 -0.1005
vn -0.9005 0.4267 -0.0832
vn -0.9141 0.4038 -0.0358
vn -0.8293 0.5549 -0.0652
vn -0.7704 0.5610 -0.3030
vn -0.6698 0.7405 -0.0545
vn -0.9811 0.1858 0.0535
vn -0.9261 0.2836 -0.2489
vn -0.7248 0.6427 0.2480
vn -0.8805 0.3653 0.3020
vn -0.8721 0.4893 -0.0005
usemtl Flower_Sunflower
s 1
f 58/48/44 46/49/45 45/50/46 57/51/47
f 59/52/48 47/53/49 46/49/45 58/48/44
f 60/54/50 48/55/51 47/53/49 59/52/48
f 61/56/52 49/57/53 48/55/51 60/54/50
f 68/58/54 50/59/55 49/57/53 61/56/52
f 62/60/56 51/61/57 50/59/55 68/58/54
f 63/62/58 52/63/59 51/61/57 62/60/56
f 64/64/60 53/65/61 52/63/59 63/62/58
f 65/66/62 54/67/63 53/65/61 64/64/60
f 66/68/64 55/69/65 54/67/63 65/66/62
f 67/70/66 56/71/67 55/69/65 66/68/64
f 57/51/47 45/50/46 56/71/67 67/70/66
f 69/72/68 57/51/47 67/70/66 79/73/69
f 79/73/69 67/70/66 66/68/64 78/74/70
f 78/74/70 66/68/64 65/66/62 77/75/71
f 77/75/71 65/66/62 64/64/60 76/76/72
f 76/76/72 64/64/60 63/62/58 75/77/73
f 75/77/73 63/62/58 62/60/56 74/78/74
f 73/79/75 61/56/52 60/54/50 72/80/76
f 72/80/76 60/54/50 59/52/48 71/81/77
f 71/81/77 59/52/48 58/48/44 70/82/78
f 70/82/78 58/48/44 57/51/47 69/72/68
f 74/78/74 62/60/56 68/58/54 80/83/79
f 80/83/79 68/58/54 61/56/52 73/79/75
f 80/83/79 73/79/75 83/84/80
f 84/85/81 74/78/74 80/83/79
f 70/82/78 69/72/68 81/86/82
f 82/87/83 71/81/77 70/82/78
f 72/80/76 71/81/77 82/87/83
f 83/84/80 73/79/75 72/80/76
f 75/77/73 74/78/74 84/85/81
f 85/88/84 76/76/72 75/77/73
f 77/75/71 76/76/72 85/88/84
f 86/89/85 78/74/70 77/75/71
f 79/73/69 78/74/70 86/89/85
f 81/86/82 69/72/68 79/73/69
f 86/89/85 44/90/86 81/86/82
f 77/75/71 85/88/84 86/89/85
f 85/88/84 44/90/86 86/89/85
f 84/85/81 44/90/86 85/88/84
f 82/87/83 44/90/86 83/84/80
f 81/86/82 44/90/86 82/87/83
f 83/84/80 44/90/86 84/85/81
f 70/82/78 81/86/82 82/87/83
f 75/77/73 84/85/81 85/88/84
f 80/83/79 83/84/80 84/85/81
f 72/80/76 82/87/83 83/84/80
f 79/73/69 86/89/85 81/86/82
o Cylinder.085_Cylinder.154
v -0.235229 0.827810 0.001587
v -0.315879 0.779427 0.015429
v -0.313897 0.782908 -0.027258
v -0.301738 0.804538 -0.062224
v -0.282660 0.838520 -0.080099
v -0.261773 0.875749 -0.076093
v -0.244676 0.906249 -0.051280
v -0.235948 0.921849 -0.012309
v -0.237929 0.918367 0.030379
v -0.250088 0.896737 0.065345
v -0.269167 0.862756 0.083220
v -0.290054 0.825526 0.079214
v -0.307151 0.795026 0.054401
vt 1.000000 0.687500
vt 1.000000 0.171875
vt 0.921875 0.171875
vt 0.921875 0.687500
vt 0.828125 0.171875
vt 0.828125 0.687500
vt 0.750000 0.171875
vt 0.750000 0.687500
vt 0.671875 0.171875
vt 0.671875 0.687500
vt 0.578125 0.171875
vt 0.578125 0.687500
vt 0.500000 0.171875
vt 0.500000 0.687500
vt 0.421875 0.171875
vt 0.421875 0.687500
vt 0.328125 0.171875
vt 0.328125 0.687500
vt 0.250000 0.171875
vt 0.250000 0.687500
vt 0.171875 0.171875
vt 0.171875 0.687500
vt 0.078125 0.171875
vt 0.078125 0.687500
vt 0.000000 0.171875
vn 0.8721 -0.4893 0.0005
vn 0.5231 -0.8483 0.0826
vn 0.5348 -0.8276 -0.1702
vn 0.6068 -0.6995 -0.3774
vn 0.7199 -0.4981 -0.4833
vn 0.8436 -0.2776 -0.4596
vn 0.9449 -0.0969 -0.3126
vn 0.9966 -0.0044 -0.0817
vn 0.9849 -0.0251 0.1712
vn 0.9129 -0.1532 0.3784
vn 0.7998 -0.3545 0.4843
vn 0.6761 -0.5751 0.4606
vn 0.5748 -0.7558 0.3135
usemtl Flower_Stem
s 1
f 87/91/87 88/92/88 89/93/89
f 87/94/87 89/93/89 90/95/90
f 87/96/87 90/95/90 91/97/91
f 87/98/87 91/97/91 92/99/92
f 87/100/87 92/99/92 93/101/93
f 87/102/87 93/101/93 94/103/94
f 87/104/87 94/103/94 95/105/95
f 87/106/87 95/105/95 96/107/96
f 87/108/87 96/107/96 97/109/97
f 87/110/87 97/109/97 98/111/98
f 87/112/87 98/111/98 99/113/99
f 87/114/87 99/113/99 88/115/88
