# Blender v2.90.0 OBJ File: 'Nature Kit.blend'
# www.blender.org
mtllib Flower_Balloon_3.mtl
o object6.081_object6.023
v 0.088230 0.374683 0.195646
v 0.021319 0.338609 0.117960
v 0.050572 0.357055 0.124723
v 0.059274 0.337459 0.099247
v 0.019459 0.321139 0.073185
v 0.030202 0.283527 0.036351
v -0.020465 0.283914 0.061224
v -0.005504 0.261729 0.031373
v -0.027040 0.187779 -0.006199
vt 0.442952 -0.000622
vt 0.462559 0.224940
vt 0.862566 0.312370
vt 0.077847 0.313461
vt 0.481831 0.446646
vt -0.003348 0.625466
vt 0.997976 0.624074
vt 0.505172 0.715177
vt 0.529946 1.000181
vn -0.0678 0.9761 -0.2066
vn -0.0893 0.9536 -0.2874
vn -0.5092 0.8299 -0.2281
vn 0.1581 0.7916 -0.5903
vn -0.2694 0.7888 -0.5524
vn -0.1854 0.6301 -0.7541
vn -0.4719 0.6396 -0.6068
vn -0.3723 0.5375 -0.7566
vn -0.3788 0.5045 -0.7759
usemtl Leaf
s 1
f 1/1/1 3/2/2 2/3/3
f 3/2/2 1/1/1 4/4/4
f 5/5/5 3/2/2 4/4/4
f 4/4/4 6/6/6 5/5/5
f 7/7/7 2/3/3 5/5/5
f 5/5/5 8/8/8 7/7/7
f 9/9/9 7/7/7 8/8/8
f 6/6/6 9/9/9 8/8/8
f 8/8/8 5/5/5 6/6/6
f 3/2/2 5/5/5 2/3/3
o object6.082_object6.024
v -0.099813 0.241510 0.173217
v -0.086335 0.208811 0.105938
v -0.073577 0.222517 0.120335
v -0.049042 0.210066 0.120997
v -0.052860 0.200372 0.087993
v -0.012385 0.162681 0.067919
v -0.062119 0.162105 0.048108
v -0.027479 0.147539 0.032880
v -0.012258 0.066051 -0.003869
vt 0.442952 -0.000622
vt 0.462559 0.224940
vt 0.862566 0.312370
vt 0.077847 0.313461
vt 0.481831 0.446646
vt -0.003348 0.625466
vt 0.997976 0.624074
vt 0.505172 0.715177
vt 0.529946 1.000181
vn 0.0793 0.9500 -0.3019
vn 0.0856 0.9228 -0.3757
vn -0.2016 0.7800 -0.5924
vn 0.4762 0.8434 -0.2489
vn 0.2220 0.8210 -0.5260
vn 0.5462 0.6805 -0.4885
vn -0.0797 0.6618 -0.7454
vn 0.3038 0.5349 -0.7884
vn 0.3275 0.4386 -0.8369
usemtl Leaf
s 1
f 10/10/10 12/11/11 11/12/12
f 12/11/11 10/10/10 13/13/13
f 14/14/14 12/11/11 13/13/13
f 13/13/13 15/15/15 14/14/14
f 16/16/16 11/12/12 14/14/14
f 14/14/14 17/17/17 16/16/16
f 18/18/18 16/16/16 17/17/17
f 15/15/15 18/18/18 17/17/17
f 17/17/17 14/14/14 15/15/15
f 12/11/11 14/14/14 11/12/12
o Cube.088_Cube.254
v 0.010328 0.000000 0.005170
v -0.176481 0.541089 -0.003306
v -0.005171 0.000000 0.010327
v -0.185471 0.536620 0.000267
v 0.005171 0.000000 -0.010329
v -0.180139 0.540462 -0.013295
v -0.010328 0.000000 -0.005172
v -0.189128 0.535992 -0.009722
v -0.015440 0.201591 -0.000304
v -0.083949 0.388430 -0.005934
v -0.096943 0.386809 -0.001864
v -0.028998 0.199233 0.004389
v -0.101363 0.386049 -0.013872
v -0.033864 0.199664 -0.009325
v -0.088370 0.387669 -0.017942
v -0.020305 0.202021 -0.014018
vt 0.500000 0.664062
vt 0.500000 1.000000
vt 0.250000 1.000000
vt 0.250000 0.664062
vt 0.000000 1.000000
vt 0.000000 0.664062
vt 1.000000 0.664062
vt 1.000000 1.000000
vt 0.750000 1.000000
vt 0.750000 0.664062
vt 0.750000 0.000000
vt 0.750000 0.335938
vt 0.500000 0.335938
vt 0.500000 0.000000
vt 1.000000 0.000000
vt 1.000000 0.335938
vt 0.250000 0.000000
vt 0.250000 0.335938
vt -0.000000 0.335938
vt 0.000000 0.000000
vn 0.8213 0.3919 0.4147
vn 0.7757 0.4622 0.4296
vn -0.4153 -0.2573 0.8725
vn -0.3732 -0.1606 0.9137
vn -0.7771 -0.4432 -0.4469
vn -0.8001 -0.3799 -0.4642
vn 0.3178 0.2196 -0.9224
vn 0.4193 0.2088 -0.8835
vn 0.4895 0.0454 -0.8708
vn 0.4697 0.1034 -0.8767
vn 0.8793 0.2195 0.4227
vn 0.8948 0.1264 0.4282
vn -0.8830 -0.1132 -0.4555
vn -0.8587 -0.2193 -0.4631
vn -0.3945 -0.0202 0.9186
vn -0.3954 -0.0590 0.9166
usemtl Flower_Stem
s 1
f 28/19/19 20/20/20 22/21/21 29/22/22
f 29/22/22 22/21/21 26/23/23 31/24/24
f 31/25/24 26/26/23 24/27/25 33/28/26
f 33/28/26 24/27/25 20/20/20 28/19/19
f 23/29/27 34/30/28 27/31/29 19/32/30
f 34/30/28 33/28/26 28/19/19 27/31/29
f 25/33/31 32/34/32 34/30/28 23/29/27
f 32/34/32 31/25/24 33/28/26 34/30/28
f 21/35/33 30/36/34 32/37/32 25/38/31
f 30/36/34 29/22/22 31/24/24 32/37/32
f 19/32/30 27/31/29 30/36/34 21/35/33
f 27/31/29 28/19/19 29/22/22 30/36/34
o object6.085_object6.029
v -0.194126 0.391035 -0.183462
v -0.111383 0.360264 -0.120056
v -0.142404 0.376944 -0.121130
v -0.144828 0.357428 -0.094259
v -0.099822 0.343842 -0.076351
v -0.100992 0.306462 -0.037774
v -0.056259 0.309103 -0.072095
v -0.063808 0.286750 -0.039683
v -0.031140 0.214870 -0.006365
vt 0.442952 -0.000622
vt 0.462559 0.224940
vt 0.862566 0.312370
vt 0.077847 0.313461
vt 0.481831 0.446646
vt -0.003348 0.625466
vt 0.997976 0.624074
vt 0.505172 0.715177
vt 0.529946 1.000181
vn 0.0506 0.9823 0.1801
vn 0.0886 0.9628 0.2554
vn 0.4953 0.8609 0.1161
vn -0.0852 0.7937 0.6024
vn 0.3262 0.8135 0.4815
vn 0.2924 0.6546 0.6971
vn 0.5436 0.6767 0.4965
vn 0.4813 0.5724 0.6639
vn 0.4933 0.5402 0.6818
usemtl Leaf
s 1
f 35/39/35 37/40/36 36/41/37
f 37/40/36 35/39/35 38/42/38
f 39/43/39 37/40/36 38/42/38
f 38/42/38 40/44/40 39/43/39
f 41/45/41 36/41/37 39/43/39
f 39/43/39 42/46/42 41/45/41
f 43/47/43 41/45/41 42/46/42
f 40/44/40 43/47/43 42/46/42
f 42/46/42 39/43/39 40/44/40
f 37/40/36 39/43/39 36/41/37
o Cone.109_Cone.133
v -0.198554 0.550502 -0.047212
v -0.172135 0.578419 -0.019286
v -0.182226 0.567756 0.025898
v -0.211896 0.563127 -0.006797
v -0.214881 0.533247 0.025898
v -0.224972 0.522584 -0.019286
vt 0.791667 0.270833
vt 0.791667 0.729167
vt 0.500000 0.500000
vt 0.375000 0.854167
vt 0.145833 0.500000
vt 0.375000 0.145833
vn -0.6612 0.6257 -0.4138
vn -0.9317 0.3399 -0.1278
vn -0.7263 0.6873 0.0000
vn -0.8284 0.4490 0.3348
vn -0.4941 0.8024 0.3348
vn -0.3907 0.9116 -0.1278
usemtl Flower_Stamen
s 1
f 44/48/44 49/49/45 47/50/46
f 48/51/47 46/52/48 47/50/46
f 47/50/46 46/52/48 45/53/49
f 47/50/46 45/53/49 44/48/44
f 49/49/45 48/51/47 47/50/46
o Cone.110_Cone.134
v -0.150398 0.679278 0.167500
v -0.324478 0.495317 0.167500
v -0.378272 0.438471 -0.073373
v -0.183524 0.536279 -0.006797
v -0.237438 0.587298 -0.222241
v -0.096604 0.736124 -0.073373
v -0.223539 0.574146 -0.114519
v -0.267060 0.528156 0.080351
v -0.180019 0.620136 0.080351
v -0.293957 0.499732 -0.040085
v -0.153122 0.648559 -0.040085
vt 0.638672 0.658203
vt 0.501953 0.466797
vt 0.732422 0.386719
vt 0.498047 0.234375
vt 0.279297 0.390625
vt 0.361328 0.652344
vt 0.224609 0.839844
vt 0.759766 0.843750
vt 0.062500 0.312500
vt 0.496094 0.011719
vt 0.939453 0.314453
vn -0.8072 0.5503 -0.2135
vn -0.7263 0.6873 0.0000
vn -0.5940 0.7756 -0.2135
vn -0.5281 0.8452 0.0815
vn -0.7006 0.6630 0.2639
vn -0.8731 0.4807 0.0815
vn -0.8295 0.5559 0.0540
vn -0.7858 0.6021 -0.1415
vn -0.7151 0.6767 0.1749
vn -0.6008 0.7975 0.0540
vn -0.6445 0.7514 -0.1415
usemtl Flower_5_Point_Blue
s 1
f 58/54/50 53/55/51 57/56/52
f 57/56/52 53/55/51 59/57/53
f 59/57/53 53/55/51 56/58/54
f 56/58/54 53/55/51 60/59/55
f 60/59/55 53/55/51 58/54/50
f 55/60/56 60/59/55 58/54/50 50/61/57
f 54/62/58 56/58/54 60/59/55 55/60/56
f 52/63/59 59/57/53 56/58/54 54/62/58
f 51/64/60 57/56/52 59/57/53 52/63/59
f 50/61/57 58/54/50 57/56/52 51/64/60
o Cone.111_Cone.135
v -0.182676 0.563251 0.022819
v -0.172898 0.573585 -0.016832
v -0.195795 0.549388 -0.042615
v -0.176992 0.530098 -0.006797
v -0.219725 0.524100 -0.018899
v -0.211617 0.532668 0.021541
vt 0.828125 0.703125
vt 0.156250 0.703125
vt 0.500000 0.382812
vt 0.828125 0.703125
vt 0.156250 0.703125
vt 0.828125 0.703125
vt 0.156250 0.703125
vn 0.8131 -0.3040 0.4964
vn 0.3281 -0.8166 0.4749
vn 0.7263 -0.6873 0.0000
vn 0.1922 -0.9601 -0.2028
vn 0.5932 -0.5363 -0.6003
vn 0.9770 -0.1308 -0.1682
usemtl Flower_Stem
s 1
f 61/65/61 66/66/62 64/67/63
f 65/68/64 63/69/65 64/67/63
f 64/67/63 63/70/65 62/71/66
f 64/67/63 62/71/66 61/65/61
f 66/66/62 65/68/64 64/67/63
