# Blender v2.90.0 OBJ File: 'Nature Kit.blend'
# www.blender.org
mtllib Flower_Balloon_1.mtl
o object6.086_object6.030
v 0.082904 0.337734 0.291404
v 0.028602 0.308696 0.175044
v 0.062351 0.325926 0.194687
v 0.078738 0.302288 0.166415
v 0.039973 0.290202 0.120982
v 0.060292 0.245177 0.078614
v -0.006753 0.252358 0.089904
v 0.018034 0.224846 0.058495
v -0.003440 0.141299 0.000763
vt 0.442952 -0.000622
vt 0.462559 0.224940
vt 0.862566 0.312370
vt 0.077847 0.313461
vt 0.481831 0.446646
vt -0.003348 0.625466
vt 0.997976 0.624074
vt 0.505172 0.715177
vt 0.529946 1.000181
vn 0.1054 0.9842 -0.1425
vn 0.1061 0.9680 -0.2276
vn -0.3238 0.8972 -0.3003
vn 0.4116 0.7876 -0.4586
vn -0.0058 0.8386 -0.5447
vn 0.1152 0.6786 -0.7254
vn -0.1989 0.7191 -0.6659
vn -0.0719 0.6110 -0.7883
vn -0.0761 0.5800 -0.8110
usemtl Leaf
s 1
f 1/1/1 3/2/2 2/3/3
f 3/2/2 1/1/1 4/4/4
f 5/5/5 3/2/2 4/4/4
f 4/4/4 6/6/6 5/5/5
f 7/7/7 2/3/3 5/5/5
f 5/5/5 8/8/8 7/7/7
f 9/9/9 7/7/7 8/8/8
f 6/6/6 9/9/9 8/8/8
f 8/8/8 5/5/5 6/6/6
f 3/2/2 5/5/5 2/3/3
o object6.087_object6.031
v -0.145099 0.297019 -0.187401
v -0.081550 0.258943 -0.132743
v -0.106175 0.272694 -0.127946
v -0.121246 0.253881 -0.104921
v -0.084082 0.244452 -0.087971
v -0.085328 0.193863 -0.037792
v -0.032803 0.201919 -0.074958
v -0.038077 0.179760 -0.031449
v -0.000463 0.081374 -0.000327
vt 0.442952 -0.000622
vt 0.462559 0.224940
vt 0.862566 0.312370
vt 0.077847 0.313461
vt 0.481831 0.446646
vt -0.003348 0.625466
vt 0.997976 0.624074
vt 0.505172 0.715177
vt 0.529946 1.000181
vn 0.1112 0.9432 0.3131
vn 0.1724 0.9183 0.3563
vn 0.5230 0.8227 0.2228
vn -0.1353 0.7841 0.6057
vn 0.2355 0.8059 0.5432
vn 0.0446 0.6233 0.7807
vn 0.5978 0.6960 0.3977
vn 0.4409 0.5224 0.7298
vn 0.4788 0.4259 0.7677
usemtl Leaf
s 1
f 10/10/10 12/11/11 11/12/12
f 12/11/11 10/10/10 13/13/13
f 14/14/14 12/11/11 13/13/13
f 13/13/13 15/15/15 14/14/14
f 16/16/16 11/12/12 14/14/14
f 14/14/14 17/17/17 16/16/16
f 18/18/18 16/16/16 17/17/17
f 15/15/15 18/18/18 17/17/17
f 17/17/17 14/14/14 15/15/15
f 12/11/11 14/14/14 11/12/12
o Cube.131_Cube.256
v 0.010049 -0.001868 0.009557
v -0.154700 0.541930 0.005391
v -0.009606 0.000306 0.010163
v -0.159282 0.530086 0.007695
v 0.009614 -0.000306 -0.010161
v -0.154914 0.539545 -0.007292
v -0.010041 0.001868 -0.009555
v -0.159496 0.527701 -0.004988
v 0.009686 0.244359 0.012867
v -0.063411 0.465213 0.007304
v -0.076372 0.455101 0.008877
v -0.007893 0.243423 0.013391
v -0.077721 0.452883 -0.006467
v -0.008567 0.245368 -0.004122
v -0.064761 0.463056 -0.008039
v 0.009011 0.246305 -0.004645
vt 0.500000 0.664062
vt 0.500000 1.000000
vt 0.250000 1.000000
vt 0.250000 0.664062
vt 0.000000 1.000000
vt 0.000000 0.664062
vt 1.000000 0.664062
vt 1.000000 1.000000
vt 0.750000 1.000000
vt 0.750000 0.664062
vt 0.750000 0.000000
vt 0.750000 0.335938
vt 0.500000 0.335938
vt 0.500000 0.000000
vt 1.000000 0.000000
vt 1.000000 0.335938
vt 0.250000 0.000000
vt 0.250000 0.335938
vt -0.000000 0.335938
vt 0.000000 0.000000
vn 0.6648 0.4781 0.5739
vn 0.5452 0.6560 0.5220
vn -0.3354 -0.3499 0.8747
vn -0.4671 -0.2839 0.8373
vn -0.5168 -0.5600 -0.6475
vn -0.6054 -0.3923 -0.6926
vn 0.4504 0.5438 -0.7080
vn 0.5802 0.3740 -0.7235
vn 0.7248 0.0168 -0.6887
vn 0.7032 0.1263 -0.6996
vn 0.7543 0.1177 0.6459
vn 0.7384 -0.0075 0.6742
vn -0.7178 0.0202 -0.6959
vn -0.6949 -0.1160 -0.7096
vn -0.6459 -0.0060 0.7634
vn -0.6232 -0.0827 0.7776
usemtl Flower_Stem
s 1
f 28/19/19 20/20/20 22/21/21 29/22/22
f 29/22/22 22/21/21 26/23/23 31/24/24
f 31/25/24 26/26/23 24/27/25 33/28/26
f 33/28/26 24/27/25 20/20/20 28/19/19
f 23/29/27 34/30/28 27/31/29 19/32/30
f 34/30/28 33/28/26 28/19/19 27/31/29
f 25/33/31 32/34/32 34/30/28 23/29/27
f 32/34/32 31/25/24 33/28/26 34/30/28
f 21/35/33 30/36/34 32/37/32 25/38/31
f 30/36/34 29/22/22 31/24/24 32/37/32
f 19/32/30 27/31/29 30/36/34 21/35/33
f 27/31/29 28/19/19 29/22/22 30/36/34
o object6.088_object6.032
v 0.248282 0.352441 -0.099262
v 0.148634 0.299477 -0.031462
v 0.159309 0.324402 -0.064425
v 0.130960 0.300052 -0.079592
v 0.095608 0.275832 -0.036272
v 0.054960 0.229277 -0.056658
v 0.078497 0.227118 0.007493
v 0.045829 0.199895 -0.015950
v 0.002479 0.106898 -0.000247
vt 0.442952 -0.000622
vt 0.462559 0.224940
vt 0.862566 0.312370
vt 0.077847 0.313461
vt 0.481831 0.446646
vt -0.003348 0.625466
vt 0.997976 0.624074
vt 0.505172 0.715177
vt 0.529946 1.000181
vn -0.2619 0.9595 0.1034
vn -0.3433 0.9322 0.1147
vn -0.3217 0.7843 0.5304
vn -0.6102 0.7732 -0.1728
vn -0.6168 0.7445 0.2554
vn -0.8003 0.5828 0.1411
vn -0.6842 0.5803 0.4417
vn -0.8175 0.4782 0.3208
vn -0.8356 0.4441 0.3233
usemtl Leaf
s 1
f 35/39/35 37/40/36 36/41/37
f 37/40/36 35/39/35 38/42/38
f 39/43/39 37/40/36 38/42/38
f 38/42/38 40/44/40 39/43/39
f 41/45/41 36/41/37 39/43/39
f 39/43/39 42/46/42 41/45/41
f 43/47/43 41/45/41 42/46/42
f 40/44/40 43/47/43 42/46/42
f 42/46/42 39/43/39 40/44/40
f 37/40/36 39/43/39 36/41/37
o Cone.115_Cone.139
v -0.171091 0.539490 -0.039232
v -0.155856 0.573506 -0.012153
v -0.161675 0.560513 0.031663
v -0.187347 0.546771 -0.000042
v -0.180506 0.518468 0.031663
v -0.186326 0.505475 -0.012153
vt 0.791667 0.270833
vt 0.791667 0.729167
vt 0.500000 0.500000
vt 0.375000 0.854167
vt 0.145833 0.500000
vt 0.375000 0.145833
vn -0.8308 0.3721 -0.4138
vn -0.9917 0.0129 -0.1278
vn -0.9126 0.4087 0.0000
vn -0.9302 0.1501 0.3348
vn -0.7314 0.5941 0.3348
vn -0.6700 0.7313 -0.1278
usemtl Flower_Stamen
s 1
f 44/48/44 49/49/45 47/50/46
f 48/51/47 46/52/48 47/50/46
f 47/50/46 46/52/48 45/53/49
f 47/50/46 45/53/49 44/48/44
f 49/49/45 48/51/47 47/50/46
o Cone.116_Cone.140
v -0.168405 0.672838 0.168974
v -0.268792 0.448698 0.168974
v -0.299813 0.379434 -0.064601
v -0.152909 0.531347 -0.000042
v -0.218599 0.560768 -0.208957
v -0.137384 0.742102 -0.064601
v -0.201665 0.553184 -0.104500
v -0.226761 0.497148 0.084466
v -0.176568 0.609219 0.084466
v -0.242272 0.462517 -0.032321
v -0.161057 0.643851 -0.032321
vt 0.638672 0.658203
vt 0.501953 0.466797
vt 0.732422 0.386719
vt 0.498047 0.234375
vt 0.279297 0.390625
vt 0.361328 0.652344
vt 0.224609 0.839844
vt 0.759766 0.843750
vt 0.062500 0.312500
vt 0.496094 0.011719
vt 0.939453 0.314453
vn -0.9437 0.2527 -0.2135
vn -0.9126 0.4087 0.0000
vn -0.8169 0.5358 -0.2135
vn -0.7777 0.6233 0.0815
vn -0.8803 0.3942 0.2639
vn -0.9829 0.1652 0.0815
vn -0.9666 0.2506 0.0540
vn -0.9406 0.3086 -0.1415
vn -0.8986 0.4024 0.1749
vn -0.8306 0.5542 0.0540
vn -0.8565 0.4963 -0.1415
usemtl Flower_5_Point_Blue
s 1
f 58/54/50 53/55/51 57/56/52
f 57/56/52 53/55/51 59/57/53
f 59/57/53 53/55/51 56/58/54
f 56/58/54 53/55/51 60/59/55
f 60/59/55 53/55/51 58/54/50
f 55/60/56 60/59/55 58/54/50 50/61/57
f 54/62/58 56/58/54 60/59/55 55/60/56
f 52/63/59 59/57/53 56/58/54 54/62/58
f 51/64/60 57/56/52 59/57/53 52/63/59
f 50/61/57 58/54/50 57/56/52 51/64/60
o Cone.117_Cone.141
v -0.160774 0.556305 0.028676
v -0.155135 0.568895 -0.009772
v -0.168340 0.539413 -0.034774
v -0.144950 0.527783 -0.000042
v -0.182139 0.508602 -0.011778
v -0.177464 0.519041 0.027437
vt 0.828125 0.703125
vt 0.156250 0.703125
vt 0.500000 0.382812
vt 0.828125 0.703125
vt 0.156250 0.703125
vt 0.828125 0.703125
vt 0.156250 0.703125
vn 0.8679 -0.0182 0.4964
vn 0.5795 -0.6623 0.4749
vn 0.9126 -0.4087 0.0000
vn 0.4986 -0.8427 -0.2028
vn 0.7371 -0.3102 -0.6003
vn 0.9654 0.1993 -0.1682
usemtl Flower_Stem
s 1
f 61/65/61 66/66/62 64/67/63
f 65/68/64 63/69/65 64/67/63
f 64/67/63 63/70/65 62/71/66
f 64/67/63 62/71/66 61/65/61
f 66/66/62 65/68/64 64/67/63
