# Blender v2.90.0 OBJ File: 'Nature Kit.blend'
# www.blender.org
mtllib Flower_Violet_3.mtl
o object6.072_object6.016
v 0.067397 0.378567 0.261055
v -0.000211 0.342814 0.166180
v 0.030832 0.364402 0.177635
v 0.043427 0.345884 0.147765
v 0.001619 0.328137 0.114321
v 0.018395 0.290913 0.070027
v -0.039775 0.285546 0.094369
v -0.019744 0.265003 0.059771
v -0.036566 0.185413 0.008639
vt 0.442952 -0.000622
vt 0.462559 0.224940
vt 0.862566 0.312370
vt 0.077847 0.313461
vt 0.481831 0.446646
vt -0.003348 0.625466
vt 0.997976 0.624074
vt 0.505172 0.715177
vt 0.529946 1.000181
vn -0.1145 0.9865 -0.1173
vn -0.1302 0.9709 -0.2010
vn -0.5446 0.8194 -0.1790
vn 0.1426 0.8528 -0.5024
vn -0.2855 0.8232 -0.4907
vn -0.1812 0.6897 -0.7010
vn -0.4754 0.6693 -0.5710
vn -0.3619 0.5878 -0.7236
vn -0.3653 0.5566 -0.7462
usemtl Leaf
s 1
f 1/1/1 3/2/2 2/3/3
f 3/2/2 1/1/1 4/4/4
f 5/5/5 3/2/2 4/4/4
f 4/4/4 6/6/6 5/5/5
f 7/7/7 2/3/3 5/5/5
f 5/5/5 8/8/8 7/7/7
f 9/9/9 7/7/7 8/8/8
f 6/6/6 9/9/9 8/8/8
f 8/8/8 5/5/5 6/6/6
f 3/2/2 5/5/5 2/3/3
o Cube.085_Cube.251
v 0.011225 0.000061 0.006456
v -0.233213 0.592521 0.041658
v -0.006410 -0.001444 0.011157
v -0.243179 0.586605 0.044561
v 0.006410 0.001444 -0.011159
v -0.236647 0.592693 0.030217
v -0.011225 -0.000061 -0.006458
v -0.246613 0.586777 0.033119
v -0.030721 0.223705 0.019942
v -0.119435 0.428335 0.028816
v -0.134096 0.425295 0.032304
v -0.046002 0.219742 0.024008
v -0.138250 0.425494 0.018548
v -0.050629 0.221427 0.008446
v -0.123590 0.428533 0.015059
v -0.035347 0.225390 0.004380
vt 0.500000 0.664062
vt 0.500000 1.000000
vt 0.250000 1.000000
vt 0.250000 0.664062
vt 0.000000 1.000000
vt 0.000000 0.664062
vt 1.000000 0.664062
vt 1.000000 1.000000
vt 0.750000 1.000000
vt 0.750000 0.664062
vt 0.750000 0.000000
vt 0.750000 0.335938
vt 0.500000 0.335938
vt 0.500000 0.000000
vt 1.000000 0.000000
vt 1.000000 0.335938
vt 0.250000 0.000000
vt 0.250000 0.335938
vt -0.000000 0.335938
vt 0.000000 0.000000
vn 0.7725 0.3934 0.4983
vn 0.7222 0.4594 0.5171
vn -0.4462 -0.3633 0.8178
vn -0.4123 -0.2690 0.8704
vn -0.7237 -0.4388 -0.5326
vn -0.7495 -0.3756 -0.5451
vn 0.3540 0.3255 -0.8768
vn 0.4537 0.3164 -0.8331
vn 0.5327 0.1566 -0.8317
vn 0.5098 0.2138 -0.8333
vn 0.8402 0.2244 0.4936
vn 0.8609 0.1323 0.4912
vn -0.8485 -0.1158 -0.5163
vn -0.8175 -0.2192 -0.5325
vn -0.4422 -0.1311 0.8873
vn -0.4406 -0.1695 0.8815
usemtl Flower_Stem
s 1
f 19/10/10 11/11/11 13/12/12 20/13/13
f 20/13/13 13/12/12 17/14/14 22/15/15
f 22/16/15 17/17/14 15/18/16 24/19/17
f 24/19/17 15/18/16 11/11/11 19/10/10
f 14/20/18 25/21/19 18/22/20 10/23/21
f 25/21/19 24/19/17 19/10/10 18/22/20
f 16/24/22 23/25/23 25/21/19 14/20/18
f 23/25/23 22/16/15 24/19/17 25/21/19
f 12/26/24 21/27/25 23/28/23 16/29/22
f 21/27/25 20/13/13 22/15/15 23/28/23
f 10/23/21 18/22/20 21/27/25 12/26/24
f 18/22/20 19/10/10 20/13/13 21/27/25
o object6.077_object6.019
v -0.028738 0.500799 -0.191723
v -0.033665 0.439748 -0.086372
v -0.054626 0.459122 -0.113689
v -0.074605 0.428210 -0.107435
v -0.062868 0.404819 -0.057471
v -0.087279 0.350510 -0.048328
v -0.032319 0.364662 -0.020327
v -0.059271 0.328838 -0.017072
v -0.049535 0.238815 0.015067
vt 0.442952 -0.000622
vt 0.462559 0.224940
vt 0.862566 0.312370
vt 0.077847 0.313461
vt 0.481831 0.446646
vt -0.003348 0.625466
vt 0.997976 0.624074
vt 0.505172 0.715177
vt 0.529946 1.000181
vn -0.4100 0.8541 0.3201
vn -0.4488 0.8078 0.3822
vn -0.1102 0.7442 0.6588
vn -0.7707 0.5353 0.3457
vn -0.4803 0.5790 0.6588
vn -0.6295 0.3562 0.6905
vn -0.3498 0.4366 0.8289
vn -0.4883 0.2830 0.8255
vn -0.4881 0.2462 0.8373
usemtl Leaf
s 1
f 26/30/26 28/31/27 27/32/28
f 28/31/27 26/30/26 29/33/29
f 30/34/30 28/31/27 29/33/29
f 29/33/29 31/35/31 30/34/30
f 32/36/32 27/32/28 30/34/30
f 30/34/30 33/37/33 32/36/32
f 34/38/34 32/36/32 33/37/33
f 31/35/31 34/38/34 33/37/33
f 33/37/33 30/34/30 31/35/31
f 28/31/27 30/34/30 27/32/28
o Cone.097_Cone.121
v -0.258418 0.609104 -0.000459
v -0.228631 0.632951 0.026667
v -0.236472 0.620571 0.071131
v -0.267983 0.620085 0.040792
v -0.271106 0.589071 0.071485
v -0.284670 0.581985 0.027240
vt 0.791667 0.270833
vt 0.791667 0.729167
vt 0.500000 0.500000
vt 0.375000 0.854167
vt 0.145833 0.500000
vt 0.375000 0.145833
vn -0.6363 0.6959 -0.3328
vn -0.9091 0.4141 -0.0450
vn -0.6698 0.7374 0.0872
vn -0.7682 0.4878 0.4147
vn -0.4083 0.8151 0.4110
vn -0.3268 0.9437 -0.0509
usemtl Flower_Stamen
s 1
f 35/39/35 40/40/36 38/41/37
f 39/42/38 37/43/39 38/41/37
f 38/41/37 37/43/39 36/44/40
f 38/41/37 36/44/40 35/39/35
f 40/40/36 39/42/38 38/41/37
o Cone.098_Cone.122
v -0.200084 0.690539 0.174121
v -0.343044 0.560518 0.175583
v -0.399030 0.531266 -0.007050
v -0.242175 0.591670 0.037431
v -0.290671 0.643207 -0.121385
v -0.167716 0.741643 -0.009415
v -0.275611 0.627554 -0.040781
v -0.301798 0.586210 0.107703
v -0.230318 0.651220 0.106972
v -0.329791 0.571584 0.016387
v -0.214134 0.676773 0.015204
vt 0.638672 0.658203
vt 0.501953 0.466797
vt 0.732422 0.386719
vt 0.498047 0.234375
vt 0.279297 0.390625
vt 0.361328 0.652344
vt 0.224609 0.839844
vt 0.759766 0.843750
vt 0.062500 0.312500
vt 0.496094 0.011719
vt 0.939453 0.314453
vn -0.7745 0.6196 -0.1274
vn -0.6698 0.7374 0.0872
vn -0.5450 0.8283 -0.1297
vn -0.4551 0.8753 0.1634
vn -0.6291 0.6956 0.3470
vn -0.8264 0.5376 0.1672
vn -0.7790 0.6109 0.1409
vn -0.7446 0.6653 -0.0543
vn -0.6482 0.7156 0.2601
vn -0.5329 0.8347 0.1384
vn -0.5925 0.8036 -0.0558
usemtl Flower_5_Point_Violet
s 1
f 49/45/41 44/46/42 48/47/43
f 48/47/43 44/46/42 50/48/44
f 50/48/44 44/46/42 47/49/45
f 47/49/45 44/46/42 51/50/46
f 51/50/46 44/46/42 49/45/41
f 46/51/47 51/50/46 49/45/41 41/52/48
f 45/53/49 47/49/45 51/50/46 46/51/47
f 43/54/50 50/48/44 47/49/45 45/53/49
f 42/55/51 48/47/43 50/48/44 43/54/50
f 41/52/48 49/45/41 48/47/43 42/55/51
o Cone.099_Cone.123
v -0.261860 0.615199 0.205126
v -0.384815 0.516763 0.093156
v -0.352448 0.567868 -0.090381
v -0.237185 0.586176 0.036782
v -0.209488 0.697888 -0.091843
v -0.153502 0.727141 0.090790
v -0.232282 0.651881 -0.026366
v -0.319945 0.561318 0.066133
v -0.258468 0.610536 0.122118
v -0.303762 0.586870 -0.025635
v -0.204289 0.666507 0.064951
vt 0.638672 0.658203
vt 0.501953 0.466797
vt 0.732422 0.386719
vt 0.498047 0.234375
vt 0.279297 0.390625
vt 0.361328 0.652344
vt 0.224609 0.839844
vt 0.759766 0.843750
vt 0.062500 0.312500
vt 0.496094 0.011719
vt 0.939453 0.314453
vn -0.6652 0.7297 -0.1581
vn -0.6698 0.7374 0.0872
vn -0.4830 0.8755 0.0078
vn -0.5310 0.7998 0.2798
vn -0.7429 0.6071 0.2820
vn -0.8258 0.5638 0.0113
vn -0.7742 0.6317 0.0393
vn -0.6716 0.7377 -0.0689
vn -0.7212 0.6594 0.2123
vn -0.5858 0.7825 0.2109
vn -0.5552 0.8309 0.0371
usemtl Flower_5_Point_Violet
s 1
f 60/56/52 55/57/53 59/58/54
f 59/58/54 55/57/53 61/59/55
f 61/59/55 55/57/53 58/60/56
f 58/60/56 55/57/53 62/61/57
f 62/61/57 55/57/53 60/56/52
f 57/62/58 62/61/57 60/56/52 52/63/59
f 56/64/60 58/60/56 62/61/57 57/62/58
f 54/65/61 61/59/55 58/60/56 56/64/60
f 53/66/62 59/58/54 61/59/55 54/65/61
f 52/63/59 60/56/52 59/58/54 53/66/62
o Cone.100_Cone.124
v -0.245043 0.595179 0.069115
v -0.224497 0.616404 0.047436
v -0.235113 0.610858 0.012808
v -0.231365 0.579768 0.036024
v -0.262219 0.586205 0.013085
v -0.268356 0.576515 0.047885
vt 0.828125 0.703125
vt 0.156250 0.703125
vt 0.500000 0.382812
vt 0.828125 0.703125
vt 0.156250 0.703125
vt 0.828125 0.703125
vt 0.156250 0.703125
vn 0.5741 -0.6253 0.5285
vn 0.1249 -0.9849 0.1194
vn 0.6698 -0.7374 -0.0872
vn 0.2431 -0.7982 -0.5511
vn 0.7654 -0.3232 -0.5564
vn 0.9700 -0.2163 0.1108
usemtl Flower_Stem
s 1
f 63/67/63 68/68/64 66/69/65
f 67/70/66 65/71/67 66/69/65
f 66/69/65 65/72/67 64/73/68
f 66/69/65 64/73/68 63/67/63
f 68/68/64 67/70/66 66/69/65
