# Blender v2.90.0 OBJ File: 'Nature Kit.blend'
# www.blender.org
mtllib Flower_Sunflower_2.mtl
o object6.055_object6.003
v -0.111118 0.336335 -0.226446
v -0.041471 0.265045 -0.123397
v -0.078352 0.291546 -0.133286
v -0.095074 0.259018 -0.108971
v -0.049055 0.229215 -0.071596
v -0.070595 0.170215 -0.038775
v 0.000965 0.176754 -0.058240
v -0.024833 0.139765 -0.030632
v -0.003674 0.032995 -0.000158
vt 0.442952 -0.000622
vt 0.462559 0.224940
vt 0.862566 0.312370
vt 0.077847 0.313461
vt 0.481831 0.446646
vt -0.003348 0.625466
vt 0.997976 0.624074
vt 0.505172 0.715177
vt 0.529946 1.000181
vn 0.0102 0.9026 0.4304
vn 0.0174 0.8620 0.5065
vn 0.4436 0.7463 0.4962
vn -0.2764 0.6408 0.7162
vn 0.1511 0.6380 0.7551
vn 0.0359 0.4396 0.8975
vn 0.3437 0.4762 0.8094
vn 0.2213 0.3449 0.9122
vn 0.2249 0.3084 0.9243
usemtl Leaf
s 1
f 1/1/1 3/2/2 2/3/3
f 3/2/2 1/1/1 4/4/4
f 5/5/5 3/2/2 4/4/4
f 4/4/4 6/6/6 5/5/5
f 7/7/7 2/3/3 5/5/5
f 5/5/5 8/8/8 7/7/7
f 9/9/9 7/7/7 8/8/8
f 6/6/6 9/9/9 8/8/8
f 8/8/8 5/5/5 6/6/6
f 3/2/2 5/5/5 2/3/3
o object6.057_object6.004
v 0.183805 0.310220 0.204361
v 0.105060 0.266696 0.160140
v 0.126494 0.287247 0.150717
v 0.136375 0.274831 0.118069
v 0.093819 0.260150 0.110497
v 0.084509 0.216323 0.047133
v 0.043004 0.206924 0.103485
v 0.036104 0.192655 0.052408
v 0.000780 0.086833 0.009296
vt 0.442952 -0.000622
vt 0.462559 0.224940
vt 0.862566 0.312370
vt 0.077847 0.313461
vt 0.481831 0.446646
vt -0.003348 0.625466
vt 0.997976 0.624074
vt 0.505172 0.715177
vt 0.529946 1.000181
vn -0.3301 0.9426 -0.0510
vn -0.3982 0.9139 -0.0788
vn -0.6703 0.7311 0.1271
vn -0.1738 0.8857 -0.4305
vn -0.5034 0.8243 -0.2589
vn -0.3781 0.7247 -0.5761
vn -0.7808 0.6235 -0.0416
vn -0.7194 0.5417 -0.4348
vn -0.7545 0.4475 -0.4801
usemtl Leaf
s 1
f 10/10/10 12/11/11 11/12/12
f 12/11/11 10/10/10 13/13/13
f 14/14/14 12/11/11 13/13/13
f 13/13/13 15/15/15 14/14/14
f 16/16/16 11/12/12 14/14/14
f 14/14/14 17/17/17 16/16/16
f 18/18/18 16/16/16 17/17/17
f 15/15/15 18/18/18 17/17/17
f 17/17/17 14/14/14 15/15/15
f 12/11/11 14/14/14 11/12/12
o Cube.080_Cube.246
v 0.012613 -0.000148 0.008542
v -0.095633 0.624736 0.037958
v -0.008493 -0.001872 0.012507
v -0.116522 0.620940 0.041616
v 0.008493 0.001872 -0.012507
v -0.099720 0.626951 0.016922
v -0.012613 0.000148 -0.008542
v -0.120609 0.623155 0.020579
v -0.003426 0.209434 0.021167
v -0.037424 0.407848 0.030860
v -0.059968 0.411168 0.034315
v -0.024548 0.207708 0.025124
v -0.064093 0.413386 0.013285
v -0.028777 0.210666 0.004165
v -0.041549 0.410066 0.009829
v -0.007655 0.212392 0.000209
vt 0.500000 0.664062
vt 0.500000 1.000000
vt 0.250000 1.000000
vt 0.250000 0.664062
vt 0.000000 1.000000
vt 0.000000 0.664062
vt 1.000000 0.664062
vt 1.000000 1.000000
vt 0.750000 1.000000
vt 0.750000 0.664062
vt 0.750000 0.000000
vt 0.750000 0.335938
vt 0.500000 0.335938
vt 0.500000 0.000000
vt 1.000000 0.000000
vt 1.000000 0.335938
vt 0.250000 0.000000
vt 0.250000 0.335938
vt -0.000000 0.335938
vt 0.000000 0.000000
vn 0.8045 0.1489 0.5749
vn 0.7927 0.1931 0.5781
vn -0.6085 -0.1902 0.7704
vn -0.5484 -0.1503 0.8226
vn -0.7818 -0.1907 -0.5936
vn -0.7914 -0.1556 -0.5911
vn 0.5064 0.1642 -0.8465
vn 0.5766 0.1632 -0.8005
vn 0.5735 0.0931 -0.8139
vn 0.5772 0.1176 -0.8081
vn 0.8234 0.0690 0.5632
vn 0.8175 0.0280 0.5752
vn -0.8329 -0.0305 -0.5526
vn -0.8115 -0.0726 -0.5798
vn -0.5445 -0.0920 0.8337
vn -0.5465 -0.1106 0.8301
usemtl Flower_Stem
s 1
f 28/19/19 20/20/20 22/21/21 29/22/22
f 29/22/22 22/21/21 26/23/23 31/24/24
f 31/25/24 26/26/23 24/27/25 33/28/26
f 33/28/26 24/27/25 20/20/20 28/19/19
f 23/29/27 34/30/28 27/31/29 19/32/30
f 34/30/28 33/28/26 28/19/19 27/31/29
f 25/33/31 32/34/32 34/30/28 23/29/27
f 32/34/32 31/25/24 33/28/26 34/30/28
f 21/35/33 30/36/34 32/37/32 25/38/31
f 30/36/34 29/22/22 31/24/24 32/37/32
f 19/32/30 27/31/29 30/36/34 21/35/33
f 27/31/29 28/19/19 29/22/22 30/36/34
o Cylinder.074_Cylinder.149
v -0.127943 0.654250 0.023377
v -0.277808 0.556947 0.044539
v -0.259346 0.552999 -0.046314
v -0.203688 0.572585 -0.117933
v -0.125748 0.610455 -0.151128
v -0.046410 0.656463 -0.137005
v 0.013068 0.698281 -0.079347
v 0.036748 0.724703 0.006396
v 0.018285 0.728651 0.097249
v -0.037373 0.709065 0.168868
v -0.115313 0.671195 0.202063
v -0.194651 0.625187 0.187940
v -0.254128 0.583369 0.130282
v -0.243733 0.586754 0.038406
v -0.229853 0.583787 -0.029897
v -0.188010 0.598511 -0.083739
v -0.129416 0.626981 -0.108695
v -0.069770 0.661570 -0.098077
v -0.007253 0.712872 0.009730
v -0.021133 0.715840 0.078032
v -0.062976 0.701115 0.131875
v -0.121571 0.672645 0.156831
v -0.181216 0.638057 0.146213
v -0.225931 0.606618 0.102866
v -0.025056 0.693008 -0.054731
v -0.169512 0.613204 0.031665
v -0.163687 0.611958 0.003001
v -0.146127 0.618138 -0.019595
v -0.121537 0.630086 -0.030068
v -0.096506 0.644601 -0.025612
v -0.070270 0.666131 0.019631
v -0.076095 0.667376 0.048295
v -0.093655 0.661197 0.070891
v -0.118245 0.649249 0.081364
v -0.143276 0.634733 0.076908
v -0.162041 0.621540 0.058717
v -0.077741 0.657795 -0.007421
v -0.151107 0.638035 0.026850
v -0.139414 0.640502 0.001220
v -0.114603 0.653734 -0.001788
v -0.101485 0.664499 0.020833
v -0.113178 0.662032 0.046463
v -0.137988 0.648800 0.049472
vt 0.408203 0.875000
vt 0.375000 1.001953
vt 0.140625 0.873047
vt 0.230469 0.779297
vt 0.605469 0.871094
vt 0.642578 0.998047
vt 0.779297 0.769531
vt 0.873047 0.859375
vt 0.875000 0.591797
vt 1.001953 0.625000
vt 0.871094 0.394531
vt 0.998047 0.357422
vt 0.769531 0.220703
vt 0.859375 0.126953
vt 0.591797 0.125000
vt 0.625000 -0.001953
vt 0.394531 0.128906
vt 0.357422 0.001953
vt 0.220703 0.230469
vt 0.126953 0.140625
vt 0.125000 0.408203
vt -0.001953 0.375000
vt 0.128906 0.605469
vt 0.001953 0.642578
vt 0.386719 0.585938
vt 0.347656 0.517578
vt 0.345703 0.441406
vt 0.380859 0.373047
vt 0.449219 0.333984
vt 0.525391 0.332031
vt 0.593750 0.369141
vt 0.636719 0.511719
vt 0.597656 0.580078
vt 0.531250 0.621094
vt 0.455078 0.623047
vt 0.634766 0.435547
vt 0.563477 0.495117
vt 0.541992 0.423828
vt 0.438477 0.532227
vt 0.510742 0.549805
vt 0.469727 0.406250
vt 0.417969 0.459961
vt 0.490234 0.478516
vn -0.5329 0.8303 -0.1632
vn -0.6421 0.7336 -0.2223
vn -0.6655 0.7386 -0.1074
vn -0.5402 0.8318 -0.1271
vn -0.5108 0.8380 -0.1917
vn -0.5717 0.7584 -0.3129
vn -0.4798 0.8531 -0.2049
vn -0.4731 0.8063 -0.3549
vn -0.4483 0.8714 -0.1993
vn -0.3727 0.8646 -0.3370
vn -0.4246 0.8880 -0.1763
vn -0.2974 0.9175 -0.2641
vn -0.4152 0.8985 -0.1422
vn -0.2675 0.9509 -0.1556
vn -0.4226 0.9001 -0.1061
vn -0.2908 0.9559 -0.0407
vn -0.4447 0.8923 -0.0777
vn -0.3612 0.9311 0.0499
vn -0.4757 0.8773 -0.0645
vn -0.4599 0.8832 0.0919
vn -0.5072 0.8589 -0.0701
vn -0.5603 0.8250 0.0741
vn -0.5308 0.8423 -0.0930
vn -0.6355 0.7721 0.0011
vn -0.5627 0.8173 -0.1239
vn -0.5458 0.8340 -0.0804
vn -0.5172 0.8546 -0.0454
vn -0.4742 0.8793 -0.0433
vn -0.4311 0.9005 -0.0559
vn -0.4053 0.9090 -0.0974
vn -0.3905 0.9091 -0.1448
vn -0.4361 0.8718 -0.2233
vn -0.4796 0.8480 -0.2255
vn -0.5221 0.8258 -0.2128
vn -0.5485 0.8184 -0.1715
vn -0.4080 0.8933 -0.1885
vn -0.3374 0.8551 -0.3936
vn -0.2021 0.9662 -0.1602
vn -0.7141 0.6931 -0.0981
vn -0.5935 0.7185 -0.3626
vn -0.3227 0.9407 0.1043
vn -0.5788 0.8042 0.1353
vn -0.4790 0.8674 -0.1350
usemtl Flower_Sunflower
s 1
f 49/39/35 37/40/36 36/41/37 48/42/38
f 50/43/39 38/44/40 37/40/36 49/39/35
f 51/45/41 39/46/42 38/44/40 50/43/39
f 52/47/43 40/48/44 39/46/42 51/45/41
f 59/49/45 41/50/46 40/48/44 52/47/43
f 53/51/47 42/52/48 41/50/46 59/49/45
f 54/53/49 43/54/50 42/52/48 53/51/47
f 55/55/51 44/56/52 43/54/50 54/53/49
f 56/57/53 45/58/54 44/56/52 55/55/51
f 57/59/55 46/60/56 45/58/54 56/57/53
f 58/61/57 47/62/58 46/60/56 57/59/55
f 48/42/38 36/41/37 47/62/58 58/61/57
f 60/63/59 48/42/38 58/61/57 70/64/60
f 70/64/60 58/61/57 57/59/55 69/65/61
f 69/65/61 57/59/55 56/57/53 68/66/62
f 68/66/62 56/57/53 55/55/51 67/67/63
f 67/67/63 55/55/51 54/53/49 66/68/64
f 66/68/64 54/53/49 53/51/47 65/69/65
f 64/70/66 52/47/43 51/45/41 63/71/67
f 63/71/67 51/45/41 50/43/39 62/72/68
f 62/72/68 50/43/39 49/39/35 61/73/69
f 61/73/69 49/39/35 48/42/38 60/63/59
f 65/69/65 53/51/47 59/49/45 71/74/70
f 71/74/70 59/49/45 52/47/43 64/70/66
f 71/74/70 64/70/66 74/75/71
f 75/76/72 65/69/65 71/74/70
f 61/73/69 60/63/59 72/77/73
f 73/78/74 62/72/68 61/73/69
f 63/71/67 62/72/68 73/78/74
f 74/75/71 64/70/66 63/71/67
f 66/68/64 65/69/65 75/76/72
f 76/79/75 67/67/63 66/68/64
f 68/66/62 67/67/63 76/79/75
f 77/80/76 69/65/61 68/66/62
f 70/64/60 69/65/61 77/80/76
f 72/77/73 60/63/59 70/64/60
f 77/80/76 35/81/77 72/77/73
f 68/66/62 76/79/75 77/80/76
f 76/79/75 35/81/77 77/80/76
f 75/76/72 35/81/77 76/79/75
f 73/78/74 35/81/77 74/75/71
f 72/77/73 35/81/77 73/78/74
f 74/75/71 35/81/77 75/76/72
f 61/73/69 72/77/73 73/78/74
f 66/68/64 75/76/72 76/79/75
f 71/74/70 74/75/71 75/76/72
f 63/71/67 73/78/74 74/75/71
f 70/64/60 77/80/76 72/77/73
o Cylinder.080_Cylinder.150
v -0.103697 0.610341 0.030214
v -0.176500 0.608139 0.032742
v -0.169787 0.606703 -0.000288
v -0.149551 0.613822 -0.026326
v -0.121215 0.627590 -0.038394
v -0.092371 0.644316 -0.033259
v -0.070748 0.659521 -0.012297
v -0.062140 0.669128 0.018875
v -0.068853 0.670564 0.051905
v -0.089089 0.663445 0.077943
v -0.117425 0.649678 0.090011
v -0.146269 0.632951 0.084877
v -0.167892 0.617747 0.063915
vt 1.000000 0.687500
vt 1.000000 0.171875
vt 0.921875 0.171875
vt 0.921875 0.687500
vt 0.828125 0.171875
vt 0.828125 0.687500
vt 0.750000 0.171875
vt 0.750000 0.687500
vt 0.671875 0.171875
vt 0.671875 0.687500
vt 0.578125 0.171875
vt 0.578125 0.687500
vt 0.500000 0.171875
vt 0.500000 0.687500
vt 0.421875 0.171875
vt 0.421875 0.687500
vt 0.328125 0.171875
vt 0.328125 0.687500
vt 0.250000 0.171875
vt 0.250000 0.687500
vt 0.171875 0.171875
vt 0.171875 0.687500
vt 0.078125 0.171875
vt 0.078125 0.687500
vt 0.000000 0.171875
vn 0.4790 -0.8674 0.1350
vn 0.0356 -0.9850 0.1684
vn 0.0817 -0.9949 -0.0584
vn 0.2207 -0.9460 -0.2372
vn 0.4153 -0.8515 -0.3201
vn 0.6134 -0.7366 -0.2848
vn 0.7618 -0.6322 -0.1409
vn 0.8209 -0.5662 0.0732
vn 0.7749 -0.5564 0.3000
vn 0.6359 -0.6053 0.4788
vn 0.4413 -0.6998 0.5617
vn 0.2432 -0.8147 0.5264
vn 0.0947 -0.9191 0.3825
usemtl Flower_Stem
s 1
f 78/82/78 79/83/79 80/84/80
f 78/85/78 80/84/80 81/86/81
f 78/87/78 81/86/81 82/88/82
f 78/89/78 82/88/82 83/90/83
f 78/91/78 83/90/83 84/92/84
f 78/93/78 84/92/84 85/94/85
f 78/95/78 85/94/85 86/96/86
f 78/97/78 86/96/86 87/98/87
f 78/99/78 87/98/87 88/100/88
f 78/101/78 88/100/88 89/102/89
f 78/103/78 89/102/89 90/104/90
f 78/105/78 90/104/90 79/106/79
