# Blender v2.90.0 OBJ File: 'Nature Kit.blend'
# www.blender.org
mtllib Flower_Balloon_2.mtl
o object6.083_object6.027
v -0.090204 0.273032 -0.183825
v -0.033666 0.215160 -0.100172
v -0.063605 0.236673 -0.108199
v -0.077180 0.210267 -0.088461
v -0.039822 0.186073 -0.058121
v -0.057308 0.138178 -0.031477
v 0.000784 0.143486 -0.047279
v -0.020159 0.113459 -0.024866
v -0.002983 0.026784 -0.000128
vt 0.442952 -0.000622
vt 0.462559 0.224940
vt 0.862566 0.312370
vt 0.077847 0.313461
vt 0.481831 0.446646
vt -0.003348 0.625466
vt 0.997976 0.624074
vt 0.505172 0.715177
vt 0.529946 1.000181
vn 0.0102 0.9026 0.4304
vn 0.0174 0.8620 0.5065
vn 0.4436 0.7463 0.4962
vn -0.2764 0.6408 0.7162
vn 0.1511 0.6380 0.7551
vn 0.0359 0.4396 0.8975
vn 0.3437 0.4762 0.8094
vn 0.2213 0.3449 0.9122
vn 0.2249 0.3084 0.9243
usemtl Leaf
s 1
f 1/1/1 3/2/2 2/3/3
f 3/2/2 1/1/1 4/4/4
f 5/5/5 3/2/2 4/4/4
f 4/4/4 6/6/6 5/5/5
f 7/7/7 2/3/3 5/5/5
f 5/5/5 8/8/8 7/7/7
f 9/9/9 7/7/7 8/8/8
f 6/6/6 9/9/9 8/8/8
f 8/8/8 5/5/5 6/6/6
f 3/2/2 5/5/5 2/3/3
o object6.084_object6.028
v 0.149211 0.251832 0.165898
v 0.085286 0.216500 0.129999
v 0.102686 0.233183 0.122350
v 0.110707 0.223104 0.095847
v 0.076161 0.211186 0.089700
v 0.068603 0.175608 0.038262
v 0.034910 0.167978 0.084008
v 0.029309 0.156395 0.042544
v 0.000633 0.070490 0.007547
vt 0.442952 -0.000622
vt 0.462559 0.224940
vt 0.862566 0.312370
vt 0.077847 0.313461
vt 0.481831 0.446646
vt -0.003348 0.625466
vt 0.997976 0.624074
vt 0.505172 0.715177
vt 0.529946 1.000181
vn -0.3301 0.9426 -0.0510
vn -0.3982 0.9139 -0.0788
vn -0.6703 0.7311 0.1271
vn -0.1738 0.8857 -0.4305
vn -0.5034 0.8243 -0.2589
vn -0.3781 0.7247 -0.5761
vn -0.7808 0.6235 -0.0416
vn -0.7194 0.5417 -0.4348
vn -0.7545 0.4475 -0.4801
usemtl Leaf
s 1
f 10/10/10 12/11/11 11/12/12
f 12/11/11 10/10/10 13/13/13
f 14/14/14 12/11/11 13/13/13
f 13/13/13 15/15/15 14/14/14
f 16/16/16 11/12/12 14/14/14
f 14/14/14 17/17/17 16/16/16
f 18/18/18 16/16/16 17/17/17
f 15/15/15 18/18/18 17/17/17
f 17/17/17 14/14/14 15/15/15
f 12/11/11 14/14/14 11/12/12
o Cube.130_Cube.255
v 0.010239 -0.000120 0.006935
v -0.077634 0.507152 0.030814
v -0.006894 -0.001520 0.010153
v -0.094591 0.504070 0.033783
v 0.006894 0.001520 -0.010153
v -0.080951 0.508950 0.013737
v -0.010239 0.000120 -0.006935
v -0.097908 0.505869 0.016706
v -0.002782 0.170016 0.017183
v -0.030380 0.331085 0.025052
v -0.048682 0.333780 0.027856
v -0.019928 0.168615 0.020395
v -0.052030 0.335581 0.010784
v -0.023361 0.171016 0.003381
v -0.033729 0.332886 0.007979
v -0.006215 0.172417 0.000170
vt 0.500000 0.664062
vt 0.500000 1.000000
vt 0.250000 1.000000
vt 0.250000 0.664062
vt 0.000000 1.000000
vt 0.000000 0.664062
vt 1.000000 0.664062
vt 1.000000 1.000000
vt 0.750000 1.000000
vt 0.750000 0.664062
vt 0.750000 0.000000
vt 0.750000 0.335938
vt 0.500000 0.335938
vt 0.500000 0.000000
vt 1.000000 0.000000
vt 1.000000 0.335938
vt 0.250000 0.000000
vt 0.250000 0.335938
vt -0.000000 0.335938
vt 0.000000 0.000000
vn 0.8045 0.1489 0.5749
vn 0.7927 0.1931 0.5781
vn -0.6085 -0.1902 0.7704
vn -0.5484 -0.1503 0.8226
vn -0.7818 -0.1907 -0.5936
vn -0.7914 -0.1556 -0.5911
vn 0.5064 0.1642 -0.8465
vn 0.5766 0.1632 -0.8005
vn 0.5735 0.0931 -0.8139
vn 0.5772 0.1176 -0.8081
vn 0.8234 0.0690 0.5632
vn 0.8175 0.0280 0.5752
vn -0.8329 -0.0305 -0.5526
vn -0.8115 -0.0726 -0.5798
vn -0.5445 -0.0920 0.8337
vn -0.5465 -0.1106 0.8301
usemtl Flower_Stem
s 1
f 28/19/19 20/20/20 22/21/21 29/22/22
f 29/22/22 22/21/21 26/23/23 31/24/24
f 31/25/24 26/26/23 24/27/25 33/28/26
f 33/28/26 24/27/25 20/20/20 28/19/19
f 23/29/27 34/30/28 27/31/29 19/32/30
f 34/30/28 33/28/26 28/19/19 27/31/29
f 25/33/31 32/34/32 34/30/28 23/29/27
f 32/34/32 31/25/24 33/28/26 34/30/28
f 21/35/33 30/36/34 32/37/32 25/38/31
f 30/36/34 29/22/22 31/24/24 32/37/32
f 19/32/30 27/31/29 30/36/34 21/35/33
f 27/31/29 28/19/19 29/22/22 30/36/34
o Cone.112_Cone.136
v -0.092875 0.518010 -0.017337
v -0.057546 0.532707 0.012071
v -0.072228 0.525974 0.057546
v -0.101033 0.534372 0.023884
v -0.116631 0.507116 0.056244
v -0.129392 0.502194 0.009964
vt 0.791667 0.270833
vt 0.791667 0.729167
vt 0.500000 0.500000
vt 0.375000 0.854167
vt 0.145833 0.500000
vt 0.375000 0.145833
vn -0.3474 0.8459 -0.4045
vn -0.7155 0.6865 -0.1293
vn -0.3911 0.9203 0.0100
vn -0.5868 0.7361 0.3371
vn -0.1393 0.9262 0.3503
vn 0.0087 0.9941 -0.1081
usemtl Flower_Stamen
s 1
f 35/39/35 40/40/36 38/41/37
f 39/42/38 37/43/39 38/41/37
f 38/41/37 37/43/39 36/44/40
f 38/41/37 36/44/40 35/39/35
f 40/40/36 39/42/38 38/41/37
o Cone.113_Cone.137
v -0.000366 0.614036 0.204684
v -0.237072 0.513508 0.197743
v -0.305098 0.487272 -0.048973
v -0.085523 0.497880 0.023488
v -0.110433 0.571585 -0.194510
v 0.077902 0.649930 -0.037741
v -0.105121 0.551539 -0.085328
v -0.168441 0.522500 0.110798
v -0.050087 0.572764 0.114268
v -0.202453 0.509382 -0.012560
v -0.010954 0.590711 -0.006944
vt 0.638672 0.658203
vt 0.501953 0.466797
vt 0.732422 0.386719
vt 0.498047 0.234375
vt 0.279297 0.390625
vt 0.361328 0.652344
vt 0.224609 0.839844
vt 0.759766 0.843750
vt 0.062500 0.312500
vt 0.496094 0.011719
vt 0.939453 0.314453
vn -0.5155 0.8312 -0.2080
vn -0.3911 0.9203 0.0099
vn -0.2301 0.9525 -0.1996
vn -0.1480 0.9841 0.0979
vn -0.3828 0.8824 0.2734
vn -0.6099 0.7880 0.0844
vn -0.5393 0.8400 0.0594
vn -0.4767 0.8687 -0.1344
vn -0.3887 0.9026 0.1846
vn -0.2332 0.9700 0.0683
vn -0.2875 0.9490 -0.1288
usemtl Flower_5_Point_Blue
s 1
f 49/45/41 44/46/42 48/47/43
f 48/47/43 44/46/42 50/48/44
f 50/48/44 44/46/42 47/49/45
f 47/49/45 44/46/42 51/50/46
f 51/50/46 44/46/42 49/45/41
f 46/51/47 51/50/46 49/45/41 41/52/48
f 45/53/49 47/49/45 51/50/46 46/51/47
f 43/54/50 50/48/44 47/49/45 45/53/49
f 42/55/51 48/47/43 50/48/44 43/54/50
f 41/52/48 49/45/41 48/47/43 42/55/51
o Cone.114_Cone.138
v -0.074419 0.522048 0.054294
v -0.060280 0.528490 0.014425
v -0.090866 0.515784 -0.012667
v -0.081950 0.489473 0.023397
v -0.123909 0.501489 0.010458
v -0.113745 0.505361 0.051842
vt 0.828125 0.703125
vt 0.156250 0.703125
vt 0.500000 0.382812
vt 0.828125 0.703125
vt 0.156250 0.703125
vt 0.828125 0.703125
vt 0.156250 0.703125
vn 0.6134 -0.6135 0.4973
vn -0.0354 -0.8888 0.4568
vn 0.3911 -0.9203 -0.0099
vn -0.2031 -0.9527 -0.2260
vn 0.3421 -0.7168 -0.6075
vn 0.8467 -0.5072 -0.1605
usemtl Flower_Stem
s 1
f 52/56/52 57/57/53 55/58/54
f 56/59/55 54/60/56 55/58/54
f 55/58/54 54/61/56 53/62/57
f 55/58/54 53/62/57 52/56/52
f 57/57/53 56/59/55 55/58/54
