# Blender v2.90.0 OBJ File: 'Nature Kit.blend'
# www.blender.org
mtllib Flower_Daisy_3.mtl
o object6.062_object6.009
v -0.142087 0.162399 0.002812
v -0.083287 0.141184 -0.010540
v -0.094863 0.152033 0.002794
v -0.084026 0.140508 0.014336
v -0.059513 0.130911 0.000834
v -0.043337 0.108791 0.016567
v -0.042296 0.109018 -0.016611
v -0.030910 0.095971 -0.000611
v -0.005456 0.052481 -0.001446
vt 0.442952 -0.000622
vt 0.462559 0.224940
vt 0.862566 0.312370
vt 0.077847 0.313461
vt 0.481831 0.446646
vt -0.003348 0.625466
vt 0.997976 0.624074
vt 0.505172 0.715177
vt 0.529946 1.000181
vn 0.2143 0.9761 0.0369
vn 0.2957 0.9536 0.0558
vn 0.4402 0.8299 -0.3429
vn 0.4474 0.7916 0.4163
vn 0.6143 0.7888 0.0209
vn 0.7530 0.6301 0.1896
vn 0.7572 0.6396 -0.1325
vn 0.8429 0.5375 0.0257
vn 0.8629 0.5045 0.0289
usemtl Leaf
s 1
f 1/1/1 3/2/2 2/3/3
f 3/2/2 1/1/1 4/4/4
f 5/5/5 3/2/2 4/4/4
f 4/4/4 6/6/6 5/5/5
f 7/7/7 2/3/3 5/5/5
f 5/5/5 8/8/8 7/7/7
f 9/9/9 7/7/7 8/8/8
f 6/6/6 9/9/9 8/8/8
f 8/8/8 5/5/5 6/6/6
f 3/2/2 5/5/5 2/3/3
o object6.063_object6.010
v 0.102460 0.142032 0.045005
v 0.062450 0.122801 0.039757
v 0.070393 0.130862 0.031701
v 0.069812 0.123540 0.017279
v 0.050597 0.117839 0.020824
v 0.037218 0.095672 -0.002131
v 0.027560 0.095334 0.027834
v 0.017255 0.086768 0.008110
v -0.004910 0.038844 0.000632
vt 0.442952 -0.000622
vt 0.462559 0.224940
vt 0.862566 0.312370
vt 0.077847 0.313461
vt 0.481831 0.446646
vt -0.003348 0.625466
vt 0.997976 0.624074
vt 0.505172 0.715177
vt 0.529946 1.000181
vn -0.3065 0.9500 -0.0588
vn -0.3806 0.9228 -0.0602
vn -0.5775 0.7800 0.2410
vn -0.2803 0.8434 -0.4583
vn -0.5397 0.8210 -0.1862
vn -0.5241 0.6805 -0.5121
vn -0.7384 0.6618 0.1296
vn -0.8071 0.5349 -0.2501
vn -0.8570 0.4386 -0.2704
usemtl Leaf
s 1
f 10/10/10 12/11/11 11/12/12
f 12/11/11 10/10/10 13/13/13
f 14/14/14 12/11/11 13/13/13
f 13/13/13 15/15/15 14/14/14
f 16/16/16 11/12/12 14/14/14
f 14/14/14 17/17/17 16/16/16
f 18/18/18 16/16/16 17/17/17
f 15/15/15 18/18/18 17/17/17
f 17/17/17 14/14/14 15/15/15
f 12/11/11 14/14/14 11/12/12
o Cube.082_Cube.248
v 0.006074 0.000000 0.003041
v -0.103788 0.318214 0.021218
v -0.003041 0.000000 0.006074
v -0.109075 0.315586 0.023319
v 0.003041 0.000000 -0.006074
v -0.105939 0.317845 0.015344
v -0.006074 0.000000 -0.003041
v -0.111226 0.315216 0.017445
v -0.009080 0.118555 -0.000178
v -0.049370 0.228435 0.003746
v -0.057012 0.227482 0.006140
v -0.017054 0.117169 0.002581
v -0.059612 0.227035 -0.000922
v -0.019915 0.117422 -0.005484
v -0.051971 0.227988 -0.003316
v -0.011941 0.118809 -0.008243
vt 0.500000 0.664062
vt 0.500000 1.000000
vt 0.250000 1.000000
vt 0.250000 0.664062
vt 0.000000 1.000000
vt 0.000000 0.664062
vt 1.000000 0.664062
vt 1.000000 1.000000
vt 0.750000 1.000000
vt 0.750000 0.664062
vt 0.750000 0.000000
vt 0.750000 0.335938
vt 0.500000 0.335938
vt 0.500000 0.000000
vt 1.000000 0.000000
vt 1.000000 0.335938
vt 0.250000 0.000000
vt 0.250000 0.335938
vt -0.000000 0.335938
vt 0.000000 0.000000
vn 0.8379 0.3631 0.4076
vn 0.7826 0.3757 0.4963
vn -0.3420 -0.3688 0.8643
vn -0.3455 -0.2672 0.8995
vn -0.8242 -0.4011 -0.3997
vn -0.8137 -0.3153 -0.4884
vn 0.2910 0.3608 -0.8860
vn 0.3847 0.2844 -0.8781
vn 0.4895 0.0454 -0.8708
vn 0.4591 0.1275 -0.8791
vn 0.8863 0.2093 0.4131
vn 0.8948 0.1264 0.4282
vn -0.8830 -0.1132 -0.4555
vn -0.8557 -0.2017 -0.4765
vn -0.3945 -0.0202 0.9186
vn -0.3949 -0.0899 0.9143
usemtl Flower_Stem
s 1
f 28/19/19 20/20/20 22/21/21 29/22/22
f 29/22/22 22/21/21 26/23/23 31/24/24
f 31/25/24 26/26/23 24/27/25 33/28/26
f 33/28/26 24/27/25 20/20/20 28/19/19
f 23/29/27 34/30/28 27/31/29 19/32/30
f 34/30/28 33/28/26 28/19/19 27/31/29
f 25/33/31 32/34/32 34/30/28 23/29/27
f 32/34/32 31/25/24 33/28/26 34/30/28
f 21/35/33 30/36/34 32/37/32 25/38/31
f 30/36/34 29/22/22 31/24/24 32/37/32
f 19/32/30 27/31/29 30/36/34 21/35/33
f 27/31/29 28/19/19 29/22/22 30/36/34
o Cylinder.086_Cylinder.155
v -0.104036 0.313327 0.018006
v -0.134021 0.310742 0.024101
v -0.134120 0.313789 0.011873
v -0.129415 0.320406 0.002236
v -0.121164 0.328821 -0.002229
v -0.111580 0.336779 -0.000324
v -0.103229 0.342147 0.007439
v -0.098351 0.343487 0.018981
v -0.098251 0.340440 0.031209
v -0.102957 0.333823 0.040846
v -0.111207 0.325408 0.045311
v -0.120792 0.317450 0.043406
v -0.129142 0.312082 0.035643
vt 1.000000 0.687500
vt 1.000000 0.171875
vt 0.921875 0.171875
vt 0.921875 0.687500
vt 0.828125 0.171875
vt 0.828125 0.687500
vt 0.750000 0.171875
vt 0.750000 0.687500
vt 0.671875 0.171875
vt 0.671875 0.687500
vt 0.578125 0.171875
vt 0.578125 0.687500
vt 0.500000 0.171875
vt 0.500000 0.687500
vt 0.421875 0.171875
vt 0.421875 0.687500
vt 0.328125 0.171875
vt 0.328125 0.687500
vt 0.250000 0.171875
vt 0.250000 0.687500
vt 0.171875 0.171875
vt 0.171875 0.687500
vt 0.078125 0.171875
vt 0.078125 0.687500
vt 0.000000 0.171875
vn 0.6492 -0.7367 -0.1889
vn 0.0683 -0.9940 -0.0856
vn 0.0658 -0.9177 -0.3917
vn 0.1835 -0.7520 -0.6330
vn 0.3901 -0.5414 -0.7448
vn 0.6300 -0.3422 -0.6971
vn 0.8390 -0.2078 -0.5027
vn 0.9612 -0.1743 -0.2138
vn 0.9637 -0.2505 0.0923
vn 0.8459 -0.4162 0.3335
vn 0.6393 -0.6269 0.4453
vn 0.3994 -0.8260 0.3976
vn 0.1904 -0.9604 0.2033
usemtl Flower_Stem
s 1
f 35/39/35 36/40/36 37/41/37
f 35/42/35 37/41/37 38/43/38
f 35/44/35 38/43/38 39/45/39
f 35/46/35 39/45/39 40/47/40
f 35/48/35 40/47/40 41/49/41
f 35/50/35 41/49/41 42/51/42
f 35/52/35 42/51/42 43/53/43
f 35/54/35 43/53/43 44/55/44
f 35/56/35 44/55/44 45/57/45
f 35/58/35 45/57/45 46/59/46
f 35/60/35 46/59/46 47/61/47
f 35/62/35 47/61/47 36/63/36
o Cone.080_Cone.104
v -0.120540 0.388028 -0.075503
v -0.066837 0.422625 -0.018983
v -0.053057 0.413270 0.064672
v -0.087273 0.365443 0.126458
v -0.149441 0.307161 0.130181
v -0.203144 0.272564 0.073660
v -0.216924 0.281919 -0.009995
v -0.182708 0.329745 -0.071780
v -0.108421 0.318767 0.019738
v -0.086108 0.371844 0.043741
v -0.092998 0.376521 0.001913
v -0.119849 0.359223 -0.026347
v -0.168041 0.306168 0.006408
v -0.161151 0.301491 0.048235
v -0.134300 0.318789 0.076495
v -0.103216 0.347930 0.074634
v -0.150933 0.330081 -0.024485
vt 0.397652 0.253380
vt 0.500000 0.500000
vt 0.253242 0.397985
vt 0.253380 0.602348
vt 0.397985 0.746757
vt 0.602348 0.746620
vt 0.746757 0.602015
vt 0.746620 0.397652
vt 0.602015 0.253242
vt 0.707065 0.000100
vt 0.292935 0.000100
vt 0.999900 0.292935
vt 0.999900 0.707065
vt 0.707065 0.999900
vt 0.292935 0.999900
vt 0.000100 0.707065
vt 0.000100 0.292935
vn -0.6734 0.5780 0.4609
vn -0.6653 0.7219 0.1903
vn -0.8193 0.4840 0.3073
vn -0.8568 0.5094 0.0799
vn -0.7638 0.6394 -0.0880
vn -0.5948 0.7978 -0.0982
vn -0.4488 0.8919 0.0554
vn -0.4113 0.8665 0.2828
vn -0.5043 0.7364 0.4508
vn -0.5613 0.7394 0.3718
vn -0.6778 0.6302 0.3788
vn -0.4971 0.8290 0.2561
vn -0.5230 0.8465 0.0993
vn -0.6236 0.7817 -0.0065
vn -0.7401 0.6725 0.0004
vn -0.8042 0.5829 0.1162
vn -0.7784 0.5654 0.2729
usemtl Flower_Daisy_White
s 1
f 59/64/48 56/65/49 58/66/50
f 58/66/50 56/65/49 57/67/51
f 57/67/51 56/65/49 63/68/52
f 63/68/52 56/65/49 62/69/53
f 62/69/53 56/65/49 61/70/54
f 61/70/54 56/65/49 60/71/55
f 60/71/55 56/65/49 64/72/56
f 64/72/56 56/65/49 59/64/48
f 55/73/57 64/72/56 59/64/48 48/74/58
f 54/75/59 60/71/55 64/72/56 55/73/57
f 53/76/60 61/70/54 60/71/55 54/75/59
f 52/77/61 62/69/53 61/70/54 53/76/60
f 51/78/62 63/68/52 62/69/53 52/77/61
f 50/79/63 57/67/51 63/68/52 51/78/62
f 49/80/64 58/66/50 57/67/51 50/79/63
f 48/74/58 59/64/48 58/66/50 49/80/64
o Cone.081_Cone.105
v -0.130395 0.342608 0.026024
v -0.098995 0.354418 0.009471
v -0.115207 0.344116 -0.008130
v -0.134267 0.326369 -0.007453
v -0.141146 0.308396 0.036671
v -0.124935 0.318698 0.054271
v -0.105874 0.336445 0.053595
v -0.095129 0.351240 0.035038
v -0.145012 0.311573 0.011104
vt 0.375000 0.791667
vt 0.500000 0.500000
vt 0.625000 0.791667
vt 0.791667 0.625000
vt 0.791667 0.375000
vt 0.625000 0.208333
vt 0.375000 0.208333
vt 0.208333 0.375000
vt 0.208333 0.625000
vn -0.7784 0.5954 -0.1988
vn -0.6653 0.7219 0.1903
vn -0.5461 0.8117 -0.2070
vn -0.3486 0.9372 0.0074
vn -0.3015 0.8985 0.3190
vn -0.4324 0.7182 0.5451
vn -0.6647 0.5019 0.5534
vn -0.8622 0.3764 0.3389
vn -0.9093 0.4151 0.0273
usemtl Flower_Stamen
s 1
f 68/81/65 65/82/66 67/83/67
f 67/83/67 65/82/66 66/84/68
f 66/84/68 65/82/66 72/85/69
f 72/85/69 65/82/66 71/86/70
f 71/86/70 65/82/66 70/87/71
f 70/87/71 65/82/66 69/88/72
f 69/88/72 65/82/66 73/89/73
f 73/89/73 65/82/66 68/81/65
