# Blender v2.90.0 OBJ File: 'Nature Kit.blend'
# www.blender.org
mtllib Grass_Clump_1.mtl
o object6.026_object6.041
v 0.262156 0.349810 -0.121444
v 0.139304 0.267598 -0.052153
v 0.154865 0.298158 -0.083265
v 0.130018 0.260647 -0.093775
v 0.082869 0.226277 -0.051828
v 0.049201 0.158237 -0.065179
v 0.061827 0.165779 -0.009638
v 0.034465 0.123123 -0.027090
v -0.001935 -0.000007 -0.006143
vt 0.442952 -0.000622
vt 0.462559 0.224940
vt 0.862566 0.312370
vt 0.077847 0.313461
vt 0.481831 0.446646
vt -0.003348 0.625466
vt 0.997976 0.624074
vt 0.505172 0.715177
vt 0.529946 1.000181
vn -0.4487 0.8921 -0.0541
vn -0.4994 0.8664 0.0022
vn -0.4585 0.7226 0.5174
vn -0.7059 0.5634 -0.4293
vn -0.7561 0.6426 0.1236
vn -0.9052 0.4220 -0.0496
vn -0.8197 0.4710 0.3259
vn -0.9244 0.3352 0.1821
vn -0.9368 0.3059 0.1701
usemtl Grass
s 1
f 1/1/1 3/2/2 2/3/3
f 3/2/2 1/1/1 4/4/4
f 5/5/5 3/2/2 4/4/4
f 4/4/4 6/6/6 5/5/5
f 7/7/7 2/3/3 5/5/5
f 5/5/5 8/8/8 7/7/7
f 9/9/9 7/7/7 8/8/8
f 6/6/6 9/9/9 8/8/8
f 8/8/8 5/5/5 6/6/6
f 3/2/2 5/5/5 2/3/3
o object6.054_object6.042
v -0.166522 0.324767 0.161246
v -0.120426 0.251437 0.085346
v -0.114436 0.276199 0.100260
v -0.092792 0.256785 0.107095
v -0.079404 0.230722 0.066955
v -0.034121 0.165725 0.056482
v -0.070988 0.160310 0.027449
v -0.031113 0.131484 0.014847
v -0.006300 -0.002824 -0.003800
vt 0.442952 -0.000622
vt 0.462559 0.224940
vt 0.862566 0.312370
vt 0.077847 0.313461
vt 0.481831 0.446646
vt -0.003348 0.625466
vt 0.997976 0.624074
vt 0.505172 0.715177
vt 0.529946 1.000181
vn 0.2230 0.8464 -0.4836
vn 0.2283 0.8079 -0.5432
vn -0.1728 0.5269 -0.8322
vn 0.7080 0.6888 -0.1557
vn 0.4171 0.6639 -0.6208
vn 0.7897 0.5143 -0.3345
vn 0.0042 0.4316 -0.9020
vn 0.5409 0.3020 -0.7850
vn 0.5771 0.2160 -0.7876
usemtl Grass
s 1
f 10/10/10 12/11/11 11/12/12
f 12/11/11 10/10/10 13/13/13
f 14/14/14 12/11/11 13/13/13
f 13/13/13 15/15/15 14/14/14
f 16/16/16 11/12/12 14/14/14
f 14/14/14 17/17/17 16/16/16
f 18/18/18 16/16/16 17/17/17
f 15/15/15 18/18/18 17/17/17
f 17/17/17 14/14/14 15/15/15
f 12/11/11 14/14/14 11/12/12
