# Blender v2.90.0 OBJ File: 'Nature Kit.blend'
# www.blender.org
mtllib Grass_Clump_4.mtl
o object6.055_object6.043
v -0.175820 0.367223 0.108872
v -0.097990 0.302893 0.043839
v -0.103281 0.334937 0.073767
v -0.082119 0.292227 0.084003
v -0.055492 0.265462 0.044243
v -0.026843 0.185295 0.057084
v -0.048180 0.197204 0.003467
v -0.023611 0.147811 0.020381
v 0.000296 0.000325 -0.000272
vt 0.442952 -0.000622
vt 0.462559 0.224940
vt 0.862566 0.312370
vt 0.077847 0.313461
vt 0.481831 0.446646
vt -0.003348 0.625466
vt 0.997976 0.624074
vt 0.505172 0.715177
vt 0.529946 1.000181
vn 0.4292 0.9013 0.0580
vn 0.5106 0.8571 -0.0689
vn 0.4378 0.6276 -0.6437
vn 0.8139 0.4594 0.3558
vn 0.8176 0.5143 -0.2588
vn 0.9476 0.2913 -0.1314
vn 0.8330 0.3278 -0.4456
vn 0.9185 0.2168 -0.3305
vn 0.9270 0.1951 -0.3203
usemtl Grass
s 1
f 1/1/1 3/2/2 2/3/3
f 3/2/2 1/1/1 4/4/4
f 5/5/5 3/2/2 4/4/4
f 4/4/4 6/6/6 5/5/5
f 7/7/7 2/3/3 5/5/5
f 5/5/5 8/8/8 7/7/7
f 9/9/9 7/7/7 8/8/8
f 6/6/6 9/9/9 8/8/8
f 8/8/8 5/5/5 6/6/6
f 3/2/2 5/5/5 2/3/3
o object6.057_object6.044
v 0.183966 0.499281 -0.144060
v 0.130308 0.410966 -0.080900
v 0.125599 0.442861 -0.105374
v 0.102996 0.399224 -0.120353
v 0.086356 0.377353 -0.083417
v 0.037095 0.260012 -0.084655
v 0.073581 0.278698 -0.032452
v 0.030869 0.227300 -0.037693
v 0.000317 -0.000906 -0.000309
vt 0.442952 -0.000622
vt 0.462559 0.224940
vt 0.862566 0.312370
vt 0.077847 0.313461
vt 0.481831 0.446646
vt -0.003348 0.625466
vt 0.997976 0.624074
vt 0.505172 0.715177
vt 0.529946 1.000181
vn -0.5957 0.7709 0.2256
vn -0.6061 0.7293 0.3174
vn -0.3598 0.5223 0.7731
vn -0.8655 0.4716 -0.1687
vn -0.7800 0.5090 0.3640
vn -0.9401 0.3315 0.0800
vn -0.5482 0.4008 0.7340
vn -0.8151 0.2496 0.5227
vn -0.8447 0.1948 0.4985
usemtl Grass
s 1
f 10/10/10 12/11/11 11/12/12
f 12/11/11 10/10/10 13/13/13
f 14/14/14 12/11/11 13/13/13
f 13/13/13 15/15/15 14/14/14
f 16/16/16 11/12/12 14/14/14
f 14/14/14 17/17/17 16/16/16
f 18/18/18 16/16/16 17/17/17
f 15/15/15 18/18/18 17/17/17
f 17/17/17 14/14/14 15/15/15
f 12/11/11 14/14/14 11/12/12
o object6.058_object6.045
v 0.050194 0.576544 0.251304
v 0.006356 0.453105 0.141195
v 0.036733 0.510448 0.158530
v 0.056586 0.453064 0.135801
v 0.022321 0.397083 0.092285
v 0.048790 0.287823 0.059756
v -0.018239 0.284645 0.066971
v 0.010382 0.220335 0.042186
v 0.000277 0.004035 -0.000067
vt 0.442952 -0.000622
vt 0.462559 0.224940
vt 0.862566 0.312370
vt 0.077847 0.313461
vt 0.481831 0.446646
vt -0.003348 0.625466
vt 0.997976 0.624074
vt 0.505172 0.715177
vt 0.529946 1.000181
vn -0.0536 0.8169 -0.5742
vn -0.0422 0.7609 -0.6475
vn -0.5808 0.4828 -0.6554
vn 0.4232 0.4412 -0.7913
vn -0.1196 0.4365 -0.8917
vn 0.0247 0.2767 -0.9606
vn -0.2533 0.2832 -0.9250
vn -0.1191 0.2080 -0.9708
vn -0.1162 0.1956 -0.9738
usemtl Grass
s 1
f 19/19/19 21/20/20 20/21/21
f 21/20/20 19/19/19 22/22/22
f 23/23/23 21/20/20 22/22/22
f 22/22/22 24/24/24 23/23/23
f 25/25/25 20/21/21 23/23/23
f 23/23/23 26/26/26 25/25/25
f 27/27/27 25/25/25 26/26/26
f 24/24/24 27/27/27 26/26/26
f 26/26/26 23/23/23 24/24/24
f 21/20/20 23/23/23 20/21/21
o object6.059_object6.046
v -0.159823 0.647602 -0.163062
v -0.069522 0.495753 -0.095066
v -0.103918 0.552200 -0.092612
v -0.110862 0.482915 -0.066709
v -0.060423 0.419433 -0.048220
v -0.068918 0.293761 -0.013562
v -0.013789 0.307690 -0.051597
v -0.027478 0.228903 -0.020159
v -0.000294 0.001479 -0.000219
vt 0.442952 -0.000622
vt 0.462559 0.224940
vt 0.862566 0.312370
vt 0.077847 0.313461
vt 0.481831 0.446646
vt -0.003348 0.625466
vt 0.997976 0.624074
vt 0.505172 0.715177
vt 0.529946 1.000181
vn 0.2876 0.6723 0.6822
vn 0.3473 0.6327 0.6922
vn 0.7712 0.4312 0.4684
vn 0.0096 0.3377 0.9412
vn 0.4912 0.3496 0.7978
vn 0.4080 0.2044 0.8898
vn 0.6197 0.2226 0.7526
vn 0.5430 0.1482 0.8265
vn 0.5354 0.1371 0.8334
usemtl Grass
s 1
f 28/28/28 30/29/29 29/30/30
f 30/29/29 28/28/28 31/31/31
f 32/32/32 30/29/29 31/31/31
f 31/31/31 33/33/33 32/32/32
f 34/34/34 29/30/30 32/32/32
f 32/32/32 35/35/35 34/34/34
f 36/36/36 34/34/34 35/35/35
f 33/33/33 36/36/36 35/35/35
f 35/35/35 32/32/32 33/33/33
f 30/29/29 32/32/32 29/30/30
o object6.060_object6.050
v 0.214416 0.346477 0.112842
v 0.134034 0.278634 0.098191
v 0.149468 0.310667 0.083706
v 0.148079 0.291313 0.052664
v 0.109543 0.268429 0.058800
v 0.082576 0.200113 0.007024
v 0.064138 0.185463 0.067874
v 0.042915 0.163221 0.025958
v -0.000135 -0.001732 -0.000649
vt 0.442952 -0.000622
vt 0.462559 0.224940
vt 0.862566 0.312370
vt 0.077847 0.313461
vt 0.481831 0.446646
vt -0.003348 0.625466
vt 0.997976 0.624074
vt 0.505172 0.715177
vt 0.529946 1.000181
vn -0.5082 0.8576 0.0788
vn -0.5703 0.8208 0.0311
vn -0.7453 0.5249 0.4111
vn -0.4468 0.7465 -0.4931
vn -0.7433 0.6557 -0.1329
vn -0.6888 0.5385 -0.4853
vn -0.8723 0.4241 0.2435
vn -0.9108 0.3541 -0.2123
vn -0.9392 0.2777 -0.2020
usemtl Grass
s 1
f 37/37/37 39/38/38 38/39/39
f 39/38/38 37/37/37 40/40/40
f 41/41/41 39/38/38 40/40/40
f 40/40/40 42/42/42 41/41/41
f 43/43/43 38/39/39 41/41/41
f 41/41/41 44/44/44 43/43/43
f 45/45/45 43/43/43 44/44/44
f 42/42/42 45/45/45 44/44/44
f 44/44/44 41/41/41 42/42/42
f 39/38/38 41/41/41 38/39/39
