# Blender v2.90.0 OBJ File: 'Nature Kit.blend'
# www.blender.org
mtllib Mountain_4.mtl
o Icosphere.035_Icosphere.136
v -24.744104 8.642061 3.272898
v -26.176239 -0.199312 -26.556225
v -22.677782 16.533657 -16.133602
v -1.771869 3.069206 -35.398792
v -14.380924 11.478106 -26.015867
v 12.018037 4.358759 27.491318
v 22.869314 12.781970 12.522038
v 17.483324 19.238413 6.623569
v -8.020286 16.268188 24.237555
v -15.939694 13.933635 16.236788
v -3.986978 28.490303 14.344402
v -12.339617 30.614830 3.153114
v 5.296336 37.245533 1.463623
v -6.394537 34.745743 -0.319754
v 20.069731 11.441553 -14.502977
v 15.266902 1.194934 -29.671387
v 18.029469 20.962357 -9.500445
v 1.631463 17.577005 -18.505341
v -16.175037 22.487156 -8.314604
v 0.319810 4.404359 -34.468822
v 10.370575 30.267323 -6.002994
v -5.709729 30.744652 -5.039882
v 26.866150 -1.230429 -5.394706
v -32.377716 -1.054337 -16.649286
v 13.668646 -1.191160 -31.185019
v 2.432031 -1.157731 -35.420429
v 16.265512 -1.198838 27.735725
v -26.463009 -1.071924 -26.208263
v 8.171099 -1.174855 30.195288
v -4.801330 -1.136297 -35.864521
v -26.467335 -1.071920 17.941341
v -16.284203 -1.102176 34.296692
v -28.255760 -1.066560 3.117577
v 16.528093 -1.199782 -26.709633
v -25.298920 -1.075326 21.060768
v 26.883942 -1.230561 14.727659
vt 1.233146 0.493097
vt 1.175060 0.749727
vt 1.058412 0.636021
vt 0.865153 0.501004
vt 0.899908 0.435003
vt 1.243894 0.481520
vt 1.034429 1.106571
vt 1.073565 0.998233
vt 1.236926 1.152678
vt 1.126158 1.255977
vt 0.953857 1.014282
vt 1.016531 0.990826
vt 0.899944 0.783998
vt 0.842916 0.528380
vt 1.115599 0.867835
vt 1.010608 0.943594
vt 0.896189 0.971115
vt 1.353053 0.956020
vt 0.737204 1.209473
vt 0.678350 0.887673
vt 0.793995 0.948331
vt 0.805975 1.111033
vt 1.421360 0.570799
vt 1.517894 0.923952
vt 0.629728 0.621635
vt 0.623533 0.573535
vt 0.787108 0.462310
vt 0.873024 1.429818
vt 0.574118 0.641415
vt 1.517894 1.196993
vt 0.467965 1.023129
vt 0.574771 1.341110
vt 1.351717 1.491940
vt 0.923917 1.525934
vt 0.792098 1.494810
vt 1.502656 1.249057
vn -0.4948 0.5316 -0.6874
vn -0.3751 0.2656 -0.8881
vn -0.6242 0.5805 0.5229
vn -0.2850 0.8639 0.4153
vn -0.0086 0.7595 -0.6505
vn -0.1333 0.6713 -0.7291
vn -0.8106 0.4596 0.3629
vn -0.0881 0.8418 -0.5325
vn 0.9069 0.4191 -0.0436
vn -0.8933 0.4291 0.1335
vn -0.0335 0.7346 -0.6777
vn -0.5469 0.7176 -0.4312
vn 0.3542 0.5150 0.7806
vn 0.4884 0.6257 0.6082
vn 0.3585 0.7108 -0.6051
vn 0.3247 0.5231 -0.7880
vn 0.8057 0.5892 0.0607
vn 0.3334 0.2935 -0.8959
vn -0.8328 0.5519 0.0435
vn 0.3188 0.7084 0.6297
vn -0.3591 0.4017 -0.8425
vn 0.8224 -0.2173 -0.5258
vn 0.0613 0.0661 -0.9959
vn -0.9349 0.3364 0.1129
vn 0.8980 0.1484 -0.4142
vn 0.9342 0.3506 -0.0658
vn 0.1323 0.4282 0.8940
vn -0.7824 0.4274 -0.4529
vn 0.6815 0.3670 0.6331
vn -0.7681 0.5717 0.2883
vn 0.2817 0.2560 0.9247
vn -0.6671 0.5787 0.4691
usemtl Mountain
s off
f 2/1/1 3/2/1 5/3/1
f 2/1/2 4/4/2 30/5/2 28/6/2
f 11/7/3 12/8/3 10/9/3 9/10/3
f 11/7/4 13/11/4 14/12/4 12/8/4
f 18/13/5 20/14/5 4/4/5 5/3/5
f 19/15/6 22/16/6 21/17/6 18/13/6
f 10/9/7 12/8/7 1/18/7
f 19/15/8 18/13/8 5/3/8 3/2/8
f 7/19/9 15/20/9 17/21/9 8/22/9
f 1/18/10 3/2/10 24/23/10 33/24/10
f 21/17/11 22/16/11 14/12/11 13/11/11
f 14/12/12 22/16/12 19/15/12 12/8/12
f 7/19/13 11/7/13 9/10/13
f 7/19/14 8/22/14 13/11/14 11/7/14
f 16/25/15 20/14/15 18/13/15 15/20/15
f 18/13/16 21/17/16 17/21/16 15/20/16
f 17/21/17 21/17/17 13/11/17 8/22/17
f 4/4/18 20/14/18 16/25/18 25/26/18 26/27/18
f 12/8/19 19/15/19 3/2/19 1/18/19
f 6/28/20 7/19/20 9/10/20
f 4/4/21 2/1/21 5/3/21
f 34/29/22 25/26/22 16/25/22
f 26/27/23 30/5/23 4/4/23
f 33/24/24 31/30/24 1/18/24
f 23/31/25 34/29/25 16/25/25 15/20/25
f 36/32/26 23/31/26 15/20/26 7/19/26
f 32/33/27 29/34/27 6/28/27 9/10/27
f 28/6/28 24/23/28 3/2/28 2/1/28
f 27/35/29 36/32/29 7/19/29 6/28/29
f 31/30/30 35/36/30 10/9/30 1/18/30
f 29/34/31 27/35/31 6/28/31
f 35/36/32 32/33/32 9/10/32 10/9/32
