# Blender v2.90.0 OBJ File: 'Nature Kit.blend'
# www.blender.org
mtllib Mountain_2.mtl
o Rock.008_Rock.014
v -26.201151 9.691234 -4.351121
v -23.642532 11.306231 4.460535
v -18.082409 16.226267 6.765865
v -10.958296 24.922626 -0.998024
v -10.233910 25.255758 1.472237
v -7.698806 9.641445 23.140953
v 12.594044 7.746911 20.648479
v 5.423223 26.697538 8.121421
v 0.103228 27.766075 8.517121
v -3.671573 27.157438 9.817359
v 13.829668 17.573067 13.042440
v -8.512041 18.790119 16.499559
v 5.883453 28.317575 1.742575
v 27.612080 7.098785 0.959658
v 20.292343 17.945532 -4.802354
v 22.322233 9.244100 15.225504
v 20.889297 11.710636 -13.399694
v 5.754613 15.363697 -18.021826
v 2.359862 27.323879 -2.393875
v -13.568674 16.911299 -15.515481
v -9.377930 24.924644 -4.720529
v -18.262308 12.071864 -16.545536
v -2.980151 3.509675 -24.446972
v -23.665039 7.606531 -15.713192
v 22.978359 -0.930686 16.261040
v -22.002403 -0.867415 15.845169
v 8.590977 -0.907903 24.726877
v -2.770666 -0.891588 -24.967794
v -23.004171 -0.859858 -16.818886
v -29.344406 -0.855035 -2.814216
v 22.111849 -0.930374 -17.077904
v -25.244762 -0.858090 -12.053098
v 0.470234 -0.895087 26.031984
v -13.582830 -0.873097 24.231277
v 29.212275 -0.941347 0.386641
vt 0.587344 0.446872
vt 0.703350 0.458434
vt 0.639667 0.591124
vt 0.553490 0.524168
vt 0.708623 0.708691
vt 0.451152 0.798656
vt 0.416275 0.652944
vt 0.486204 0.548144
vt 0.522395 0.527152
vt 0.033571 0.641018
vt 0.041519 0.308450
vt 0.213442 0.398262
vt 0.161101 0.607010
vt 0.461101 0.498467
vt 0.240707 0.882845
vt 0.311420 0.747822
vt 0.293120 0.491596
vt 0.530495 0.941803
vt 0.374050 0.299815
vt 0.565601 0.278711
vt 0.561646 0.397251
vt 0.472874 0.452129
vt 0.609665 0.218725
vt 0.390048 0.097027
vt 0.684423 0.169324
vt 0.586615 0.424300
vt 0.776076 0.290479
vt 0.781467 0.409892
vt 0.717887 0.048907
vt 0.804655 0.092379
vt 0.366550 0.037593
vt 0.930115 0.230518
vt 0.973581 0.584084
vt 0.880042 0.765183
vt 0.673789 0.921148
vn -0.6098 0.7003 0.3712
vn 0.1574 0.5822 0.7977
vn 0.9091 0.1993 -0.3659
vn 0.2086 0.9442 0.2549
vn 0.9298 0.1240 0.3466
vn 0.6765 0.6992 0.2312
vn 0.4869 0.1473 0.8610
vn -0.0254 0.7978 -0.6023
vn -0.1136 0.4266 -0.8973
vn -0.0992 0.2983 -0.9493
vn -0.1209 0.4971 -0.8592
vn -0.1254 0.5426 -0.8306
vn -0.3586 0.1527 -0.9209
vn -0.3373 0.2384 -0.9107
vn -0.3677 0.1118 -0.9232
vn -0.7074 0.6988 0.1058
vn 0.8588 0.4412 -0.2604
vn 0.3413 0.5481 0.7636
vn -0.9277 0.1355 -0.3478
vn -0.9556 0.0530 -0.2899
vn -0.9405 0.1014 -0.3242
vn -0.6481 0.7091 -0.2777
vn -0.1848 0.9797 -0.0779
vn 0.3213 0.2495 -0.9135
vn -0.9175 0.2408 0.3166
vn 0.3434 0.7810 -0.5217
vn -0.6614 0.4408 0.6068
vn -0.8939 0.2086 -0.3967
vn -0.1250 0.1713 0.9773
vn 0.1474 0.3657 0.9190
vn -0.3719 0.0916 -0.9237
usemtl Mountain
s 1
f 5/1/1 3/2/1 12/3/1 10/4/1
f 10/4/2 12/3/2 6/5/2 7/6/2 11/7/2 8/8/2 9/9/2
f 35/10/3 31/11/3 17/12/3 14/13/3
f 9/9/4 8/8/4 13/14/4
f 25/15/5 35/10/5 14/13/5 16/16/5
f 15/17/6 13/14/6 8/8/6 11/7/6 16/16/6 14/13/6
f 25/15/7 16/16/7 7/6/7 27/18/7
f 18/19/8 20/20/8 21/21/8 19/22/8
f 22/23/9 20/20/10 18/19/11
f 18/19/11 23/24/12 22/23/9
f 24/25/13 22/23/14 23/24/15
f 4/26/16 1/27/16 2/28/16 3/2/16 5/1/16
f 17/12/17 15/17/17 14/13/17
f 11/7/18 7/6/18 16/16/18
f 1/27/19 24/25/20 29/29/20 32/30/21
f 21/21/22 20/20/22 22/23/22 24/25/22 1/27/22 4/26/22
f 10/4/23 9/9/23 13/14/23 19/22/23 21/21/23 4/26/23 5/1/23
f 31/11/24 28/31/24 23/24/24 18/19/24 17/12/24
f 30/32/25 26/33/25 2/28/25 1/27/25
f 18/19/26 19/22/26 13/14/26 15/17/26 17/12/26
f 6/5/27 12/3/27 3/2/27 2/28/27 26/33/27 34/34/27
f 32/30/21 30/32/28 1/27/19
f 34/34/29 33/35/29 6/5/29
f 33/35/30 27/18/30 7/6/30 6/5/30
f 28/31/31 29/29/31 24/25/13 23/24/15
