# Blender v2.90.0 OBJ File: 'Nature Kit.blend'
# www.blender.org
mtllib Mountain_3.mtl
o Cube.079_Cube.228
v -23.705654 8.426349 24.984985
v -32.510506 7.572285 13.405146
v -19.733683 22.504091 0.710042
v -16.139221 13.343301 28.356459
v 0.429834 23.452024 18.824814
v -16.545906 21.100235 15.493719
v -9.552080 30.143358 10.579033
v -26.107740 14.785137 -5.002571
v -19.982660 22.713293 -4.150381
v -4.061295 -1.326557 -38.469326
v -7.567739 37.407978 -3.407555
v 14.566483 14.383977 26.155779
v 7.126078 22.983963 18.097916
v 20.667650 19.365496 6.464130
v 11.105904 30.385216 1.914587
v 23.315716 5.106660 23.388947
v 29.155685 10.526226 11.076872
v 14.266915 20.380653 -15.661713
v 9.707624 31.354660 -1.226371
v 13.690588 9.522331 -27.844736
v 21.599434 11.483478 -16.435043
v 22.434620 4.851948 -25.630302
v 15.422054 -0.602978 35.359932
v -12.860499 -0.626158 34.693504
v 24.160997 -0.595808 -29.823612
v -3.465139 -0.618455 -37.735622
v 28.295177 -0.592421 -14.783178
v 0.173136 -0.615471 -37.272530
v -4.067326 -0.619460 -37.518463
v 15.415724 -0.602975 -34.547993
v -31.761435 -0.641645 -7.760186
v -5.031444 -0.619736 -37.014683
v 36.539307 -0.585662 11.423383
v -25.792974 -0.636762 26.011112
v 25.040665 -0.595093 25.428579
v -38.750240 -0.647378 8.635980
v -5.546655 21.447615 -23.070227
vt 0.186398 0.487946
vt 0.154441 0.297132
vt 0.265994 0.286789
vt 0.280625 0.384424
vt 0.430160 0.545928
vt 0.388661 0.311371
vt 0.265196 0.559792
vt 0.495689 0.335217
vt 0.435064 0.092177
vt 0.677536 -0.116682
vt 0.683181 -0.103748
vt 0.091359 0.081774
vt 0.204350 0.140996
vt 0.121073 0.255347
vt -0.011748 0.261735
vt -0.128975 0.171752
vt -0.038393 0.030224
vt 0.226869 -0.114424
vt 0.297666 -0.226611
vt 0.386175 -0.135599
vt 0.277236 -0.005659
vt 0.673590 -0.123977
vt 0.634579 -0.153224
vt 0.415477 0.284161
vt 0.314953 0.205449
vt 0.229317 0.133000
vt 0.688304 0.418362
vt 0.322922 -0.317346
vt 0.456441 -0.277250
vt 0.274028 0.682464
vt 0.058916 0.634053
vt -0.197949 0.356721
vt -0.211533 0.170775
vt -0.171612 -0.068406
vt 0.124566 -0.258897
vt 0.688304 -0.127029
vt 0.555209 0.623480
vn -0.2260 0.7484 0.6235
vn -0.6717 0.7098 0.2122
vn -0.6181 0.6641 0.4205
vn -0.6682 0.3862 -0.6359
vn 0.5450 0.7334 0.4063
vn 0.6268 0.6414 0.4423
vn 0.5806 0.6336 -0.5113
vn 0.0476 0.6718 0.7392
vn 0.1658 0.8713 0.4619
vn 0.3034 0.5471 -0.7801
vn -0.0361 0.7284 -0.6842
vn -0.7708 0.6370 -0.0007
vn -0.7339 0.6518 0.1909
vn 0.7830 0.5905 -0.1953
vn 0.7529 0.6312 -0.1866
vn -0.6877 0.3643 -0.6280
vn 0.4293 0.5797 -0.6925
vn 0.2080 0.8787 0.4296
vn -0.5339 0.2323 0.8130
vn 0.6500 0.4239 0.6308
vn 0.8391 0.4890 -0.2382
vn 0.1449 0.5632 -0.8135
vn -0.2985 0.7650 -0.5707
vn -0.2119 0.7836 -0.5840
vn -0.7776 0.2497 0.5770
vn 0.6970 0.4561 0.5533
vn 0.8609 0.4486 -0.2400
vn -0.8411 0.4935 -0.2213
vn 0.0143 0.4744 0.8802
vn 0.2932 0.7769 -0.5571
vn -0.6395 0.5611 -0.5255
usemtl Mountain
s off
f 4/1/1 5/2/1 7/3/1 6/4/1
f 2/5/2 6/4/2 7/3/2 3/6/2
f 4/1/3 6/4/3 2/5/3 1/7/3
f 8/8/4 37/9/4 29/10/4 32/11/4
f 14/12/5 15/13/5 13/14/5 12/15/5
f 16/16/6 17/17/6 14/12/6 12/15/6
f 21/18/7 22/19/7 20/20/7 18/21/7
f 4/1/8 12/15/8 13/14/8 5/2/8
f 13/14/9 15/13/9 7/3/9 5/2/9
f 37/9/10 18/21/10 26/22/10 29/10/10
f 18/21/11 20/20/11 28/23/11 26/22/11
f 2/5/12 3/6/12 9/24/12 8/8/12
f 7/3/13 11/25/13 9/24/13 3/6/13
f 18/21/14 19/26/14 15/13/14 14/12/14
f 17/17/15 21/18/15 18/21/15 14/12/15
f 8/8/16 32/11/16 31/27/16
f 20/20/17 22/19/17 25/28/17 30/29/17
f 15/13/18 19/26/18 11/25/18 7/3/18
f 34/30/19 24/31/19 4/1/19 1/7/19
f 23/32/20 35/33/20 16/16/20 12/15/20
f 33/34/21 27/35/21 21/18/21 17/17/21
f 30/29/22 28/23/22 20/20/22
f 32/11/23 29/10/23 10/36/23
f 29/10/24 26/22/24 10/36/24
f 36/37/25 34/30/25 1/7/25 2/5/25
f 35/33/26 33/34/26 17/17/26 16/16/26
f 27/35/27 25/28/27 22/19/27 21/18/27
f 31/27/28 36/37/28 2/5/28 8/8/28
f 24/31/29 23/32/29 12/15/29 4/1/29
f 11/25/30 19/26/30 18/21/30 37/9/30
f 9/24/31 11/25/31 37/9/31 8/8/31
