# Blender v2.90.0 OBJ File: 'Nature Kit.blend'
# www.blender.org
mtllib Mushroom_Brown.mtl
o Sphere.017_Sphere.024
v -0.000000 0.119105 -0.106897
v -0.000000 0.091334 -0.172112
v -0.000000 0.073080 -0.174471
v -0.000000 0.059580 -0.163236
v 0.000000 0.047206 -0.058583
v -0.000000 -0.000324 -0.060620
v -0.000000 -0.010589 -0.000000
v 0.040141 0.141733 -0.036670
v 0.053448 0.119105 -0.092575
v 0.075588 0.107008 -0.130922
v 0.086056 0.091334 -0.149053
v 0.087235 0.073080 -0.151096
v 0.081618 0.059580 -0.141367
v 0.029292 0.047206 -0.050735
v 0.030310 -0.000324 -0.052498
v 0.060462 0.140464 -0.016498
v 0.092575 0.119105 -0.053448
v 0.130922 0.107008 -0.075588
v 0.149053 0.091334 -0.086056
v 0.151096 0.073080 -0.087235
v 0.141367 0.059580 -0.081618
v 0.050735 0.047206 -0.029292
v 0.052498 -0.000324 -0.030310
v 0.067969 0.139051 0.011131
v 0.106897 0.119105 -0.000000
v 0.151175 0.107008 -0.000000
v 0.172112 0.091334 -0.000000
v 0.174471 0.073080 -0.000000
v 0.163236 0.059580 -0.000000
v 0.058583 0.047206 -0.000000
v 0.060620 -0.000324 -0.000000
v 0.060649 0.137874 0.038814
v 0.092575 0.119105 0.053448
v 0.130922 0.107008 0.075588
v 0.149053 0.091334 0.086056
v 0.151096 0.073080 0.087235
v 0.141367 0.059580 0.081618
v 0.050735 0.047206 0.029292
v 0.052498 -0.000324 0.030310
v 0.040466 0.137246 0.059133
v 0.053448 0.119105 0.092575
v 0.075588 0.107008 0.130921
v 0.086056 0.091334 0.149053
v 0.087235 0.073080 0.151096
v 0.081618 0.059580 0.141367
v 0.029292 0.047206 0.050735
v 0.030310 -0.000324 0.052498
v 0.012825 0.137338 0.066645
v -0.000000 0.119105 0.106897
v -0.000000 0.107008 0.151175
v -0.000000 0.091334 0.172112
v -0.000000 0.073080 0.174471
v -0.000000 0.059580 0.163236
v -0.000000 0.047206 0.058583
v -0.000000 -0.000324 0.060620
v -0.014866 0.138123 0.059336
v -0.053448 0.119105 0.092575
v -0.075588 0.107008 0.130921
v -0.086056 0.091334 0.149053
v -0.087235 0.073080 0.151096
v -0.081618 0.059580 0.141367
v -0.029292 0.047206 0.050735
v -0.030310 -0.000324 0.052498
v -0.035187 0.139392 0.039164
v -0.092575 0.119105 0.053448
v -0.130922 0.107008 0.075587
v -0.149053 0.091334 0.086056
v -0.151096 0.073080 0.087235
v -0.141367 0.059580 0.081618
v -0.050735 0.047206 0.029292
v -0.052498 -0.000324 0.030310
v -0.042694 0.140805 0.011535
v -0.106897 0.119105 -0.000000
v -0.151175 0.107008 -0.000000
v -0.172112 0.091334 -0.000000
v -0.174471 0.073080 -0.000000
v -0.163236 0.059580 -0.000000
v -0.058583 0.047206 -0.000000
v -0.060620 -0.000324 -0.000000
v -0.035374 0.141982 -0.016148
v -0.092575 0.119105 -0.053448
v -0.130921 0.107008 -0.075588
v -0.149053 0.091334 -0.086056
v -0.151096 0.073080 -0.087235
v -0.141367 0.059580 -0.081618
v -0.050735 0.047206 -0.029292
v -0.052498 -0.000324 -0.030310
v -0.015190 0.142609 -0.036467
v -0.053448 0.119105 -0.092575
v -0.075588 0.107008 -0.130922
v -0.086056 0.091334 -0.149053
v -0.087235 0.073080 -0.151096
v -0.081618 0.059580 -0.141367
v -0.029292 0.047206 -0.050735
v -0.030310 -0.000324 -0.052498
v 0.012706 0.151966 0.011534
v 0.012450 0.142518 -0.043979
v 0.000000 0.107008 -0.151175
v 0.000000 0.020808 -0.057196
v 0.028598 0.020808 -0.049533
v 0.049533 0.020808 -0.028598
v 0.057196 0.020808 -0.000000
v 0.049533 0.020808 0.028598
v 0.028598 0.020808 0.049533
v -0.000000 0.020808 0.057196
v -0.028598 0.020808 0.049533
v -0.049533 0.020808 0.028598
v -0.057196 0.020808 -0.000000
v -0.049533 0.020808 -0.028598
v -0.028598 0.020808 -0.049533
vt 0.936024 0.609164
vt 0.852690 0.609164
vt 0.852690 0.456692
vt 0.936024 0.456693
vt 0.769357 0.456692
vt 0.811024 0.253397
vt 0.727691 0.253397
vt 0.686024 0.456692
vt 0.852690 0.761636
vt 0.769357 0.761636
vt 0.769357 0.609164
vt 0.644357 0.253397
vt 0.602690 0.456692
vt 0.686024 0.609164
vt 0.602690 0.609164
vt 0.519357 0.456692
vt 0.561024 0.253397
vt 0.519357 0.609164
vt 0.477690 0.253397
vt 0.436024 0.456692
vt 0.394357 0.253397
vt 0.352690 0.456692
vt 0.436024 0.609164
vt 0.436024 0.761635
vt 0.352690 0.761635
vt 0.352690 0.609164
vt 0.269357 0.456692
vt 0.311023 0.253397
vt 0.269357 0.609164
vt 0.227690 0.253397
vt 0.186024 0.456692
vt 0.186024 0.609164
vt 1.144356 0.253397
vt 1.186024 0.456692
vt 1.102690 0.456692
vt 1.186024 0.609164
vt 1.186024 0.761636
vt 1.102690 0.761636
vt 1.102690 0.609164
vt 1.061023 0.253397
vt 1.019357 0.456692
vt 0.977690 0.253397
vt 1.019357 0.609164
vt 1.019357 0.761636
vt 0.936024 0.761636
vt 0.269357 0.761635
vt 0.186024 0.761636
vt 0.519357 0.761635
vt 0.602690 0.761636
vt 0.686024 0.761636
vt 0.894357 0.253397
vt 0.380004 -0.000203
vt 0.410886 0.087946
vt 0.225684 0.192966
vt 0.161066 0.142808
vt 0.491459 0.240942
vt 0.491615 0.290486
vt 0.392217 0.319952
vt 0.367309 0.277123
vt 0.494130 0.426368
vt 0.496900 0.490698
vt 0.462335 0.436371
vt 0.491763 0.186314
vt 0.340259 0.229662
vt 0.492309 0.361039
vt 0.428094 0.380705
vt 0.490674 0.101963
vt 0.297140 0.157156
vt 0.277883 0.370532
vt 0.230726 0.342954
vt 0.439802 0.460932
vt 0.382315 0.429844
vt 0.157131 0.301721
vt 0.320868 0.395169
vt 0.113153 0.368462
vt 0.032114 0.357333
vt 0.103446 0.576712
vt 0.027700 0.607593
vt 0.296687 0.495983
vt 0.247141 0.496139
vt 0.432569 0.493468
vt 0.192513 0.495834
vt 0.367240 0.495289
vt 0.108162 0.496923
vt 0.235863 0.647338
vt 0.163356 0.690457
vt 0.386906 0.559503
vt 0.326153 0.595381
vt 0.199166 0.761913
vt 0.149009 0.826532
vt 0.283324 0.620288
vt 0.442573 0.525262
vt 0.376733 0.709714
vt 0.349155 0.756870
vt 0.467133 0.547795
vt 0.436045 0.605282
vt 0.307922 0.830465
vt 0.401370 0.666729
vt 0.374663 0.886845
vt 0.363534 0.995789
vt 0.582913 0.896551
vt 0.613795 1.000202
vt 0.502184 0.690910
vt 0.502340 0.740454
vt 0.499669 0.555028
vt 0.502036 0.795082
vt 0.501490 0.620357
vt 0.503125 0.879433
vt 0.653540 0.751734
vt 0.696659 0.824240
vt 0.565705 0.600691
vt 0.601583 0.661444
vt 0.768115 0.788430
vt 0.832733 0.838588
vt 0.626490 0.704273
vt 0.531464 0.545025
vt 0.553997 0.520464
vt 0.715916 0.610864
vt 0.763073 0.638442
vt 0.611484 0.551552
vt 0.836668 0.679675
vt 0.672931 0.586227
vt 0.880646 0.612934
vt 0.981838 0.624063
vt 0.890353 0.404684
vt 0.986251 0.373802
vt 0.697112 0.485413
vt 0.746657 0.485257
vt 0.561230 0.487928
vt 0.801286 0.485562
vt 0.626559 0.486107
vt 0.885637 0.484473
vt 0.551227 0.456134
vt 0.606893 0.421893
vt 0.757936 0.334058
vt 0.830443 0.290939
vt 0.667646 0.386015
vt 0.794633 0.219482
vt 0.844790 0.154864
vt 0.710475 0.361108
vt 0.526666 0.433601
vt 0.617066 0.271683
vt 0.644644 0.224526
vt 0.557754 0.376114
vt 0.685876 0.150931
vt 0.592429 0.314667
vt 0.619136 0.097651
vt 0.630264 0.004210
vn 0.0000 0.0550 -0.9985
vn 0.4992 0.0550 -0.8647
vn 0.4231 -0.5327 -0.7329
vn 0.0000 -0.5327 -0.8463
vn 0.7329 -0.5327 -0.4231
vn 0.0000 -1.0000 0.0000
vn 0.8463 -0.5327 0.0000
vn 0.3356 -0.7412 -0.5813
vn 0.5813 -0.7412 -0.3356
vn 0.8647 0.0550 -0.4992
vn 0.7329 -0.5327 0.4231
vn 0.9985 0.0550 0.0000
vn 0.8647 0.0550 0.4992
vn 0.4231 -0.5327 0.7329
vn 0.4992 0.0550 0.8647
vn 0.0000 -0.5327 0.8463
vn -0.4231 -0.5327 0.7329
vn 0.0000 0.0550 0.9985
vn 0.0000 -0.7412 0.6712
vn -0.3356 -0.7412 0.5813
vn -0.4992 0.0550 0.8647
vn -0.7329 -0.5327 0.4231
vn -0.8647 0.0550 0.4992
vn -0.8463 -0.5327 0.0000
vn -0.9985 0.0550 0.0000
vn -0.7329 -0.5327 -0.4231
vn -0.6712 -0.7412 0.0000
vn -0.5813 -0.7412 -0.3356
vn -0.8647 0.0550 -0.4992
vn -0.4231 -0.5327 -0.7329
vn -0.4992 0.0550 -0.8647
vn -0.3356 -0.7412 -0.5813
vn 0.0000 -0.7412 -0.6712
vn -0.5813 -0.7412 0.3356
vn 0.3356 -0.7412 0.5813
vn 0.5813 -0.7412 0.3356
vn 0.6712 -0.7412 0.0000
vn 0.0000 -0.8531 -0.5218
vn 0.2609 -0.8531 -0.4519
vn 0.0000 0.4780 -0.8784
vn 0.0000 0.8860 -0.4635
vn 0.2318 0.8860 -0.4014
vn 0.4392 0.4780 -0.7607
vn 0.0164 0.9617 -0.2735
vn 0.0155 0.9988 0.0453
vn 0.1785 0.9533 -0.2436
vn 0.0000 -0.2628 -0.9648
vn 0.4824 -0.2628 -0.8356
vn -0.0022 0.9545 -0.2982
vn 0.1542 0.9499 -0.2717
vn 0.7607 0.4780 -0.4392
vn 0.8356 -0.2628 -0.4824
vn 0.3103 0.9415 -0.1315
vn 0.2848 0.9438 -0.1676
vn 0.4519 -0.8531 -0.2609
vn 0.4014 0.8860 -0.2318
vn 0.5218 -0.8531 0.0000
vn 0.4635 0.8860 0.0000
vn 0.8784 0.4780 0.0000
vn 0.3661 0.9298 0.0377
vn 0.9648 -0.2628 0.0000
vn 0.3479 0.9375 -0.0024
vn 0.8356 -0.2628 0.4824
vn 0.4519 -0.8531 0.2609
vn 0.3082 0.9344 0.1784
vn 0.4014 0.8860 0.2318
vn 0.7607 0.4780 0.4392
vn 0.3211 0.9236 0.2094
vn 0.4392 0.4780 0.7607
vn 0.4824 -0.2628 0.8356
vn 0.1918 0.9258 0.3258
vn 0.1703 0.9376 0.3033
vn 0.2609 -0.8531 0.4519
vn 0.2318 0.8860 0.4014
vn 0.0000 -0.8531 0.5218
vn 0.0000 0.8860 0.4635
vn 0.0000 0.4780 0.8784
vn 0.0232 0.9348 0.3543
vn 0.0000 -0.2628 0.9648
vn -0.0048 0.9445 0.3285
vn -0.4824 -0.2628 0.8356
vn -0.2609 -0.8531 0.4519
vn -0.1570 0.9509 0.2667
vn -0.2318 0.8860 0.4014
vn -0.4392 0.4780 0.7607
vn -0.1309 0.9460 0.2965
vn -0.2340 0.9555 0.1793
vn -0.7607 0.4780 0.4392
vn -0.8356 -0.2628 0.4824
vn -0.2560 0.9553 0.1480
vn -0.4519 -0.8531 0.2609
vn -0.4014 0.8860 0.2318
vn -0.5218 -0.8531 0.0000
vn -0.4635 0.8860 0.0000
vn -0.8784 0.4780 0.0000
vn -0.2700 0.9622 0.0334
vn -0.9648 -0.2628 0.0000
vn -0.2880 0.9576 0.0021
vn -0.2341 0.9658 -0.1111
vn -0.2489 0.9583 -0.1405
vn -0.8356 -0.2628 -0.4824
vn -0.4519 -0.8531 -0.2609
vn -0.4014 0.8860 -0.2318
vn -0.7607 0.4780 -0.4392
vn -0.1321 0.9658 -0.2229
vn -0.4392 0.4780 -0.7607
vn -0.4824 -0.2628 -0.8356
vn -0.1468 0.9572 -0.2492
vn -0.2609 -0.8531 -0.4519
vn -0.2318 0.8860 -0.4014
usemtl Mushroom_Stem
s 1
f 99/1/1 100/2/2 15/3/3 6/4/4
f 15/3/3 23/5/5 7/6/6
f 7/7/6 23/5/5 31/8/7
f 100/2/2 14/9/8 22/10/9 101/11/10
f 7/12/6 31/8/7 39/13/11
f 101/11/10 102/14/12 31/8/7 23/5/5
f 102/14/12 103/15/13 39/13/11 31/8/7
f 39/13/11 47/16/14 7/17/6
f 103/15/13 104/18/15 47/16/14 39/13/11
f 7/19/6 47/16/14 55/20/16
f 7/21/6 55/20/16 63/22/17
f 104/18/15 105/23/18 55/20/16 47/16/14
f 105/23/18 54/24/19 62/25/20 106/26/21
f 63/22/17 71/27/22 7/28/6
f 106/26/21 107/29/23 71/27/22 63/22/17
f 7/30/6 71/27/22 79/31/24
f 107/29/23 108/32/25 79/31/24 71/27/22
f 7/33/6 79/34/24 87/35/26
f 108/36/25 78/37/27 86/38/28 109/39/29
f 7/40/6 87/35/26 95/41/30
f 7/42/6 95/41/30 6/4/4
f 109/39/29 110/43/31 95/41/30 87/35/26
f 110/43/31 99/1/1 6/4/4 95/41/30
f 94/44/32 5/45/33 99/1/1 110/43/31
f 86/38/28 94/44/32 110/43/31 109/39/29
f 79/34/24 108/36/25 109/39/29 87/35/26
f 70/46/34 78/47/27 108/32/25 107/29/23
f 62/25/20 70/46/34 107/29/23 106/26/21
f 55/20/16 105/23/18 106/26/21 63/22/17
f 46/48/35 54/24/19 105/23/18 104/18/15
f 38/49/36 46/48/35 104/18/15 103/15/13
f 30/50/37 38/49/36 103/15/13 102/14/12
f 22/10/9 30/50/37 102/14/12 101/11/10
f 15/3/3 100/2/2 101/11/10 23/5/5
f 5/45/33 14/9/8 100/2/2 99/1/1
f 7/51/6 6/4/4 15/3/3
usemtl Mushroom_Brown
f 5/52/33 4/53/38 13/54/39 14/55/8
f 2/56/40 98/57/41 10/58/42 11/59/43
f 97/60/44 96/61/45 8/62/46
f 3/63/47 2/56/40 11/59/43 12/64/48
f 1/65/49 97/60/44 8/62/46 9/66/50
f 4/67/38 3/63/47 12/64/48 13/68/39
f 98/57/41 1/65/49 9/66/50 10/58/42
f 12/64/48 11/59/43 19/69/51 20/70/52
f 9/66/50 8/62/46 16/71/53 17/72/54
f 13/68/39 12/64/48 20/70/52 21/73/55
f 10/58/42 9/66/50 17/72/54 18/74/56
f 14/55/8 13/54/39 21/75/55 22/76/9
f 11/59/43 10/58/42 18/74/56 19/69/51
f 8/62/46 96/61/45 16/71/53
f 22/76/9 21/75/55 29/77/57 30/78/37
f 19/69/51 18/74/56 26/79/58 27/80/59
f 16/71/53 96/61/45 24/81/60
f 20/70/52 19/69/51 27/80/59 28/82/61
f 17/72/54 16/71/53 24/81/60 25/83/62
f 21/73/55 20/70/52 28/82/61 29/84/57
f 18/74/56 17/72/54 25/83/62 26/79/58
f 29/84/57 28/82/61 36/85/63 37/86/64
f 26/79/58 25/83/62 33/87/65 34/88/66
f 30/78/37 29/77/57 37/89/64 38/90/36
f 27/80/59 26/79/58 34/88/66 35/91/67
f 24/81/60 96/61/45 32/92/68
f 28/82/61 27/80/59 35/91/67 36/85/63
f 25/83/62 24/81/60 32/92/68 33/87/65
f 36/85/63 35/91/67 43/93/69 44/94/70
f 33/87/65 32/92/68 40/95/71 41/96/72
f 37/86/64 36/85/63 44/94/70 45/97/73
f 34/88/66 33/87/65 41/96/72 42/98/74
f 38/90/36 37/89/64 45/99/73 46/100/35
f 35/91/67 34/88/66 42/98/74 43/93/69
f 32/92/68 96/61/45 40/95/71
f 46/100/35 45/99/73 53/101/75 54/102/19
f 43/93/69 42/98/74 50/103/76 51/104/77
f 40/95/71 96/61/45 48/105/78
f 44/94/70 43/93/69 51/104/77 52/106/79
f 41/96/72 40/95/71 48/105/78 49/107/80
f 45/97/73 44/94/70 52/106/79 53/108/75
f 42/98/74 41/96/72 49/107/80 50/103/76
f 53/108/75 52/106/79 60/109/81 61/110/82
f 50/103/76 49/107/80 57/111/83 58/112/84
f 54/102/19 53/101/75 61/113/82 62/114/20
f 51/104/77 50/103/76 58/112/84 59/115/85
f 48/105/78 96/61/45 56/116/86
f 52/106/79 51/104/77 59/115/85 60/109/81
f 49/107/80 48/105/78 56/116/86 57/111/83
f 56/116/86 96/61/45 64/117/87
f 60/109/81 59/115/85 67/118/88 68/119/89
f 57/111/83 56/116/86 64/117/87 65/120/90
f 61/110/82 60/109/81 68/119/89 69/121/91
f 58/112/84 57/111/83 65/120/90 66/122/92
f 62/114/20 61/113/82 69/123/91 70/124/34
f 59/115/85 58/112/84 66/122/92 67/118/88
f 70/124/34 69/123/91 77/125/93 78/126/27
f 67/118/88 66/122/92 74/127/94 75/128/95
f 64/117/87 96/61/45 72/129/96
f 68/119/89 67/118/88 75/128/95 76/130/97
f 65/120/90 64/117/87 72/129/96 73/131/98
f 69/121/91 68/119/89 76/130/97 77/132/93
f 66/122/92 65/120/90 73/131/98 74/127/94
f 73/131/98 72/129/96 80/133/99 81/134/100
f 77/132/93 76/130/97 84/135/101 85/136/102
f 74/127/94 73/131/98 81/134/100 82/137/103
f 78/126/27 77/125/93 85/138/102 86/139/28
f 75/128/95 74/127/94 82/137/103 83/140/104
f 72/129/96 96/61/45 80/133/99
f 76/130/97 75/128/95 83/140/104 84/135/101
f 80/133/99 96/61/45 88/141/105
f 84/135/101 83/140/104 91/142/106 92/143/107
f 81/134/100 80/133/99 88/141/105 89/144/108
f 85/136/102 84/135/101 92/143/107 93/145/109
f 82/137/103 81/134/100 89/144/108 90/146/110
f 86/139/28 85/138/102 93/147/109 94/148/32
f 83/140/104 82/137/103 90/146/110 91/142/106
f 90/146/110 89/144/108 1/65/49 98/57/41
f 94/148/32 93/147/109 4/53/38 5/52/33
f 91/142/106 90/146/110 98/57/41 2/56/40
f 88/141/105 96/61/45 97/60/44
f 92/143/107 91/142/106 2/56/40 3/63/47
f 89/144/108 88/141/105 97/60/44 1/65/49
f 93/145/109 92/143/107 3/63/47 4/67/38
