# Blender v2.90.0 OBJ File: 'Nature Kit.blend'
# www.blender.org
mtllib Mushroom_Red_Spotted.mtl
o Sphere.020_Sphere.028
v 0.000000 0.155652 -0.060489
v -0.000000 0.099299 -0.097352
v -0.000000 0.072226 -0.098686
v -0.000000 0.055007 -0.079382
v 0.000000 0.046630 -0.041222
v -0.000000 -0.000389 -0.042655
v -0.000000 -0.009589 -0.000000
v 0.015656 0.174487 -0.027117
v 0.030245 0.155652 -0.052385
v 0.038898 0.124687 -0.067373
v 0.048676 0.099299 -0.084309
v 0.049343 0.072226 -0.085464
v 0.039691 0.055007 -0.068747
v 0.020611 0.046630 -0.035700
v 0.021328 -0.000389 -0.036941
v 0.027117 0.174487 -0.015656
v 0.052385 0.155652 -0.030245
v 0.067373 0.124687 -0.038898
v 0.084309 0.099299 -0.048676
v 0.085464 0.072226 -0.049343
v 0.068746 0.055007 -0.039691
v 0.035700 0.046630 -0.020611
v 0.036941 -0.000389 -0.021328
v 0.031312 0.174487 -0.000000
v 0.060489 0.155652 -0.000000
v 0.077795 0.124687 -0.000000
v 0.097352 0.099299 -0.000000
v 0.098686 0.072226 -0.000000
v 0.079382 0.055007 -0.000000
v 0.041222 0.046630 -0.000000
v 0.042655 -0.000389 -0.000000
v 0.027117 0.174487 0.015656
v 0.052385 0.155652 0.030245
v 0.067373 0.124687 0.038898
v 0.084309 0.099299 0.048676
v 0.085464 0.072226 0.049343
v 0.068746 0.055007 0.039691
v 0.035700 0.046630 0.020611
v 0.036941 -0.000389 0.021328
v 0.015656 0.174487 0.027117
v 0.030245 0.155652 0.052385
v 0.038898 0.124687 0.067373
v 0.048676 0.099299 0.084309
v 0.049343 0.072226 0.085464
v 0.039691 0.055007 0.068746
v 0.020611 0.046630 0.035700
v 0.021328 -0.000389 0.036941
v 0.000000 0.174487 0.031312
v 0.000000 0.155652 0.060489
v -0.000000 0.124687 0.077795
v -0.000000 0.099299 0.097352
v -0.000000 0.072226 0.098686
v -0.000000 0.055007 0.079382
v -0.000000 0.046630 0.041222
v -0.000000 -0.000389 0.042655
v -0.015656 0.174487 0.027117
v -0.030245 0.155652 0.052385
v -0.038898 0.124687 0.067373
v -0.048676 0.099299 0.084309
v -0.049343 0.072226 0.085464
v -0.039691 0.055007 0.068746
v -0.020611 0.046630 0.035700
v -0.021328 -0.000389 0.036941
v -0.027117 0.174487 0.015656
v -0.052385 0.155652 0.030245
v -0.067373 0.124687 0.038898
v -0.084309 0.099299 0.048676
v -0.085464 0.072226 0.049343
v -0.068747 0.055007 0.039691
v -0.035700 0.046630 0.020611
v -0.036941 -0.000389 0.021328
v -0.031312 0.174487 -0.000000
v -0.060489 0.155652 -0.000000
v -0.077795 0.124687 -0.000000
v -0.097352 0.099299 -0.000000
v -0.098686 0.072226 -0.000000
v -0.079382 0.055007 -0.000000
v -0.041222 0.046630 -0.000000
v -0.042655 -0.000389 -0.000000
v -0.027117 0.174487 -0.015656
v -0.052385 0.155652 -0.030245
v -0.067373 0.124687 -0.038898
v -0.084309 0.099299 -0.048676
v -0.085464 0.072226 -0.049343
v -0.068746 0.055007 -0.039691
v -0.035700 0.046630 -0.020611
v -0.036941 -0.000389 -0.021328
v -0.015656 0.174487 -0.027117
v -0.030245 0.155652 -0.052385
v -0.038898 0.124687 -0.067373
v -0.048676 0.099299 -0.084309
v -0.049343 0.072226 -0.085464
v -0.039691 0.055007 -0.068747
v -0.020611 0.046630 -0.035700
v -0.021328 -0.000389 -0.036941
v 0.000000 0.180911 0.000000
v 0.000000 0.174487 -0.031312
v 0.000000 0.124687 -0.077796
vt 0.011428 0.645457
vt 0.089820 0.610665
vt 0.199291 0.810286
vt 0.148797 0.879612
vt 0.242924 0.574907
vt 0.297535 0.562296
vt 0.354993 0.664539
vt 0.314004 0.702766
vt 0.446788 0.525407
vt 0.517052 0.506200
vt 0.465804 0.557966
vt 0.182591 0.588287
vt 0.268443 0.744520
vt 0.375184 0.543817
vt 0.412999 0.609712
vt 0.439490 0.777956
vt 0.420910 0.836896
vt 0.498553 0.576654
vt 0.478695 0.647871
vt 0.393906 0.928427
vt 0.455874 0.724356
vt 0.384840 1.013712
vt 0.621517 0.933434
vt 0.656309 1.011825
vt 0.573148 0.725718
vt 0.585759 0.780330
vt 0.536258 0.576465
vt 0.599139 0.840664
vt 0.554669 0.648069
vt 0.755371 0.754810
vt 0.821137 0.823962
vt 0.620563 0.610254
vt 0.675391 0.668260
vt 0.890464 0.874455
vt 0.713618 0.709249
vt 0.568817 0.557448
vt 0.788807 0.583763
vt 0.847747 0.602342
vt 0.587506 0.524699
vt 0.658722 0.544557
vt 0.939278 0.629347
vt 0.735207 0.567378
vt 1.024563 0.638412
vt 0.944283 0.401735
vt 1.022676 0.366944
vt 0.736569 0.450104
vt 0.791179 0.437494
vt 0.587316 0.486994
vt 0.851513 0.424114
vt 0.658920 0.468583
vt 0.765660 0.267880
vt 0.834812 0.202114
vt 0.621104 0.402689
vt 0.679111 0.347861
vt 0.885306 0.132788
vt 0.720100 0.309634
vt 0.568299 0.454435
vt 0.535550 0.435746
vt 0.594614 0.234444
vt 0.613193 0.175504
vt 0.555408 0.364530
vt 0.640198 0.083973
vt 0.578229 0.288044
vt 0.649264 -0.001312
vt 0.412586 0.078967
vt 0.377794 0.000576
vt 0.460955 0.286682
vt 0.448344 0.232071
vt 0.497845 0.435936
vt 0.434965 0.171736
vt 0.479434 0.364331
vt 0.465286 0.454953
vt 0.413540 0.402147
vt 0.278732 0.257591
vt 0.212966 0.188438
vt 0.358713 0.344140
vt 0.143640 0.137945
vt 0.320486 0.303151
vt 0.446598 0.487701
vt 0.245297 0.428638
vt 0.186357 0.410058
vt 0.375382 0.467843
vt 0.094826 0.383054
vt 0.298897 0.445022
vt 0.009540 0.373988
vt 0.669767 0.352829
vt 0.586434 0.352829
vt 0.628101 0.149534
vt 0.544767 0.149534
vt 0.503101 0.352829
vt 0.753100 0.657772
vt 0.669767 0.657772
vt 0.753100 0.352829
vt 0.461434 0.149534
vt 0.419767 0.352829
vt 0.586434 0.657772
vt 0.503100 0.657772
vt 0.336434 0.352829
vt 0.378101 0.149534
vt 0.419767 0.657772
vt 0.294767 0.149534
vt 0.253100 0.352829
vt 0.211434 0.149534
vt 0.169767 0.352829
vt 0.336434 0.657772
vt 0.253100 0.657772
vt 0.086434 0.352829
vt 0.128100 0.149534
vt 0.169767 0.657772
vt 0.044767 0.149534
vt 0.003100 0.352829
vt 0.086434 0.657772
vt 0.961433 0.149534
vt 1.003100 0.352829
vt 0.919767 0.352829
vt 0.003100 0.657772
vt 0.878100 0.149534
vt 0.836434 0.352829
vt 0.794767 0.149534
vt 1.003100 0.657772
vt 0.919767 0.657772
vt 0.836434 0.657772
vt 0.711434 0.149534
vn 0.0000 -0.6713 -0.7412
vn 0.0000 -0.8734 -0.4870
vn 0.2435 -0.8734 -0.4218
vn 0.3706 -0.6713 -0.6419
vn 0.0000 0.3305 -0.9438
vn 0.0000 0.5562 -0.8310
vn 0.4155 0.5562 -0.7197
vn 0.4719 0.3305 -0.8173
vn 0.0000 0.9148 -0.4038
vn 0.0000 1.0000 0.0000
vn 0.2019 0.9148 -0.3497
vn 0.0000 -0.3630 -0.9318
vn 0.4659 -0.3630 -0.8069
vn 0.0000 0.6649 -0.7469
vn 0.3735 0.6649 -0.6468
vn 0.8173 0.3305 -0.4719
vn 0.8069 -0.3630 -0.4659
vn 0.3497 0.9148 -0.2019
vn 0.6468 0.6649 -0.3735
vn 0.4218 -0.8734 -0.2435
vn 0.7197 0.5562 -0.4155
vn 0.6419 -0.6713 -0.3706
vn 0.4870 -0.8734 0.0000
vn 0.7412 -0.6713 0.0000
vn 0.8310 0.5562 0.0000
vn 0.9438 0.3305 0.0000
vn 0.4038 0.9148 0.0000
vn 0.9318 -0.3630 0.0000
vn 0.7469 0.6649 0.0000
vn 0.8069 -0.3630 0.4659
vn 0.4218 -0.8734 0.2435
vn 0.6468 0.6649 0.3735
vn 0.7197 0.5562 0.4155
vn 0.6419 -0.6713 0.3706
vn 0.8173 0.3305 0.4719
vn 0.3497 0.9148 0.2019
vn 0.4719 0.3305 0.8173
vn 0.4659 -0.3630 0.8069
vn 0.2019 0.9148 0.3497
vn 0.3735 0.6649 0.6468
vn 0.2435 -0.8734 0.4218
vn 0.4155 0.5562 0.7197
vn 0.3706 -0.6713 0.6419
vn 0.0000 -0.8734 0.4870
vn 0.0000 -0.6713 0.7412
vn 0.0000 0.5562 0.8310
vn 0.0000 0.3305 0.9438
vn 0.0000 0.9148 0.4038
vn 0.0000 -0.3630 0.9318
vn 0.0000 0.6649 0.7469
vn -0.4659 -0.3630 0.8069
vn -0.2435 -0.8734 0.4218
vn -0.3735 0.6649 0.6468
vn -0.4155 0.5562 0.7197
vn -0.3706 -0.6713 0.6419
vn -0.4719 0.3305 0.8173
vn -0.2019 0.9148 0.3497
vn -0.3497 0.9148 0.2019
vn -0.8173 0.3305 0.4719
vn -0.8069 -0.3630 0.4659
vn -0.6468 0.6649 0.3735
vn -0.4218 -0.8734 0.2435
vn -0.7197 0.5562 0.4155
vn -0.6419 -0.6713 0.3706
vn -0.4870 -0.8734 0.0000
vn -0.7412 -0.6713 0.0000
vn -0.8310 0.5562 0.0000
vn -0.9438 0.3305 0.0000
vn -0.4038 0.9148 0.0000
vn -0.9318 -0.3630 0.0000
vn -0.7469 0.6649 0.0000
vn -0.3497 0.9148 -0.2019
vn -0.6468 0.6649 -0.3735
vn -0.8069 -0.3630 -0.4659
vn -0.4218 -0.8734 -0.2435
vn -0.7197 0.5562 -0.4155
vn -0.6419 -0.6713 -0.3706
vn -0.8173 0.3305 -0.4719
vn -0.2019 0.9148 -0.3497
vn -0.4719 0.3305 -0.8173
vn -0.4659 -0.3630 -0.8069
vn -0.3735 0.6649 -0.6468
vn -0.2435 -0.8734 -0.4218
vn -0.4155 0.5562 -0.7197
vn -0.3706 -0.6713 -0.6419
vn 0.4110 -0.5695 -0.7118
vn 0.7118 -0.5695 -0.4110
vn 0.0000 -1.0000 0.0000
vn 0.8220 -0.5695 0.0000
vn 0.0000 -0.5695 -0.8220
vn 0.7118 -0.5695 0.4110
vn 0.4110 -0.5695 0.7118
vn 0.0000 -0.5695 0.8220
vn -0.4110 -0.5695 0.7118
vn -0.7118 -0.5695 0.4110
vn -0.8220 -0.5695 0.0000
vn -0.7118 -0.5695 -0.4110
vn -0.4110 -0.5695 -0.7118
usemtl Mushroom_Red_Spotted
s 1
f 5/1/1 4/2/2 13/3/3 14/4/4
f 2/5/5 98/6/6 10/7/7 11/8/8
f 97/9/9 96/10/10 8/11/11
f 3/12/12 2/5/5 11/8/8 12/13/13
f 1/14/14 97/9/9 8/11/11 9/15/15
f 4/2/2 3/12/12 12/13/13 13/3/3
f 98/6/6 1/14/14 9/15/15 10/7/7
f 12/13/13 11/8/8 19/16/16 20/17/17
f 9/15/15 8/11/11 16/18/18 17/19/19
f 13/3/3 12/13/13 20/17/17 21/20/20
f 10/7/7 9/15/15 17/19/19 18/21/21
f 14/4/4 13/3/3 21/20/20 22/22/22
f 11/8/8 10/7/7 18/21/21 19/16/16
f 8/11/11 96/10/10 16/18/18
f 22/22/22 21/20/20 29/23/23 30/24/24
f 19/16/16 18/21/21 26/25/25 27/26/26
f 16/18/18 96/10/10 24/27/27
f 20/17/17 19/16/16 27/26/26 28/28/28
f 17/19/19 16/18/18 24/27/27 25/29/29
f 21/20/20 20/17/17 28/28/28 29/23/23
f 18/21/21 17/19/19 25/29/29 26/25/25
f 29/23/23 28/28/28 36/30/30 37/31/31
f 26/25/25 25/29/29 33/32/32 34/33/33
f 30/24/24 29/23/23 37/31/31 38/34/34
f 27/26/26 26/25/25 34/33/33 35/35/35
f 24/27/27 96/10/10 32/36/36
f 28/28/28 27/26/26 35/35/35 36/30/30
f 25/29/29 24/27/27 32/36/36 33/32/32
f 36/30/30 35/35/35 43/37/37 44/38/38
f 33/32/32 32/36/36 40/39/39 41/40/40
f 37/31/31 36/30/30 44/38/38 45/41/41
f 34/33/33 33/32/32 41/40/40 42/42/42
f 38/34/34 37/31/31 45/41/41 46/43/43
f 35/35/35 34/33/33 42/42/42 43/37/37
f 32/36/36 96/10/10 40/39/39
f 46/43/43 45/41/41 53/44/44 54/45/45
f 43/37/37 42/42/42 50/46/46 51/47/47
f 40/39/39 96/10/10 48/48/48
f 44/38/38 43/37/37 51/47/47 52/49/49
f 41/40/40 40/39/39 48/48/48 49/50/50
f 45/41/41 44/38/38 52/49/49 53/44/44
f 42/42/42 41/40/40 49/50/50 50/46/46
f 53/44/44 52/49/49 60/51/51 61/52/52
f 50/46/46 49/50/50 57/53/53 58/54/54
f 54/45/45 53/44/44 61/52/52 62/55/55
f 51/47/47 50/46/46 58/54/54 59/56/56
f 48/48/48 96/10/10 56/57/57
f 52/49/49 51/47/47 59/56/56 60/51/51
f 49/50/50 48/48/48 56/57/57 57/53/53
f 56/57/57 96/10/10 64/58/58
f 60/51/51 59/56/56 67/59/59 68/60/60
f 57/53/53 56/57/57 64/58/58 65/61/61
f 61/52/52 60/51/51 68/60/60 69/62/62
f 58/54/54 57/53/53 65/61/61 66/63/63
f 62/55/55 61/52/52 69/62/62 70/64/64
f 59/56/56 58/54/54 66/63/63 67/59/59
f 70/64/64 69/62/62 77/65/65 78/66/66
f 67/59/59 66/63/63 74/67/67 75/68/68
f 64/58/58 96/10/10 72/69/69
f 68/60/60 67/59/59 75/68/68 76/70/70
f 65/61/61 64/58/58 72/69/69 73/71/71
f 69/62/62 68/60/60 76/70/70 77/65/65
f 66/63/63 65/61/61 73/71/71 74/67/67
f 73/71/71 72/69/69 80/72/72 81/73/73
f 77/65/65 76/70/70 84/74/74 85/75/75
f 74/67/67 73/71/71 81/73/73 82/76/76
f 78/66/66 77/65/65 85/75/75 86/77/77
f 75/68/68 74/67/67 82/76/76 83/78/78
f 72/69/69 96/10/10 80/72/72
f 76/70/70 75/68/68 83/78/78 84/74/74
f 80/72/72 96/10/10 88/79/79
f 84/74/74 83/78/78 91/80/80 92/81/81
f 81/73/73 80/72/72 88/79/79 89/82/82
f 85/75/75 84/74/74 92/81/81 93/83/83
f 82/76/76 81/73/73 89/82/82 90/84/84
f 86/77/77 85/75/75 93/83/83 94/85/85
f 83/78/78 82/76/76 90/84/84 91/80/80
f 90/84/84 89/82/82 1/14/14 98/6/6
f 94/85/85 93/83/83 4/2/2 5/1/1
f 91/80/80 90/84/84 98/6/6 2/5/5
f 88/79/79 96/10/10 97/9/9
f 92/81/81 91/80/80 2/5/5 3/12/12
f 89/82/82 88/79/79 97/9/9 1/14/14
f 93/83/83 92/81/81 3/12/12 4/2/2
usemtl Mushroom_Stem
f 15/86/86 23/87/87 7/88/88
f 7/89/88 23/87/87 31/90/89
f 5/91/1 14/92/4 15/86/86 6/93/90
f 7/94/88 31/90/89 39/95/91
f 15/86/86 14/92/4 22/96/22 23/87/87
f 22/96/22 30/97/24 31/90/89 23/87/87
f 39/95/91 47/98/92 7/99/88
f 30/97/24 38/100/34 39/95/91 31/90/89
f 7/101/88 47/98/92 55/102/93
f 7/103/88 55/102/93 63/104/94
f 38/100/34 46/105/43 47/98/92 39/95/91
f 46/105/43 54/106/45 55/102/93 47/98/92
f 63/104/94 71/107/95 7/108/88
f 55/102/93 54/106/45 62/109/55 63/104/94
f 7/110/88 71/107/95 79/111/96
f 62/109/55 70/112/64 71/107/95 63/104/94
f 7/113/88 79/114/96 87/115/97
f 70/112/64 78/116/66 79/111/96 71/107/95
f 7/117/88 87/115/97 95/118/98
f 7/119/88 95/118/98 6/93/90
f 79/114/96 78/120/66 86/121/77 87/115/97
f 86/121/77 94/122/85 95/118/98 87/115/97
f 7/123/88 6/93/90 15/86/86
f 94/122/85 5/91/1 6/93/90 95/118/98
