# Blender v2.90.0 OBJ File: 'Nature Kit.blend'
# www.blender.org
mtllib Mushroom_Dark_Red.mtl
o Sphere.018_Sphere.025
v -0.044266 0.156391 -0.035187
v -0.044266 0.116721 -0.077703
v -0.044266 0.095909 -0.079241
v -0.044266 0.076063 -0.065800
v -0.044266 0.084791 -0.004159
v -0.044266 -0.031954 -0.021116
v -0.044266 -0.046324 0.034502
v -0.026229 0.169650 0.003261
v -0.009421 0.156391 -0.025851
v 0.005012 0.134593 -0.050850
v 0.011837 0.116721 -0.062670
v 0.012606 0.095909 -0.064002
v 0.005885 0.076063 -0.052362
v -0.023186 0.084791 0.001021
v -0.016457 -0.031954 -0.013665
v -0.013025 0.169650 0.016465
v 0.016087 0.156391 -0.000343
v 0.041086 0.134593 -0.014776
v 0.052906 0.116721 -0.021600
v 0.054238 0.095909 -0.022369
v 0.042598 0.076063 -0.015649
v -0.007754 0.084791 0.015172
v 0.003901 -0.031954 0.006693
v -0.008192 0.169650 0.034502
v 0.025423 0.156391 0.034502
v 0.054290 0.134593 0.034502
v 0.067939 0.116721 0.034502
v 0.069477 0.095909 0.034502
v 0.056036 0.076063 0.034502
v -0.002105 0.084791 0.034502
v 0.011353 -0.031954 0.034502
v -0.013025 0.169650 0.052539
v 0.016087 0.156391 0.069347
v 0.041086 0.134593 0.083780
v 0.052906 0.116721 0.090604
v 0.054238 0.095909 0.091373
v 0.042598 0.076063 0.084653
v -0.007754 0.084791 0.053833
v 0.003901 -0.031954 0.062311
v -0.026229 0.169650 0.065743
v -0.009421 0.156391 0.094855
v 0.005012 0.134593 0.119854
v 0.011837 0.116721 0.131674
v 0.012606 0.095909 0.133006
v 0.005885 0.076063 0.121366
v -0.023186 0.084791 0.067983
v -0.016457 -0.031954 0.082669
v -0.044266 0.169650 0.070576
v -0.044266 0.156391 0.104191
v -0.044266 0.134593 0.133057
v -0.044266 0.116721 0.146707
v -0.044266 0.095909 0.148245
v -0.044266 0.076063 0.134804
v -0.044266 0.084791 0.073163
v -0.044266 -0.031954 0.090120
v -0.062303 0.169650 0.065743
v -0.079110 0.156391 0.094855
v -0.093543 0.134593 0.119853
v -0.100368 0.116721 0.131674
v -0.101137 0.095909 0.133006
v -0.094417 0.076063 0.121366
v -0.065346 0.084791 0.067983
v -0.072075 -0.031954 0.082669
v -0.075507 0.169650 0.052539
v -0.104618 0.156391 0.069347
v -0.129617 0.134593 0.083780
v -0.141438 0.116721 0.090604
v -0.142770 0.095909 0.091373
v -0.131130 0.076063 0.084653
v -0.080778 0.084791 0.053833
v -0.092433 -0.031954 0.062311
v -0.080339 0.169650 0.034502
v -0.113955 0.156391 0.034502
v -0.142821 0.134593 0.034502
v -0.156470 0.116721 0.034502
v -0.158008 0.095909 0.034502
v -0.144568 0.076063 0.034502
v -0.086426 0.084791 0.034502
v -0.099884 -0.031954 0.034502
v -0.075507 0.169650 0.016465
v -0.104618 0.156391 -0.000343
v -0.129617 0.134593 -0.014776
v -0.141438 0.116721 -0.021600
v -0.142770 0.095909 -0.022369
v -0.131130 0.076063 -0.015649
v -0.080778 0.084791 0.015172
v -0.092433 -0.031954 0.006693
v -0.062303 0.169650 0.003261
v -0.079110 0.156391 -0.025851
v -0.093543 0.134593 -0.050850
v -0.100368 0.116721 -0.062670
v -0.101137 0.095909 -0.064002
v -0.094417 0.076063 -0.052362
v -0.065346 0.084791 0.001021
v -0.072075 -0.031954 -0.013665
v -0.044266 0.174173 0.034502
v -0.044266 0.169650 -0.001572
v -0.044266 0.134593 -0.064053
v -0.044266 -0.009080 -0.008724
v -0.020697 -0.009080 -0.002932
v -0.003443 -0.009080 0.012889
v 0.002872 -0.009080 0.034502
v -0.003443 -0.009080 0.056115
v -0.020697 -0.009080 0.071936
v -0.044266 -0.009080 0.077728
v -0.067835 -0.009080 0.071936
v -0.085089 -0.009080 0.056115
v -0.091404 -0.009080 0.034502
v -0.085089 -0.009080 0.012889
v -0.067835 -0.009080 -0.002932
vt 0.993381 0.486699
vt 0.910048 0.486698
vt 0.910048 0.334227
vt 0.993381 0.334227
vt 0.826714 0.334227
vt 0.868381 0.130931
vt 0.785048 0.130931
vt 0.743381 0.334227
vt 0.910047 0.639170
vt 0.826714 0.639170
vt 0.826714 0.486698
vt 0.701715 0.130931
vt 0.660048 0.334227
vt 0.743381 0.486698
vt 0.660048 0.486698
vt 0.576714 0.334227
vt 0.618381 0.130931
vt 0.576714 0.486698
vt 0.535048 0.130931
vt 0.493381 0.334227
vt 0.451714 0.130931
vt 0.410047 0.334227
vt 0.493381 0.486698
vt 0.493381 0.639170
vt 0.410047 0.639170
vt 0.410047 0.486698
vt 0.326714 0.334227
vt 0.368380 0.130931
vt 0.326714 0.486698
vt 0.285047 0.130931
vt 0.243381 0.334227
vt 0.243381 0.486698
vt 1.201714 0.130931
vt 1.243381 0.334227
vt 1.160047 0.334227
vt 1.243381 0.486698
vt 1.243381 0.639170
vt 1.160047 0.639170
vt 1.160047 0.486698
vt 1.118381 0.130931
vt 1.076714 0.334227
vt 1.035047 0.130931
vt 1.076714 0.486698
vt 1.076714 0.639170
vt 0.993381 0.639170
vt 0.326714 0.639170
vt 0.243381 0.639170
vt 0.576714 0.639170
vt 0.660048 0.639170
vt 0.743381 0.639170
vt 0.951714 0.130931
vt 0.474133 -0.015407
vt 0.491450 0.150397
vt 0.322029 0.198713
vt 0.224130 0.063781
vt 0.492137 0.272060
vt 0.492273 0.315432
vt 0.405259 0.341226
vt 0.383456 0.303733
vt 0.494475 0.434383
vt 0.496900 0.490698
vt 0.466642 0.443140
vt 0.492403 0.224239
vt 0.359776 0.262186
vt 0.492881 0.377194
vt 0.436667 0.394410
vt 0.305171 0.385504
vt 0.263890 0.361362
vt 0.446916 0.464640
vt 0.396592 0.437426
vt 0.199464 0.325267
vt 0.342800 0.407071
vt 0.047215 0.257362
vt 0.156597 0.496148
vt -0.009207 0.513465
vt 0.321632 0.495324
vt 0.278260 0.495461
vt 0.440584 0.493123
vt 0.230438 0.495195
vt 0.383394 0.494717
vt 0.268386 0.627822
vt 0.204914 0.665568
vt 0.400611 0.550931
vt 0.347427 0.582338
vt 0.069982 0.763468
vt 0.309934 0.604142
vt 0.449341 0.520956
vt 0.391705 0.682425
vt 0.367563 0.723707
vt 0.470842 0.540681
vt 0.443627 0.591005
vt 0.331468 0.788132
vt 0.413273 0.644796
vt 0.263563 0.940382
vt 0.502349 0.830999
vt 0.519666 0.996804
vt 0.501526 0.665965
vt 0.501662 0.709336
vt 0.499324 0.547013
vt 0.501396 0.757157
vt 0.500918 0.604203
vt 0.634023 0.719210
vt 0.671770 0.782683
vt 0.557132 0.586986
vt 0.588540 0.640170
vt 0.769669 0.917615
vt 0.610343 0.677663
vt 0.527157 0.538256
vt 0.546883 0.516756
vt 0.688628 0.595892
vt 0.729909 0.620034
vt 0.597207 0.543970
vt 0.794335 0.656129
vt 0.650999 0.574325
vt 0.946584 0.724034
vt 0.837202 0.485248
vt 1.003006 0.467931
vt 0.672167 0.486072
vt 0.715539 0.485935
vt 0.553215 0.488273
vt 0.763361 0.486202
vt 0.610405 0.486679
vt 0.544458 0.460441
vt 0.593188 0.430465
vt 0.725413 0.353575
vt 0.788885 0.315828
vt 0.646372 0.399058
vt 0.923817 0.217928
vt 0.683865 0.377254
vt 0.522957 0.440715
vt 0.602094 0.298971
vt 0.626235 0.257689
vt 0.550171 0.390391
vt 0.662331 0.193264
vt 0.580526 0.336600
vt 0.730236 0.041014
vn 0.0000 0.2732 -0.9619
vn 0.4683 0.2588 -0.8448
vn 0.4492 -0.3743 -0.8112
vn 0.0000 -0.3623 -0.9320
vn 0.7848 -0.4005 -0.4730
vn 0.0000 -1.0000 0.0000
vn 0.9100 -0.4146 0.0000
vn 0.2774 -0.8043 -0.5255
vn 0.4951 -0.8107 -0.3123
vn 0.8344 0.2291 -0.5012
vn 0.7848 -0.4005 0.4730
vn 0.9768 0.2141 0.0000
vn 0.8344 0.2291 0.5012
vn 0.4492 -0.3743 0.8112
vn 0.4683 0.2588 0.8448
vn 0.0000 -0.3623 0.9320
vn -0.4492 -0.3743 0.8112
vn 0.0000 0.2732 0.9619
vn 0.0000 -0.8014 0.5981
vn -0.2774 -0.8043 0.5255
vn -0.4683 0.2588 0.8448
vn -0.7848 -0.4005 0.4730
vn -0.8344 0.2291 0.5012
vn -0.9100 -0.4146 0.0000
vn -0.9768 0.2141 0.0000
vn -0.7848 -0.4005 -0.4730
vn -0.5804 -0.8143 0.0000
vn -0.4951 -0.8107 -0.3123
vn -0.8344 0.2291 -0.5012
vn -0.4492 -0.3743 -0.8112
vn -0.4683 0.2588 -0.8448
vn -0.2774 -0.8043 -0.5255
vn 0.0000 -0.8014 -0.5981
vn -0.4951 -0.8107 0.3123
vn 0.2774 -0.8043 0.5255
vn 0.4951 -0.8107 0.3123
vn 0.5804 -0.8143 0.0000
vn 0.0000 -0.8808 -0.4735
vn 0.2371 -0.8811 -0.4091
vn 0.0000 0.3403 -0.9403
vn 0.0000 0.6980 -0.7161
vn 0.3580 0.6980 -0.6202
vn 0.4701 0.3403 -0.8143
vn 0.0000 0.9637 -0.2669
vn 0.0000 1.0000 0.0000
vn 0.1335 0.9637 -0.2312
vn 0.0000 -0.2452 -0.9695
vn 0.4847 -0.2452 -0.8396
vn 0.0000 0.8625 -0.5060
vn 0.2530 0.8625 -0.4382
vn 0.8143 0.3403 -0.4701
vn 0.8396 -0.2452 -0.4847
vn 0.2312 0.9637 -0.1335
vn 0.4382 0.8625 -0.2530
vn 0.4089 -0.8818 -0.2351
vn 0.6202 0.6980 -0.3580
vn 0.4710 -0.8821 0.0000
vn 0.7161 0.6980 0.0000
vn 0.9403 0.3403 0.0000
vn 0.2669 0.9637 0.0000
vn 0.9695 -0.2452 0.0000
vn 0.5060 0.8625 0.0000
vn 0.8396 -0.2452 0.4847
vn 0.4089 -0.8818 0.2351
vn 0.4382 0.8625 0.2530
vn 0.6202 0.6980 0.3580
vn 0.8143 0.3403 0.4701
vn 0.2312 0.9637 0.1335
vn 0.4701 0.3403 0.8143
vn 0.4847 -0.2452 0.8396
vn 0.1335 0.9637 0.2312
vn 0.2530 0.8625 0.4382
vn 0.2371 -0.8811 0.4091
vn 0.3580 0.6980 0.6202
vn 0.0000 -0.8808 0.4735
vn 0.0000 0.6980 0.7161
vn 0.0000 0.3403 0.9403
vn 0.0000 0.9637 0.2669
vn 0.0000 -0.2452 0.9695
vn 0.0000 0.8625 0.5060
vn -0.4847 -0.2452 0.8396
vn -0.2371 -0.8811 0.4091
vn -0.2530 0.8625 0.4382
vn -0.3580 0.6980 0.6202
vn -0.4701 0.3403 0.8143
vn -0.1335 0.9637 0.2312
vn -0.2312 0.9637 0.1335
vn -0.8143 0.3403 0.4701
vn -0.8396 -0.2452 0.4847
vn -0.4382 0.8625 0.2530
vn -0.4089 -0.8818 0.2351
vn -0.6202 0.6980 0.3580
vn -0.4710 -0.8821 0.0000
vn -0.7161 0.6980 0.0000
vn -0.9403 0.3403 0.0000
vn -0.2669 0.9637 0.0000
vn -0.9695 -0.2452 0.0000
vn -0.5060 0.8625 0.0000
vn -0.2312 0.9637 -0.1335
vn -0.4382 0.8625 -0.2530
vn -0.8396 -0.2452 -0.4847
vn -0.4089 -0.8818 -0.2351
vn -0.6202 0.6980 -0.3580
vn -0.8143 0.3403 -0.4701
vn -0.1335 0.9637 -0.2312
vn -0.4701 0.3403 -0.8143
vn -0.4847 -0.2452 -0.8396
vn -0.2530 0.8625 -0.4382
vn -0.2371 -0.8811 -0.4091
vn -0.3580 0.6980 -0.6202
usemtl Mushroom_Stem
s 1
f 99/1/1 100/2/2 15/3/3 6/4/4
f 15/3/3 23/5/5 7/6/6
f 7/7/6 23/5/5 31/8/7
f 100/2/2 14/9/8 22/10/9 101/11/10
f 7/12/6 31/8/7 39/13/11
f 101/11/10 102/14/12 31/8/7 23/5/5
f 102/14/12 103/15/13 39/13/11 31/8/7
f 39/13/11 47/16/14 7/17/6
f 103/15/13 104/18/15 47/16/14 39/13/11
f 7/19/6 47/16/14 55/20/16
f 7/21/6 55/20/16 63/22/17
f 104/18/15 105/23/18 55/20/16 47/16/14
f 105/23/18 54/24/19 62/25/20 106/26/21
f 63/22/17 71/27/22 7/28/6
f 106/26/21 107/29/23 71/27/22 63/22/17
f 7/30/6 71/27/22 79/31/24
f 107/29/23 108/32/25 79/31/24 71/27/22
f 7/33/6 79/34/24 87/35/26
f 108/36/25 78/37/27 86/38/28 109/39/29
f 7/40/6 87/35/26 95/41/30
f 7/42/6 95/41/30 6/4/4
f 109/39/29 110/43/31 95/41/30 87/35/26
f 110/43/31 99/1/1 6/4/4 95/41/30
f 94/44/32 5/45/33 99/1/1 110/43/31
f 86/38/28 94/44/32 110/43/31 109/39/29
f 79/34/24 108/36/25 109/39/29 87/35/26
f 70/46/34 78/47/27 108/32/25 107/29/23
f 62/25/20 70/46/34 107/29/23 106/26/21
f 55/20/16 105/23/18 106/26/21 63/22/17
f 46/48/35 54/24/19 105/23/18 104/18/15
f 38/49/36 46/48/35 104/18/15 103/15/13
f 30/50/37 38/49/36 103/15/13 102/14/12
f 22/10/9 30/50/37 102/14/12 101/11/10
f 15/3/3 100/2/2 101/11/10 23/5/5
f 5/45/33 14/9/8 100/2/2 99/1/1
f 7/51/6 6/4/4 15/3/3
usemtl Mushroom_Dark_Red
f 5/52/33 4/53/38 13/54/39 14/55/8
f 2/56/40 98/57/41 10/58/42 11/59/43
f 97/60/44 96/61/45 8/62/46
f 3/63/47 2/56/40 11/59/43 12/64/48
f 1/65/49 97/60/44 8/62/46 9/66/50
f 4/53/38 3/63/47 12/64/48 13/54/39
f 98/57/41 1/65/49 9/66/50 10/58/42
f 12/64/48 11/59/43 19/67/51 20/68/52
f 9/66/50 8/62/46 16/69/53 17/70/54
f 13/54/39 12/64/48 20/68/52 21/71/55
f 10/58/42 9/66/50 17/70/54 18/72/56
f 14/55/8 13/54/39 21/71/55 22/73/9
f 11/59/43 10/58/42 18/72/56 19/67/51
f 8/62/46 96/61/45 16/69/53
f 22/73/9 21/71/55 29/74/57 30/75/37
f 19/67/51 18/72/56 26/76/58 27/77/59
f 16/69/53 96/61/45 24/78/60
f 20/68/52 19/67/51 27/77/59 28/79/61
f 17/70/54 16/69/53 24/78/60 25/80/62
f 21/71/55 20/68/52 28/79/61 29/74/57
f 18/72/56 17/70/54 25/80/62 26/76/58
f 29/74/57 28/79/61 36/81/63 37/82/64
f 26/76/58 25/80/62 33/83/65 34/84/66
f 30/75/37 29/74/57 37/82/64 38/85/36
f 27/77/59 26/76/58 34/84/66 35/86/67
f 24/78/60 96/61/45 32/87/68
f 28/79/61 27/77/59 35/86/67 36/81/63
f 25/80/62 24/78/60 32/87/68 33/83/65
f 36/81/63 35/86/67 43/88/69 44/89/70
f 33/83/65 32/87/68 40/90/71 41/91/72
f 37/82/64 36/81/63 44/89/70 45/92/73
f 34/84/66 33/83/65 41/91/72 42/93/74
f 38/85/36 37/82/64 45/92/73 46/94/35
f 35/86/67 34/84/66 42/93/74 43/88/69
f 32/87/68 96/61/45 40/90/71
f 46/94/35 45/92/73 53/95/75 54/96/19
f 43/88/69 42/93/74 50/97/76 51/98/77
f 40/90/71 96/61/45 48/99/78
f 44/89/70 43/88/69 51/98/77 52/100/79
f 41/91/72 40/90/71 48/99/78 49/101/80
f 45/92/73 44/89/70 52/100/79 53/95/75
f 42/93/74 41/91/72 49/101/80 50/97/76
f 53/95/75 52/100/79 60/102/81 61/103/82
f 50/97/76 49/101/80 57/104/83 58/105/84
f 54/96/19 53/95/75 61/103/82 62/106/20
f 51/98/77 50/97/76 58/105/84 59/107/85
f 48/99/78 96/61/45 56/108/86
f 52/100/79 51/98/77 59/107/85 60/102/81
f 49/101/80 48/99/78 56/108/86 57/104/83
f 56/108/86 96/61/45 64/109/87
f 60/102/81 59/107/85 67/110/88 68/111/89
f 57/104/83 56/108/86 64/109/87 65/112/90
f 61/103/82 60/102/81 68/111/89 69/113/91
f 58/105/84 57/104/83 65/112/90 66/114/92
f 62/106/20 61/103/82 69/113/91 70/115/34
f 59/107/85 58/105/84 66/114/92 67/110/88
f 70/115/34 69/113/91 77/116/93 78/117/27
f 67/110/88 66/114/92 74/118/94 75/119/95
f 64/109/87 96/61/45 72/120/96
f 68/111/89 67/110/88 75/119/95 76/121/97
f 65/112/90 64/109/87 72/120/96 73/122/98
f 69/113/91 68/111/89 76/121/97 77/116/93
f 66/114/92 65/112/90 73/122/98 74/118/94
f 73/122/98 72/120/96 80/123/99 81/124/100
f 77/116/93 76/121/97 84/125/101 85/126/102
f 74/118/94 73/122/98 81/124/100 82/127/103
f 78/117/27 77/116/93 85/126/102 86/128/28
f 75/119/95 74/118/94 82/127/103 83/129/104
f 72/120/96 96/61/45 80/123/99
f 76/121/97 75/119/95 83/129/104 84/125/101
f 80/123/99 96/61/45 88/130/105
f 84/125/101 83/129/104 91/131/106 92/132/107
f 81/124/100 80/123/99 88/130/105 89/133/108
f 85/126/102 84/125/101 92/132/107 93/134/109
f 82/127/103 81/124/100 89/133/108 90/135/110
f 86/128/28 85/126/102 93/134/109 94/136/32
f 83/129/104 82/127/103 90/135/110 91/131/106
f 90/135/110 89/133/108 1/65/49 98/57/41
f 94/136/32 93/134/109 4/53/38 5/52/33
f 91/131/106 90/135/110 98/57/41 2/56/40
f 88/130/105 96/61/45 97/60/44
f 92/132/107 91/131/106 2/56/40 3/63/47
f 89/133/108 88/130/105 97/60/44 1/65/49
f 93/134/109 92/132/107 3/63/47 4/53/38
