# Blender v2.90.0 OBJ File: 'Nature Kit.blend'
# www.blender.org
mtllib Rock_7.mtl
o Icosphere.035_Icosphere.135
v -0.760411 -0.123594 0.385445
v -0.279022 -0.252682 0.737624
v -0.265594 -0.682805 0.237862
v -0.555718 0.554963 0.178850
v -0.252836 0.180661 0.766105
v -0.405989 0.656817 0.272276
v -0.649494 -0.608755 -0.353448
v -0.809682 -0.295595 -0.395736
v -0.566714 -0.742599 -0.291165
v -0.355343 0.670823 -0.397164
v -0.545389 0.151788 -0.740349
v 0.472565 -0.376714 0.751282
v 0.395896 -0.814880 -0.020158
v 0.747737 -0.167262 0.325015
v 0.228822 0.238797 0.775293
v 0.391945 0.784924 0.160741
v 0.734670 0.426712 0.040443
v 0.448115 -0.870459 -0.351480
v 0.045554 -0.662678 -0.650736
v 0.030089 -0.149064 -0.860113
v 0.431237 0.469635 -0.611851
v -0.141029 0.723382 -0.313707
v 0.449258 0.158652 -0.696560
v 0.662284 0.399538 -0.353691
v 0.519537 0.060961 -0.550210
v 0.808294 -0.260137 -0.021192
v 0.603253 -0.461952 -0.487499
v 0.790872 0.112116 -0.137896
v 0.633318 -0.651117 -0.375818
v 0.626911 -0.067029 -0.507270
vt 0.907788 0.648081
vt 0.934880 0.477744
vt 1.109154 0.190768
vt 1.337132 0.411717
vt 0.810796 0.934626
vt 0.371579 1.357245
vt 0.336012 0.624835
vt 0.352191 0.656206
vt 0.402029 0.957677
vt 0.302422 0.690514
vt 1.233969 0.029965
vt 1.326641 -0.282802
vt -0.100012 0.837165
vt -0.116067 0.236250
vt 0.153074 0.042114
vt 1.223196 0.853357
vt 1.628104 0.433123
vt 1.666033 0.539500
vt 1.727788 0.810499
vt 1.603343 1.183031
vt -0.916008 1.183031
vt -0.791564 0.810499
vt -0.444471 0.546417
vt -0.225399 0.923600
vt -0.407551 1.399815
vt 1.117652 1.507819
vt 0.909421 1.597567
vt 0.582120 1.398877
vt 0.661286 0.941864
vt 1.117652 0.917931
vt 0.644076 -0.115331
vt 0.571893 0.395805
vt 0.314571 -0.522472
vt 0.716562 0.626566
vt 1.776717 -0.083455
vt 0.741345 0.271224
vt 1.131679 0.052819
vt 1.225083 0.018166
vt 0.961030 -0.748516
vt 1.960845 -0.753814
vt 1.960845 0.101601
vt -0.303703 -0.069105
vt 0.025547 1.596677
vt 0.944161 0.784099
vt -0.891248 0.433123
vt -0.742635 -0.083455
vt -0.853319 0.539500
vt 0.652829 1.646307
vt 0.811164 -0.021737
vn 0.3020 -0.0657 -0.9510
vn 0.2153 0.9079 -0.3596
vn -0.5519 0.8336 -0.0243
vn -0.4965 -0.8655 0.0669
vn -0.0527 0.7343 0.6768
vn -0.3934 -0.3863 -0.8343
vn -0.9201 0.3718 -0.1233
vn -0.0143 0.4542 -0.8908
vn 0.7260 0.3426 0.5963
vn 0.7522 0.0636 -0.6559
vn 0.6171 0.7501 -0.2377
vn -0.1242 -0.9756 0.1810
vn -0.0082 -0.9731 -0.2303
vn 0.8974 0.0751 -0.4348
vn 0.3911 -0.4210 -0.8184
vn -0.0515 -0.8235 0.5650
vn -0.5933 -0.0170 0.8048
vn -0.1747 0.9841 0.0328
vn -0.0214 -0.0544 0.9983
vn 0.6026 -0.3366 -0.7236
vn 0.9264 0.1480 -0.3461
vn -0.8216 -0.2760 0.4988
vn -0.8882 -0.4338 0.1515
vn -0.6857 0.3996 0.6084
vn 0.0393 0.7969 -0.6028
vn -0.6190 -0.6601 0.4256
vn 0.9415 0.2770 -0.1920
vn 0.9847 0.0923 0.1475
vn 0.9243 -0.0741 -0.3744
vn 0.5739 0.2165 -0.7898
vn 0.7808 -0.5716 0.2523
usemtl Rock
s off
f 25/1/1 30/2/1 27/3/1 19/4/1
f 21/5/2 22/6/2 16/7/2
f 6/8/3 10/9/3 4/10/3
f 19/4/4 18/11/4 13/12/4
f 6/13/5 5/14/5 15/15/5 16/7/5
f 20/16/6 19/4/6 9/17/6 7/18/6 8/19/6 11/20/6
f 11/21/7 8/22/7 1/23/7 4/24/7 10/25/7
f 21/26/8 23/27/8 20/28/8 11/29/8 10/30/8
f 14/31/9 17/32/9 16/7/9 15/15/9 12/33/9
f 25/1/10 21/5/10 24/34/10
f 24/34/11 21/5/11 16/7/11 17/32/11
f 13/12/12 3/35/12 9/17/12
f 9/17/13 19/4/13 13/12/13
f 28/36/14 30/2/14 24/34/14
f 18/11/15 19/4/15 27/3/15 29/37/15
f 3/38/16 13/39/16 12/40/16 2/41/16
f 2/42/17 5/14/17 1/23/17
f 22/6/18 10/43/18 6/13/18 16/7/18
f 2/42/19 12/33/19 15/15/19 5/14/19
f 20/16/20 23/44/20 25/1/20 19/4/20
f 25/1/21 23/44/21 21/5/21
f 9/45/22 3/46/22 7/47/22
f 1/23/23 8/22/23 7/47/23
f 5/14/24 6/13/24 4/24/24 1/23/24
f 22/48/25 21/5/25 10/43/25
f 3/46/26 2/42/26 1/23/26 7/47/26
f 17/32/27 28/36/27 24/34/27
f 17/32/28 14/31/28 26/49/28 28/36/28
f 26/49/29 29/37/29 27/3/29 30/2/29 28/36/29
f 30/2/30 25/1/30 24/34/30
f 29/37/31 26/49/31 14/31/31 12/33/31 13/12/31 18/11/31
