# Blender v2.90.0 OBJ File: 'Nature Kit.blend'
# www.blender.org
mtllib Rock_6.mtl
o Rock.012
v -0.610784 0.354693 0.189831
v -0.610784 0.191979 0.245635
v -0.533123 0.035489 0.387325
v -0.301896 0.169289 0.603512
v -0.308729 0.105881 0.617514
v -0.610784 -0.364930 -0.085667
v -0.610784 0.172116 -0.579924
v -0.610784 -0.339540 -0.332796
v -0.457029 -0.395488 -0.510657
v -0.117149 -0.572035 -0.389234
v -0.128854 -0.593593 -0.124406
v -0.473051 -0.467906 0.269470
v 0.057723 -0.593593 0.253066
v -0.008450 -0.191764 0.692628
v -0.137079 -0.148729 0.710850
v -0.236716 -0.145033 0.691386
v 0.149278 -0.405774 0.487597
v -0.437702 -0.284896 0.485210
v 0.061138 -0.044116 0.722597
v 0.644679 -0.298265 0.231516
v 0.482967 -0.014885 0.473547
v 0.334186 -0.555137 0.297745
v 0.644679 0.140963 0.307659
v 0.314955 0.403359 0.363474
v 0.019184 0.082671 0.684232
v -0.217711 0.512576 0.372554
v -0.229855 0.241006 0.599663
v -0.298403 0.590175 0.239033
v 0.125995 0.590175 0.039537
v -0.442200 0.590175 0.121780
v -0.376655 0.590175 -0.290676
v 0.144549 0.590175 -0.107823
v 0.061089 0.590175 -0.388788
v -0.234168 0.590175 -0.544177
v -0.263119 0.444824 -0.738059
v -0.245647 0.258202 -0.826589
v -0.429763 0.057162 -0.765619
v -0.047958 0.137371 -0.834325
v -0.010979 0.075079 -0.828967
v -0.199626 -0.339410 -0.730748
v -0.354415 -0.230306 -0.727176
v 0.390768 0.025881 -0.698048
v 0.428343 -0.087298 -0.646179
v -0.088640 -0.406907 -0.674909
v -0.041493 -0.555793 -0.453527
v 0.644679 -0.298265 -0.210590
v 0.384577 -0.513448 -0.158219
v 0.371780 0.218410 -0.682199
v 0.452056 0.374916 -0.447595
v 0.644679 0.178842 -0.062311
vt -0.236979 -0.108836
vt -0.330320 0.002646
vt -0.455874 0.092553
vt -0.580549 0.018607
vt -0.578947 0.051358
vt -0.176289 0.819341
vt 0.277146 0.744614
vt 0.066919 0.988066
vt 0.209526 1.091104
vt 0.253612 1.373127
vt -0.436951 1.292594
vt -0.465649 0.495907
vt 1.710490 1.292594
vt 1.492372 0.641375
vt 1.681792 0.495907
vt 1.495729 0.203688
vt 1.523961 0.175293
vt 1.548224 0.170804
vt 1.461247 0.373015
vt 1.624442 0.271041
vt 1.473362 0.142712
vt 1.257634 0.525835
vt 1.332949 0.212466
vt 1.400236 0.593408
vt 1.209757 0.212264
vt 1.269366 -0.061762
vt 1.475537 0.084207
vt 1.549346 -0.256075
vt 1.542316 -0.015975
vt 0.980161 0.256040
vt 0.806711 0.239819
vt 0.562591 -0.246003
vt 0.980161 -0.212807
vt 1.176193 0.343989
vt 1.029110 0.429471
vt 0.673519 0.187755
vt 1.176192 -0.038927
vt 0.677923 0.051648
vt 0.793927 -0.190759
vt 1.083646 -0.288979
vt 0.409666 0.546723
vt 0.400879 0.699357
vt 0.339734 0.299030
vt 0.398697 0.800622
vt 0.340170 0.862238
vt 0.438292 0.866161
vt 0.445008 0.894803
vt 0.365723 1.074492
vt 0.329226 1.003093
vt 0.561979 0.921673
vt 0.587335 0.978152
vt 0.393451 1.134214
vt 0.368558 1.334514
vt 0.188047 0.301081
vt 0.655688 0.541042
vt 0.018045 0.964658
vt 0.521263 0.851921
vt 0.556464 0.823761
vt 0.629326 0.656061
vt 0.948610 0.988661
vt 0.943161 0.470538
vt 0.510405 0.449594
vt 0.647301 0.050257
vt 0.799660 -0.215173
vt 1.110904 1.206302
vt 1.018585 0.960751
vt 1.085678 0.889199
vt 1.534631 1.125022
vt 1.035774 1.219491
vt 1.534631 1.574132
vt 1.259214 1.563893
vt -0.039923 -0.320785
vt -0.417428 -0.399433
vt -0.605124 -0.015975
vt -0.598095 -0.256075
vt 1.568494 0.051358
vt -0.522999 0.271041
vt -0.599217 0.170804
vn -0.7313 0.2213 0.6452
vn -1.0000 -0.0000 0.0000
vn -0.4329 -0.8967 -0.0921
vn -0.2257 -0.9678 0.1116
vn -0.1552 -0.7407 0.6537
vn 0.0619 -0.2265 0.9720
vn 0.4883 -0.3887 0.7814
vn 0.4476 0.3914 0.8040
vn 0.1424 0.6312 0.7624
vn 0.1903 0.8944 0.4048
vn 0.0000 1.0000 0.0000
vn -0.6717 0.6374 -0.3775
vn -0.5815 0.3036 -0.7548
vn -0.1405 -0.1673 -0.9758
vn -0.4394 -0.6015 -0.6671
vn 0.2554 -0.3315 -0.9082
vn 0.4576 -0.6897 -0.5613
vn 0.9112 0.1222 -0.3934
vn 1.0000 0.0000 0.0000
vn 0.3200 0.1090 -0.9411
vn 0.2315 0.4346 -0.8704
vn 0.3152 0.7361 -0.5989
vn 0.4618 0.8763 -0.1372
vn 0.6289 0.7734 0.0792
vn 0.7616 -0.1107 0.6385
vn 0.6374 -0.7705 0.0000
vn 0.0081 -0.7821 0.6231
vn 0.1491 -0.9861 -0.0737
vn -0.2500 -0.8273 -0.5031
vn -0.7682 -0.2784 -0.5765
vn -0.8236 0.5518 -0.1309
vn -0.5235 0.5603 0.6420
vn -0.1783 0.2305 0.9566
vn -0.7161 0.0000 0.6980
vn -0.9333 -0.1836 0.3087
usemtl Rock
s 1
f 1/1/1 2/2/1 3/3/1
f 4/4/1 3/3/1 5/5/1
f 4/4/1 1/1/1 3/3/1
f 6/6/2 2/2/2 1/1/2
f 6/6/2 1/1/2 7/7/2
f 7/7/2 8/8/2 6/6/2
f 8/8/3 9/9/3 10/10/3
f 6/6/3 8/8/3 11/11/3
f 11/11/3 12/12/3 6/6/3
f 8/8/3 10/10/3 11/11/3
f 11/13/4 13/14/4 12/15/4
f 14/16/5 15/17/5 16/18/5
f 17/19/5 14/16/5 18/20/5
f 18/20/5 12/15/5 13/14/5
f 17/19/5 18/20/5 13/14/5
f 14/16/5 16/18/5 18/20/5
f 15/17/6 14/16/6 19/21/6
f 19/21/7 14/16/7 17/19/7
f 17/19/7 20/22/7 21/23/7
f 17/19/7 22/24/7 20/22/7
f 21/23/7 19/21/7 17/19/7
f 21/23/8 23/25/8 24/26/8
f 21/23/8 24/26/8 25/27/8
f 25/27/8 19/21/8 21/23/8
f 26/28/9 27/29/9 25/27/9
f 24/26/9 26/28/9 25/27/9
f 28/30/10 26/31/10 24/32/10
f 24/32/10 29/33/10 28/30/10
f 30/34/11 28/35/11 29/36/11
f 31/37/11 30/34/11 32/38/11
f 32/38/11 33/39/11 31/37/11
f 33/39/11 34/40/11 31/37/11
f 30/34/11 29/36/11 32/38/11
f 34/41/12 35/42/12 7/7/12
f 31/43/12 34/41/12 7/7/12
f 35/42/13 36/44/13 37/45/13
f 7/7/13 35/42/13 37/45/13
f 37/45/14 36/44/14 38/46/14
f 37/45/14 38/46/14 39/47/14
f 39/47/14 40/48/14 37/45/14
f 40/48/14 41/49/14 37/45/14
f 9/9/15 41/49/15 40/48/15
f 39/47/16 42/50/16 43/51/16
f 39/47/16 43/51/16 44/52/16
f 44/52/16 40/48/16 39/47/16
f 45/53/17 44/52/17 43/51/17
f 43/54/17 46/55/17 45/56/17
f 46/55/17 47/57/17 45/56/17
f 43/51/18 42/50/18 48/58/18
f 49/59/18 46/60/18 43/51/18
f 49/59/18 50/61/18 46/60/18
f 43/51/18 48/58/18 49/59/18
f 50/61/19 23/25/19 20/22/19
f 50/61/19 20/22/19 46/60/19
f 48/58/20 42/50/20 39/47/20
f 39/47/20 38/46/20 48/58/20
f 38/46/21 36/44/21 35/42/21
f 38/46/21 35/42/21 48/58/21
f 34/41/22 33/62/22 49/59/22
f 34/41/22 49/59/22 48/58/22
f 48/58/22 35/42/22 34/41/22
f 32/63/23 49/59/23 33/62/23
f 29/64/24 24/26/24 23/25/24
f 32/63/24 23/25/24 50/61/24
f 50/61/24 49/59/24 32/63/24
f 32/63/24 29/64/24 23/25/24
f 23/25/25 21/23/25 20/22/25
f 47/65/26 46/60/26 20/22/26
f 47/65/26 20/22/26 22/24/26
f 17/19/27 13/14/27 22/24/27
f 10/66/28 45/67/28 47/68/28
f 11/69/28 47/68/28 22/70/28
f 22/70/28 13/71/28 11/69/28
f 11/69/28 10/66/28 47/68/28
f 45/53/29 10/10/29 9/9/29
f 9/9/29 40/48/29 44/52/29
f 44/52/29 45/53/29 9/9/29
f 7/7/30 37/45/30 41/49/30
f 9/9/30 8/8/30 7/7/30
f 7/7/30 41/49/30 9/9/30
f 1/1/31 30/72/31 31/43/31
f 31/43/31 7/7/31 1/1/31
f 28/73/32 30/72/32 1/1/32
f 4/4/32 27/74/32 1/1/32
f 27/74/32 26/75/32 1/1/32
f 26/75/32 28/73/32 1/1/32
f 27/74/33 4/4/33 5/5/33
f 16/18/33 25/27/33 5/76/33
f 16/18/33 19/21/33 25/27/33
f 16/18/33 15/17/33 19/21/33
f 25/27/33 27/29/33 5/76/33
f 18/77/34 16/78/34 5/5/34
f 5/5/34 3/3/34 18/77/34
f 18/77/35 3/3/35 2/2/35
f 2/2/35 6/6/35 12/12/35
f 12/12/35 18/77/35 2/2/35
