# Blender v2.90.0 OBJ File: 'Nature Kit.blend'
# www.blender.org
mtllib Rock_2.mtl
o Rock.008
v -0.520921 -0.050658 -0.533558
v -0.665534 -0.282081 -0.408434
v -0.741525 -0.275708 -0.197870
v -0.734848 0.093958 0.202551
v -0.511256 0.212391 -0.261770
v -0.727067 -0.200512 0.217871
v -0.594320 -0.220555 0.368041
v -0.586258 0.234549 0.367019
v -0.645627 0.208536 0.300635
v -0.421567 0.357684 0.430378
v -0.353863 0.474837 0.298773
v -0.389666 0.459975 0.256783
v -0.238859 0.498532 0.272154
v -0.355218 0.423019 -0.047118
v 0.043770 0.527195 0.008105
v 0.117090 0.514743 -0.193986
v -0.084677 0.440771 -0.364927
v 0.351987 0.382802 0.310661
v 0.534036 0.402991 0.134774
v 0.439933 0.488882 -0.098147
v 0.194692 0.383620 0.401235
v 0.317170 0.329564 0.358347
v 0.311068 0.260222 0.383779
v 0.393567 -0.028329 0.388771
v 0.429743 -0.064266 0.365186
v 0.429585 -0.065110 0.365573
v 0.742603 0.040873 0.042874
v 0.724675 0.220475 0.008531
v 0.702177 -0.095787 -0.048824
v 0.588475 0.079678 -0.292001
v 0.632208 0.227520 -0.192800
v 0.493353 0.408503 -0.176044
v 0.411851 -0.109133 -0.484406
v -0.158446 0.274371 -0.599110
v 0.028775 -0.106856 -0.691681
v -0.154375 0.095899 -0.687923
v -0.333292 0.194004 -0.530535
v -0.393123 -0.120576 -0.645903
v -0.029980 -0.173293 -0.680324
v -0.401639 -0.198912 -0.638952
v 0.227243 -0.363295 -0.419380
v 0.180062 -0.450942 -0.296482
v -0.143181 -0.457422 -0.282528
v -0.573360 -0.304405 -0.489281
v -0.103882 -0.454720 0.096418
v -0.193997 -0.457483 -0.090013
v 0.500582 -0.357704 -0.051036
v 0.293146 -0.360464 0.235999
v 0.288890 -0.292262 0.315919
v -0.028968 -0.154631 0.454842
v -0.121887 -0.166188 0.434529
v -0.184505 -0.397577 0.237321
v -0.226068 -0.103320 0.511166
v -0.468173 -0.257613 0.417779
v -0.176963 0.033778 0.529136
v 0.146294 0.337416 0.453139
v 0.019793 0.290248 0.506126
v -0.236740 0.292723 0.503350
v 0.084049 -0.076029 0.454358
vt -0.215131 0.806017
vt -0.226443 0.585252
vt -0.177247 0.453121
vt 0.037615 0.342439
vt -0.036798 0.805499
vt -0.067314 0.198967
vt -0.039212 0.044977
vt 0.153141 0.294630
vt 0.114259 0.328985
vt 0.255928 0.320058
vt 0.280596 0.491658
vt 0.254252 0.512969
vt 0.332389 0.542980
vt 0.174194 0.801567
vt 0.479435 0.902830
vt 0.548568 1.134385
vt 0.199142 1.289130
vt 0.665574 0.521715
vt 0.746707 0.682259
vt 0.736219 0.921307
vt 0.585838 0.419672
vt 0.661331 0.443185
vt 0.677982 0.372502
vt 0.830109 0.201979
vt 0.860468 0.217957
vt 0.860737 0.217160
vt 0.918119 0.583617
vt 0.865854 0.682930
vt 0.984706 0.580474
vt 0.996439 0.844793
vt 0.906778 0.838767
vt 0.807041 0.944423
vt 1.163105 0.878781
vt 1.671708 1.229836
vt -0.497059 0.984636
vt -0.266390 1.032482
vt -0.222581 1.229836
vt 1.480896 0.903430
vt -0.166941 1.051701
vt -0.345135 1.106305
vt -0.293050 0.855731
vt -0.469879 0.923292
vt -0.308727 0.803194
vt 1.277344 0.676523
vt 1.290098 0.531506
vt 1.448675 0.474386
vt -0.445614 0.474386
vt -0.264898 0.634929
vt 1.424410 0.923292
vt -0.478425 0.064870
vt -0.416145 0.278735
vt 1.415864 0.064870
vt 1.101017 0.434093
vt 1.077200 0.102698
vt 1.009093 0.050944
vt 0.655652 -0.292791
vt 0.316319 -0.340884
vt -0.387516 -0.105184
vt 0.240240 -0.199347
vt -0.046458 -0.070452
vt 0.357086 -0.074067
vt 0.568008 0.334813
vt 0.502950 0.229893
vt 0.346536 0.213071
vt 1.397230 0.984636
vt 0.711051 -0.121425
vt 1.075176 1.141767
vt 1.205688 0.769707
vn -0.8709 0.3683 -0.3254
vn -0.9989 -0.0244 0.0391
vn -0.7482 0.0147 0.6633
vn -0.6425 0.7060 0.2979
vn -0.2314 0.9623 -0.1432
vn 0.1668 0.9451 0.2811
vn 0.6685 0.2035 0.7153
vn 0.6685 0.2036 0.7153
vn 0.9088 0.0110 -0.4170
vn 0.4362 0.4089 -0.8016
vn -0.4841 0.3810 -0.7877
vn -0.1051 -0.0766 -0.9915
vn -0.0089 -0.8125 -0.5829
vn 0.0203 -0.9998 0.0050
vn 0.1871 -0.9743 0.1258
vn -0.0468 -0.7611 0.6470
vn 0.5400 -0.6258 0.5628
vn 0.1398 -0.6639 0.7346
vn 0.4568 -0.2745 0.8462
vn -0.0098 0.0968 0.9953
vn 0.4113 -0.4946 -0.7656
vn 0.7864 -0.6042 -0.1290
vn 0.6186 -0.4708 -0.6290
vn 0.6879 -0.5336 0.4920
vn -0.7814 0.3749 0.4988
vn 0.2453 -0.3471 0.9052
vn 0.1960 0.0729 0.9779
vn -0.2415 0.3528 0.9040
vn 0.5833 0.7758 -0.2407
vn 0.4570 0.4087 0.7900
vn 0.7859 0.6115 -0.0920
vn -0.5062 0.7703 -0.3879
vn 0.2419 0.7534 -0.6115
vn 0.0884 0.9957 -0.0293
vn 0.0000 0.7469 0.6649
vn -0.3646 0.0086 0.9311
vn -0.3415 -0.9227 0.1788
vn -0.2999 -0.9506 -0.0795
vn -0.6587 0.0049 -0.7524
vn -0.6879 0.5336 -0.4920
vn -0.7055 0.6896 -0.1638
usemtl Rock
s 1
f 1/1/1 2/2/1 3/3/1
f 3/3/1 4/4/1 5/5/1
f 5/5/1 1/1/1 3/3/1
f 6/6/2 4/4/2 3/3/2
f 4/4/3 6/6/3 7/7/3
f 7/7/3 8/8/3 9/9/3
f 4/4/3 7/7/3 9/9/3
f 10/10/4 11/11/4 12/12/4
f 9/9/4 8/8/4 12/12/4
f 8/8/4 10/10/4 12/12/4
f 12/12/5 11/11/5 13/13/5
f 14/14/5 13/13/5 15/15/5
f 15/15/5 16/16/5 17/17/5
f 15/15/5 17/17/5 14/14/5
f 14/14/5 12/12/5 13/13/5
f 18/18/6 19/19/6 20/20/6
f 21/21/6 20/20/6 15/15/6
f 15/15/6 13/13/6 21/21/6
f 21/21/6 18/18/6 20/20/6
f 18/18/7 22/22/7 23/23/7
f 19/19/7 23/23/7 24/24/7
f 19/19/7 24/24/7 25/25/8
f 25/25/8 26/26/7 19/19/7
f 26/26/7 27/27/7 19/19/7
f 27/27/7 28/28/7 19/19/7
f 19/19/7 18/18/7 23/23/7
f 28/28/9 27/27/9 29/29/9
f 29/29/9 30/30/9 28/28/9
f 30/30/9 31/31/9 28/28/9
f 32/32/10 31/31/10 30/30/10
f 33/33/10 34/34/10 32/32/10
f 35/35/10 36/36/10 34/37/10
f 33/33/10 35/38/10 34/34/10
f 32/32/10 30/30/10 33/33/10
f 37/39/11 34/37/11 36/40/11
f 36/40/11 38/41/11 37/39/11
f 38/41/11 1/1/11 37/39/11
f 36/40/12 35/35/12 39/42/12
f 39/42/12 40/43/12 38/41/12
f 38/41/12 36/40/12 39/42/12
f 41/44/13 42/45/13 43/46/13
f 43/47/13 44/48/13 39/42/13
f 44/48/13 40/43/13 39/42/13
f 39/49/13 41/44/13 43/46/13
f 45/50/14 46/51/14 43/47/14
f 45/52/14 43/46/14 42/45/14
f 47/53/15 48/54/15 42/45/15
f 48/54/15 45/52/15 42/45/15
f 48/54/16 49/55/16 50/56/16
f 50/56/16 51/57/16 45/52/16
f 50/56/16 45/52/16 48/54/16
f 45/50/17 51/57/17 52/58/17
f 51/57/18 53/59/18 54/60/18
f 54/60/18 52/58/18 51/57/18
f 55/61/19 53/59/19 51/57/19
f 55/61/19 51/57/19 22/22/19
f 22/22/19 56/62/19 55/61/19
f 56/62/19 57/63/19 55/61/19
f 58/64/20 55/61/20 57/63/20
f 41/44/21 39/49/21 35/65/21
f 33/33/21 41/44/21 35/65/21
f 42/45/22 41/44/22 33/33/22
f 42/45/22 33/33/22 30/30/22
f 42/45/23 30/30/23 47/53/23
f 30/30/23 29/29/23 47/53/23
f 26/26/24 49/55/24 48/54/24
f 47/53/24 27/27/24 26/26/24
f 47/53/24 29/29/24 27/27/24
f 26/26/24 48/54/24 47/53/24
f 26/26/25 25/25/25 49/55/25
f 49/55/26 25/25/26 24/24/26
f 49/55/26 24/24/26 59/66/26
f 59/66/26 50/56/26 49/55/26
f 23/23/27 59/66/27 24/24/27
f 51/57/28 50/56/28 59/66/28
f 23/23/28 22/22/28 51/57/28
f 51/57/28 59/66/28 23/23/28
f 28/28/29 31/31/29 19/19/29
f 22/22/30 18/18/30 21/21/30
f 56/62/30 22/22/30 21/21/30
f 31/31/31 32/32/31 20/20/31
f 31/31/31 20/20/31 19/19/31
f 17/17/32 34/37/32 37/39/32
f 37/39/32 5/5/32 14/14/32
f 37/39/32 14/14/32 17/17/32
f 16/67/33 20/20/33 32/68/33
f 32/68/33 34/34/33 16/67/33
f 34/37/33 17/17/33 16/16/33
f 15/15/34 20/20/34 16/16/34
f 13/13/35 11/11/35 10/10/35
f 13/13/35 58/64/35 56/62/35
f 58/64/35 57/63/35 56/62/35
f 56/62/35 21/21/35 13/13/35
f 13/13/35 10/10/35 58/64/35
f 58/64/36 10/10/36 8/8/36
f 8/8/36 7/7/36 53/59/36
f 7/7/36 54/60/36 53/59/36
f 53/59/36 58/64/36 8/8/36
f 53/59/36 55/61/36 58/64/36
f 54/60/37 7/7/37 6/6/37
f 6/6/37 3/3/37 46/51/37
f 46/51/37 45/50/37 52/58/37
f 46/51/37 52/58/37 6/6/37
f 52/58/37 54/60/37 6/6/37
f 3/3/38 2/2/38 44/48/38
f 44/48/38 43/47/38 46/51/38
f 44/48/38 46/51/38 3/3/38
f 1/1/39 38/41/39 40/43/39
f 40/43/39 44/48/39 1/1/39
f 44/48/39 2/2/39 1/1/39
f 37/39/40 1/1/40 5/5/40
f 4/4/41 9/9/41 12/12/41
f 12/12/41 14/14/41 5/5/41
f 12/12/41 5/5/41 4/4/41
